solid _f_stack
facet normal 1 2.980232E-08 0
outer loop
	vertex 0.003 -0.02007231 -0.1699143
	vertex 0.003 -0.01295498 -0.1692351
	vertex 0.003 -0.02719768 -0.1699143
endloop
endfacet
facet normal 1 2.980232E-08 0
outer loop
	vertex 0.003 -0.02719768 -0.1699143
	vertex 0.003 -0.01295498 -0.1692351
	vertex 0.002999998 -0.03431502 -0.1692351
endloop
endfacet
facet normal 1 2.980232E-08 0
outer loop
	vertex 0.003 -0.01295498 -0.1692351
	vertex 0.003 -0.005957071 -0.1678854
	vertex 0.002999998 -0.03431502 -0.1692351
endloop
endfacet
facet normal 1 2.980232E-08 0
outer loop
	vertex 0.002999998 -0.03431502 -0.1692351
	vertex 0.003 -0.005957071 -0.1678854
	vertex 0.002999997 -0.04131293 -0.1678854
endloop
endfacet
facet normal 1 2.980232E-08 0
outer loop
	vertex 0.003 -0.005957071 -0.1678854
	vertex 0.003 0.0008998588 -0.1658732
	vertex 0.002999997 -0.04131293 -0.1678854
endloop
endfacet
facet normal 1 2.980232E-08 0
outer loop
	vertex 0.002999997 -0.04131293 -0.1678854
	vertex 0.003 0.0008998588 -0.1658732
	vertex 0.002999998 -0.04816986 -0.1658732
endloop
endfacet
facet normal 1 2.980232E-08 0
outer loop
	vertex 0.003 0.0008998588 -0.1658732
	vertex 0.002999993 0.00749952 -0.1632307
	vertex 0.002999998 -0.04816986 -0.1658732
endloop
endfacet
facet normal 1 2.980232E-08 0
outer loop
	vertex 0.002999998 -0.04816986 -0.1658732
	vertex 0.002999993 0.00749952 -0.1632307
	vertex 0.002999998 -0.05476952 -0.1632307
endloop
endfacet
facet normal 1 2.980232E-08 0
outer loop
	vertex 0.002999993 0.00749952 -0.1632307
	vertex 0.003000007 0.09613581 -0.1124514
	vertex 0.002999998 -0.05476952 -0.1632307
endloop
endfacet
facet normal 1 2.980232E-08 0
outer loop
	vertex 0.002999998 -0.05476952 -0.1632307
	vertex 0.003000007 0.09613581 -0.1124514
	vertex 0.003 -0.126111 -0.1221771
endloop
endfacet
facet normal 1 2.980232E-08 0
outer loop
	vertex 0.003 -0.126111 -0.1221771
	vertex 0.003000007 0.09613581 -0.1124514
	vertex 0.003 -0.1282948 -0.1201494
endloop
endfacet
facet normal 1 2.980232E-08 0
outer loop
	vertex 0.003 -0.1282948 -0.1201494
	vertex 0.003000007 0.09613581 -0.1124514
	vertex 0.003 -0.1301582 -0.1178143
endloop
endfacet
facet normal 1 2.980232E-08 0
outer loop
	vertex 0.003 -0.1301582 -0.1178143
	vertex 0.003000007 0.09613581 -0.1124514
	vertex 0.003 -0.1316554 -0.115221
endloop
endfacet
facet normal 1 2.980232E-08 0
outer loop
	vertex 0.003 -0.1316554 -0.115221
	vertex 0.003000007 0.09613581 -0.1124514
	vertex 0.003 -0.132746 -0.1124397
endloop
endfacet
facet normal 1 2.980232E-08 0
outer loop
	vertex 0.003000007 0.09613581 -0.1124514
	vertex 0.003000007 0.1021586 -0.1085776
	vertex 0.003 -0.132746 -0.1124397
endloop
endfacet
facet normal 1 2.980232E-08 0
outer loop
	vertex 0.003 -0.1307712 -0.003979173
	vertex 0.003 -0.1317083 -0.00455449
	vertex 0.003000004 -0.1194687 -0.003995355
endloop
endfacet
facet normal 1 2.980232E-08 0
outer loop
	vertex 0.003000004 -0.1194687 -0.003995355
	vertex 0.003 -0.1317083 -0.00455449
	vertex 0.003000004 -0.1185214 -0.004589261
endloop
endfacet
facet normal 1 2.980232E-08 0
outer loop
	vertex 0.003 -0.1317083 -0.00455449
	vertex 0.003 -0.1325 -0.005325647
	vertex 0.003000004 -0.1185214 -0.004589261
endloop
endfacet
facet normal 1 2.980232E-08 0
outer loop
	vertex 0.003000004 -0.1185214 -0.004589261
	vertex 0.003 -0.1325 -0.005325647
	vertex 0.003000004 -0.1177265 -0.005384109
endloop
endfacet
facet normal 1 2.980232E-08 0
outer loop
	vertex 0.003 -0.1325 -0.005325647
	vertex 0.003 -0.1330997 -0.006247601
	vertex 0.003000004 -0.1177265 -0.005384109
endloop
endfacet
facet normal 1 2.980232E-08 0
outer loop
	vertex 0.003000004 -0.1177265 -0.005384109
	vertex 0.003 -0.1330997 -0.006247601
	vertex 0.003000004 -0.1171326 -0.006331494
endloop
endfacet
facet normal 1 2.980232E-08 0
outer loop
	vertex 0.003 -0.1330997 -0.006247601
	vertex 0.003 -0.1334832 -0.007270312
	vertex 0.003000004 -0.1171326 -0.006331494
endloop
endfacet
facet normal 1 2.980232E-08 0
outer loop
	vertex 0.003000004 -0.1171326 -0.006331494
	vertex 0.003 -0.1334832 -0.007270312
	vertex 0.003000004 -0.1167642 -0.007380554
endloop
endfacet
facet normal 1 2.980232E-08 0
outer loop
	vertex 0.003 -0.1334832 -0.007270312
	vertex 0.003 -0.133635 -0.008362654
	vertex 0.003000004 -0.1167642 -0.007380554
endloop
endfacet
facet normal 1 2.980232E-08 0
outer loop
	vertex 0.003 -0.132746 -0.1124397
	vertex 0.003000007 0.1021586 -0.1085776
	vertex 0.003 -0.1334101 -0.1095346
endloop
endfacet
facet normal 1 2.980232E-08 0
outer loop
	vertex 0.003000004 -0.1167642 -0.007380554
	vertex 0.003 -0.133635 -0.008362654
	vertex 0.003000004 -0.1166369 -0.00849962
endloop
endfacet
facet normal 1 2.980232E-08 0
outer loop
	vertex 0.003 -0.1334101 -0.1095346
	vertex 0.003000007 0.1021586 -0.1085776
	vertex 0.003 -0.133635 -0.1065459
endloop
endfacet
facet normal 1 2.980232E-08 0
outer loop
	vertex 0.003 -0.133635 -0.008362654
	vertex 0.003 -0.133635 -0.1065459
	vertex 0.003000004 -0.1166369 -0.00849962
endloop
endfacet
facet normal 1 2.980232E-08 0
outer loop
	vertex 0.003000007 0.1021586 -0.1085776
	vertex 0.003000007 0.1077466 -0.1041835
	vertex 0.003 -0.133635 -0.1065459
endloop
endfacet
facet normal 1 2.980232E-08 0
outer loop
	vertex 0.003000004 -0.1166369 -0.00849962
	vertex 0.003 -0.133635 -0.1065459
	vertex 0.003000004 -0.1166369 -0.02499962
endloop
endfacet
facet normal 1 2.980232E-08 0
outer loop
	vertex 0.003000007 0.1077466 -0.1041835
	vertex 0.003000007 0.1129174 -0.09925141
	vertex 0.003 -0.133635 -0.1065459
endloop
endfacet
facet normal 1 2.980232E-08 0
outer loop
	vertex 0.003000007 0.1129174 -0.09925141
	vertex 0.003000007 0.117585 -0.09386604
	vertex 0.003 -0.133635 -0.1065459
endloop
endfacet
facet normal 1 2.980232E-08 0
outer loop
	vertex 0.003000004 -0.1166369 -0.02499962
	vertex 0.003 -0.133635 -0.1065459
	vertex 0.003000004 -0.1165096 -0.02611868
endloop
endfacet
facet normal 1 2.980232E-08 0
outer loop
	vertex 0.003000007 0.117585 -0.09386604
	vertex 0.003000007 0.1217317 -0.08804201
	vertex 0.003 -0.133635 -0.1065459
endloop
endfacet
facet normal 1 2.980232E-08 0
outer loop
	vertex 0.003000004 -0.1165096 -0.02611868
	vertex 0.003 -0.133635 -0.1065459
	vertex 0.003000004 -0.1161412 -0.02716774
endloop
endfacet
facet normal 1 2.980232E-08 0
outer loop
	vertex 0.003000007 0.1217317 -0.08804201
	vertex 0.003000007 0.1252942 -0.08187147
	vertex 0.003 -0.133635 -0.1065459
endloop
endfacet
facet normal 1 2.980232E-08 0
outer loop
	vertex 0.003000004 -0.1161412 -0.02716774
	vertex 0.003 -0.133635 -0.1065459
	vertex 0.003000004 -0.1155473 -0.02811513
endloop
endfacet
facet normal 1 2.980232E-08 0
outer loop
	vertex 0.003000007 0.1252942 -0.08187147
	vertex 0.003000007 0.1282645 -0.07536829
	vertex 0.003 -0.133635 -0.1065459
endloop
endfacet
facet normal 1 2.980232E-08 0
outer loop
	vertex 0.003000004 -0.1155473 -0.02811513
	vertex 0.003 -0.133635 -0.1065459
	vertex 0.003000004 -0.1147524 -0.02890998
endloop
endfacet
facet normal 1 2.980232E-08 0
outer loop
	vertex 0.003000007 0.1282645 -0.07536829
	vertex 0.003000007 0.1305945 -0.06863333
	vertex 0.003 -0.133635 -0.1065459
endloop
endfacet
facet normal 1 2.980232E-08 0
outer loop
	vertex 0.003000004 -0.1147524 -0.02890998
	vertex 0.003 -0.133635 -0.1065459
	vertex 0.003000004 -0.113805 -0.02950388
endloop
endfacet
facet normal 1 2.980232E-08 0
outer loop
	vertex 0.003000007 0.1305945 -0.06863333
	vertex 0.003000007 0.1322803 -0.06168922
	vertex 0.003 -0.133635 -0.1065459
endloop
endfacet
facet normal 1 2.980232E-08 0
outer loop
	vertex 0.003000004 -0.113805 -0.02950388
	vertex 0.003 -0.133635 -0.1065459
	vertex 0.003000004 -0.112756 -0.02987232
endloop
endfacet
facet normal 1 2.980232E-08 0
outer loop
	vertex 0.003000007 0.1322803 -0.06168922
	vertex 0.003000007 0.1332917 -0.05465275
	vertex 0.003 -0.133635 -0.1065459
endloop
endfacet
facet normal 1 2.980232E-08 0
outer loop
	vertex 0.003000004 -0.112756 -0.02987232
	vertex 0.003 -0.133635 -0.1065459
	vertex 0.003000004 -0.1065178 -0.02987233
endloop
endfacet
facet normal 1 2.980232E-08 0
outer loop
	vertex 0.003 -0.133635 -0.1065459
	vertex 0.003000007 0.1332917 -0.05465275
	vertex 0.003000004 -0.1065178 -0.02987233
endloop
endfacet
facet normal 1 2.980232E-08 0
outer loop
	vertex 0.003000007 0.1332917 -0.05465275
	vertex 0.003000007 0.133635 0.04750001
	vertex 0.003000004 -0.1065178 -0.02987233
endloop
endfacet
facet normal 1 2.980232E-08 0
outer loop
	vertex 0.003000004 -0.1065178 -0.02987233
	vertex 0.003000007 0.133635 0.04750001
	vertex 0.003000004 -0.1054688 -0.02950389
endloop
endfacet
facet normal 1 2.980232E-08 0
outer loop
	vertex 0.003000004 -0.1054688 -0.02950389
	vertex 0.003000007 0.133635 0.04750001
	vertex 0.003000004 -0.1045214 -0.02890999
endloop
endfacet
facet normal 1 2.980232E-08 0
outer loop
	vertex 0.003000004 -0.1045214 -0.02890999
	vertex 0.003000007 0.133635 0.04750001
	vertex 0.003000004 -0.1037265 -0.02811514
endloop
endfacet
facet normal 1 2.980232E-08 0
outer loop
	vertex 0.003000004 -0.1037265 -0.02811514
	vertex 0.003000007 0.133635 0.04750001
	vertex 0.003000004 -0.1031326 -0.02716776
endloop
endfacet
facet normal 1 2.980232E-08 0
outer loop
	vertex 0.003000004 -0.1031326 -0.02716776
	vertex 0.003000007 0.133635 0.04750001
	vertex 0.003000004 -0.1031326 0.02716849
endloop
endfacet
facet normal 1 2.980232E-08 0
outer loop
	vertex 0.003000004 -0.1031326 0.02716849
	vertex 0.003000007 0.133635 0.04750001
	vertex 0.003000004 -0.1037265 0.02811588
endloop
endfacet
facet normal 1 2.980232E-08 0
outer loop
	vertex 0.003000004 -0.1037265 0.02811588
	vertex 0.003000007 0.133635 0.04750001
	vertex 0.003000004 -0.1045213 0.02891073
endloop
endfacet
facet normal 1 2.980232E-08 0
outer loop
	vertex 0.003000004 -0.1045213 0.02891073
	vertex 0.003000007 0.133635 0.04750001
	vertex 0.003000004 -0.1054687 0.02950463
endloop
endfacet
facet normal 1 2.980232E-08 0
outer loop
	vertex 0.003000004 -0.1054687 0.02950463
	vertex 0.003000007 0.133635 0.04750001
	vertex 0.003000004 -0.1065178 0.02987307
endloop
endfacet
facet normal 1 2.980232E-08 0
outer loop
	vertex 0.003000004 -0.1065178 0.02987307
	vertex 0.003000007 0.133635 0.04750001
	vertex 0.003000004 -0.1076368 0.03000037
endloop
endfacet
facet normal 1 2.980232E-08 0
outer loop
	vertex 0.003000004 -0.1076368 0.03000037
	vertex 0.003000007 0.133635 0.04750001
	vertex 0.003000004 -0.1116368 0.03000038
endloop
endfacet
facet normal 1 2.980232E-08 0
outer loop
	vertex 0.003000007 0.133635 0.04750001
	vertex 0.003000007 0.1332917 0.05465277
	vertex 0.003000004 -0.1116368 0.03000038
endloop
endfacet
facet normal 1 2.980232E-08 0
outer loop
	vertex 0.003000007 0.1332917 0.05465277
	vertex 0.003000007 0.1322803 0.06168924
	vertex 0.003000004 -0.1116368 0.03000038
endloop
endfacet
facet normal 1 2.980232E-08 0
outer loop
	vertex 0.003000004 -0.1116368 0.03000038
	vertex 0.003000007 0.1322803 0.06168924
	vertex 0.003000004 -0.1127559 0.02987308
endloop
endfacet
facet normal 1 2.980232E-08 0
outer loop
	vertex 0.003000007 -0.02719768 0.1699143
	vertex 0.003000009 -0.03431502 0.1692351
	vertex 0.003000007 -0.02007231 0.1699143
endloop
endfacet
facet normal 1 2.980232E-08 0
outer loop
	vertex 0.003000007 -0.02007231 0.1699143
	vertex 0.003000009 -0.03431502 0.1692351
	vertex 0.003000007 -0.01295498 0.1692351
endloop
endfacet
facet normal 1 2.980232E-08 0
outer loop
	vertex 0.003000009 -0.03431502 0.1692351
	vertex 0.003000008 -0.04131293 0.1678854
	vertex 0.003000007 -0.01295498 0.1692351
endloop
endfacet
facet normal 1 2.980232E-08 0
outer loop
	vertex 0.003000007 -0.01295498 0.1692351
	vertex 0.003000008 -0.04131293 0.1678854
	vertex 0.003000007 -0.005957071 0.1678854
endloop
endfacet
facet normal 1 2.980232E-08 0
outer loop
	vertex 0.003000008 -0.04131293 0.1678854
	vertex 0.003000007 -0.04816986 0.1658733
	vertex 0.003000007 -0.005957071 0.1678854
endloop
endfacet
facet normal 1 2.980232E-08 0
outer loop
	vertex 0.003000007 -0.005957071 0.1678854
	vertex 0.003000007 -0.04816986 0.1658733
	vertex 0.003000007 0.0008998588 0.1658733
endloop
endfacet
facet normal 1 2.980232E-08 0
outer loop
	vertex 0.003000007 -0.04816986 0.1658733
	vertex 0.003000007 -0.05476952 0.1632307
	vertex 0.003000007 0.0008998588 0.1658733
endloop
endfacet
facet normal 1 2.980232E-08 0
outer loop
	vertex 0.003000007 0.0008998588 0.1658733
	vertex 0.003000007 -0.05476952 0.1632307
	vertex 0.003000007 0.00749952 0.1632307
endloop
endfacet
facet normal 1 2.980232E-08 0
outer loop
	vertex 0.003000007 -0.05476952 0.1632307
	vertex 0.003000007 -0.06113582 0.1599515
	vertex 0.003000007 0.00749952 0.1632307
endloop
endfacet
facet normal 1 2.980232E-08 0
outer loop
	vertex 0.003000007 0.00749952 0.1632307
	vertex 0.003000007 -0.06113582 0.1599515
	vertex 0.003000007 0.01386583 0.1599515
endloop
endfacet
facet normal 1 2.980232E-08 0
outer loop
	vertex 0.003000007 -0.06113582 0.1599515
	vertex 0.003 -0.126111 0.1221772
	vertex 0.003000007 0.01386583 0.1599515
endloop
endfacet
facet normal 1 2.980232E-08 0
outer loop
	vertex 0.003 -0.126111 0.1221772
	vertex 0.003 -0.1282948 0.1201495
	vertex 0.003000007 0.01386583 0.1599515
endloop
endfacet
facet normal 1 2.980232E-08 0
outer loop
	vertex 0.003 -0.1282948 0.1201495
	vertex 0.003 -0.1301582 0.1178144
	vertex 0.003000007 0.01386583 0.1599515
endloop
endfacet
facet normal 1 2.980232E-08 0
outer loop
	vertex 0.003000007 0.1322803 0.06168924
	vertex 0.003000007 0.1305945 0.06863334
	vertex 0.003000004 -0.1127559 0.02987308
endloop
endfacet
facet normal 1 2.980232E-08 0
outer loop
	vertex 0.003000007 0.1305945 0.06863334
	vertex 0.003000007 0.1282645 0.07536831
	vertex 0.003000004 -0.1127559 0.02987308
endloop
endfacet
facet normal 1 2.980232E-08 0
outer loop
	vertex 0.003000007 0.1282645 0.07536831
	vertex 0.003000007 0.1252942 0.08187148
	vertex 0.003000004 -0.1127559 0.02987308
endloop
endfacet
facet normal 1 2.980232E-08 0
outer loop
	vertex 0.003 -0.1301582 0.1178144
	vertex 0.003 -0.1316554 0.1152211
	vertex 0.003000007 0.01386583 0.1599515
endloop
endfacet
facet normal 1 2.980232E-08 0
outer loop
	vertex 0.003000007 0.1252942 0.08187148
	vertex 0.003000007 0.1217317 0.08804203
	vertex 0.003000004 -0.1127559 0.02987308
endloop
endfacet
facet normal 1 2.980232E-08 0
outer loop
	vertex 0.003000007 0.01386583 0.1599515
	vertex 0.003 -0.1316554 0.1152211
	vertex 0.003000007 0.09613581 0.1124515
endloop
endfacet
facet normal 1 2.980232E-08 0
outer loop
	vertex 0.003000007 0.1217317 0.08804203
	vertex 0.003000007 0.117585 0.09386605
	vertex 0.003000004 -0.1127559 0.02987308
endloop
endfacet
facet normal 1 2.980232E-08 0
outer loop
	vertex 0.003 -0.1316554 0.1152211
	vertex 0.003 -0.132746 0.1124397
	vertex 0.003000007 0.09613581 0.1124515
endloop
endfacet
facet normal 1 2.980232E-08 0
outer loop
	vertex 0.003 -0.132746 0.1124397
	vertex 0.003 -0.1334101 0.1095347
	vertex 0.003000007 0.09613581 0.1124515
endloop
endfacet
facet normal 1 2.980232E-08 0
outer loop
	vertex 0.003000007 0.09613581 0.1124515
	vertex 0.003 -0.1334101 0.1095347
	vertex 0.003000007 0.1021586 0.1085777
endloop
endfacet
facet normal 1 2.980232E-08 0
outer loop
	vertex 0.003000007 0.117585 0.09386605
	vertex 0.003000007 0.1129174 0.09925143
	vertex 0.003000004 -0.1127559 0.02987308
endloop
endfacet
facet normal 1 2.980232E-08 0
outer loop
	vertex 0.003 -0.1334101 0.1095347
	vertex 0.003 -0.133635 0.106546
	vertex 0.003000007 0.1021586 0.1085777
endloop
endfacet
facet normal 1 2.980232E-08 0
outer loop
	vertex 0.003000007 0.1021586 0.1085777
	vertex 0.003 -0.133635 0.106546
	vertex 0.003000007 0.1077466 0.1041836
endloop
endfacet
facet normal 1 2.980232E-08 0
outer loop
	vertex 0.003000007 0.1129174 0.09925143
	vertex 0.003000007 0.1077466 0.1041836
	vertex 0.003000004 -0.1127559 0.02987308
endloop
endfacet
facet normal 1 2.980232E-08 0
outer loop
	vertex 0.003000007 0.1077466 0.1041836
	vertex 0.003 -0.133635 0.106546
	vertex 0.003000004 -0.1127559 0.02987308
endloop
endfacet
facet normal 1 2.980232E-08 0
outer loop
	vertex 0.003000004 -0.1127559 0.02987308
	vertex 0.003 -0.133635 0.106546
	vertex 0.003000004 -0.113805 0.02950464
endloop
endfacet
facet normal 1 2.980232E-08 0
outer loop
	vertex 0.003000004 -0.113805 0.02950464
	vertex 0.003 -0.133635 0.106546
	vertex 0.003000004 -0.1147523 0.02891074
endloop
endfacet
facet normal 1 2.980232E-08 0
outer loop
	vertex 0.003000004 -0.1147523 0.02891074
	vertex 0.003 -0.133635 0.106546
	vertex 0.003000004 -0.1155472 0.02811589
endloop
endfacet
facet normal 1 2.980232E-08 0
outer loop
	vertex 0.003 -0.133635 0.106546
	vertex 0.003 -0.133635 0.008364192
	vertex 0.003000004 -0.1155472 0.02811589
endloop
endfacet
facet normal 1 2.980232E-08 0
outer loop
	vertex 0.003000004 -0.1155472 0.02811589
	vertex 0.003 -0.133635 0.008364192
	vertex 0.003000004 -0.1161411 0.02716851
endloop
endfacet
facet normal 1 2.980232E-08 0
outer loop
	vertex 0.003000004 -0.1161411 0.02716851
	vertex 0.003 -0.133635 0.008364192
	vertex 0.003000004 -0.1165095 0.02611945
endloop
endfacet
facet normal 1 2.980232E-08 0
outer loop
	vertex 0.003000004 -0.1165095 0.02611945
	vertex 0.003 -0.133635 0.008364192
	vertex 0.003000004 -0.1167642 0.007381316
endloop
endfacet
facet normal 1 2.980232E-08 0
outer loop
	vertex 0.003 -0.133635 0.008364192
	vertex 0.003 -0.1334833 0.007271707
	vertex 0.003000004 -0.1167642 0.007381316
endloop
endfacet
facet normal 1 2.980232E-08 0
outer loop
	vertex 0.003000004 -0.1167642 0.007381316
	vertex 0.003 -0.1334833 0.007271707
	vertex 0.003000004 -0.1171326 0.006332256
endloop
endfacet
facet normal 1 2.980232E-08 0
outer loop
	vertex 0.003 -0.1334833 0.007271707
	vertex 0.003 -0.1330999 0.006248852
	vertex 0.003000004 -0.1171326 0.006332256
endloop
endfacet
facet normal 1 2.980232E-08 0
outer loop
	vertex 0.003000004 -0.1171326 0.006332256
	vertex 0.003 -0.1330999 0.006248852
	vertex 0.003000004 -0.1177265 0.005384873
endloop
endfacet
facet normal 1 2.980232E-08 0
outer loop
	vertex 0.003 -0.1330999 0.006248852
	vertex 0.003 -0.1325002 0.005326759
	vertex 0.003000004 -0.1177265 0.005384873
endloop
endfacet
facet normal 1 2.980232E-08 0
outer loop
	vertex 0.003000004 -0.1177265 0.005384873
	vertex 0.003 -0.1325002 0.005326759
	vertex 0.003000004 -0.1185213 0.004590025
endloop
endfacet
facet normal 1 2.980232E-08 0
outer loop
	vertex 0.003 -0.1325002 0.005326759
	vertex 0.003 -0.1317085 0.004555472
	vertex 0.003000004 -0.1185213 0.004590025
endloop
endfacet
facet normal 1 2.980232E-08 0
outer loop
	vertex 0.003000004 -0.1185213 0.004590025
	vertex 0.003 -0.1317085 0.004555472
	vertex 0.003 -0.1194687 0.003996123
endloop
endfacet
facet normal 1 2.980232E-08 0
outer loop
	vertex 0.003 -0.1317085 0.004555472
	vertex 0.003 -0.1307714 0.003980054
	vertex 0.003 -0.1194687 0.003996123
endloop
endfacet
facet normal -2.314647E-05 -0.999168 -0.02353691
outer loop
	vertex -0.001341654 -0.133635 0.00834279
	vertex 0.002078542 -0.133635 0.008361469
	vertex 0.001165287 -0.133635 0.008358821
endloop
endfacet
facet normal 0 -1 -2.980232E-08
outer loop
	vertex 0.002078542 -0.133635 0.008361469
	vertex 0.0002733335 -0.133635 0.00850032
	vertex 0.001165287 -0.133635 0.008358821
endloop
endfacet
facet normal -2.314647E-05 -0.999168 -0.02353691
outer loop
	vertex 0.0002733335 -0.133635 0.00850032
	vertex -0.001341654 -0.133635 0.00834279
	vertex 0.001165287 -0.133635 0.008358821
endloop
endfacet
facet normal 8.974472E-05 -0.9983804 -0.0464376
outer loop
	vertex -0.001341654 -0.133635 0.00834279
	vertex 0.003 -0.133635 0.008364192
	vertex 0.002078542 -0.133635 0.008361469
endloop
endfacet
facet normal 0.0001128912 -0.9992124 -0.02290072
outer loop
	vertex 0.003 -0.133635 0.008364192
	vertex 0.0002733335 -0.133635 0.00850032
	vertex 0.002078542 -0.133635 0.008361469
endloop
endfacet
facet normal 3.737211E-05 -0.8120045 -0.5745264
outer loop
	vertex -0.002999997 -0.1330952 0.006238421
	vertex -0.002999997 -0.1324948 0.005319462
	vertex 0.003 -0.1325002 0.005326759
endloop
endfacet
facet normal 0.0001516541 -0.8523373 -0.5127668
outer loop
	vertex -0.002999997 -0.1330952 0.006238421
	vertex 0.003 -0.1325002 0.005326759
	vertex 0.003 -0.1330999 0.006248852
endloop
endfacet
facet normal 7.629395E-06 -0.9176099 -0.3840669
outer loop
	vertex -0.002999997 -0.1334804 0.00725805
	vertex -0.002999997 -0.1330952 0.006238421
	vertex 0.003 -0.1330999 0.006248852
endloop
endfacet
facet normal 0.0001838009 -0.9435183 -0.3150651
outer loop
	vertex -0.002999997 -0.1334804 0.00725805
	vertex 0.003 -0.1330999 0.006248852
	vertex 0.003 -0.1334833 0.007271707
endloop
endfacet
facet normal 6.37571E-05 -0.9784768 -0.1883377
outer loop
	vertex -0.002999997 -0.1334804 0.00725805
	vertex 0.003 -0.1334833 0.007271707
	vertex -0.001341654 -0.133635 0.00834279
endloop
endfacet
facet normal 0.0002384782 -0.9881492 -0.1283892
outer loop
	vertex 0.003 -0.1334833 0.007271707
	vertex 0.003 -0.133635 0.008364192
	vertex -0.001341654 -0.133635 0.00834279
endloop
endfacet
facet normal -0.000148952 -0.9878829 -0.1298241
outer loop
	vertex -0.002999997 -0.133635 0.008347318
	vertex -0.002999997 -0.1334804 0.00725805
	vertex -0.001341654 -0.133635 0.00834279
endloop
endfacet
facet normal -8.712212E-05 -0.9983429 -0.04697491
outer loop
	vertex 0.0002733335 -0.133635 0.00850032
	vertex -0.002999997 -0.133635 0.008347318
	vertex -0.001341654 -0.133635 0.00834279
endloop
endfacet
facet normal 0.0001128912 -0.9989773 -0.01038363
outer loop
	vertex 0.003 -0.133635 0.008364192
	vertex 0.003 -0.133635 0.106546
	vertex 0.0002733335 -0.133635 0.00850032
endloop
endfacet
facet normal -6.397565E-05 -0.9989399 -0.01092094
outer loop
	vertex 0.003 -0.133635 0.106546
	vertex -0.002999997 -0.133635 0.008347318
	vertex 0.0002733335 -0.133635 0.00850032
endloop
endfacet
facet normal -6.397565E-05 -0.9987048 0.001596153
outer loop
	vertex -0.002999997 -0.133635 0.106546
	vertex -0.002999997 -0.133635 0.008347318
	vertex 0.003 -0.133635 0.106546
endloop
endfacet
facet normal 0 -0.9957904 0.07482348
outer loop
	vertex -0.002999997 -0.133635 0.106546
	vertex 0.003 -0.133635 0.106546
	vertex 0.003 -0.1334101 0.1095347
endloop
endfacet
facet normal 0 -0.992286 0.1120957
outer loop
	vertex -0.002999997 -0.1334101 0.1095347
	vertex -0.002999997 -0.133635 0.106546
	vertex 0.003 -0.1334101 0.1095347
endloop
endfacet
facet normal 0 -0.977711 0.1978339
outer loop
	vertex -0.002999997 -0.1334101 0.1095347
	vertex 0.003 -0.1334101 0.1095347
	vertex 0.003 -0.132746 0.1124397
endloop
endfacet
facet normal 0 -0.9666402 0.2462998
outer loop
	vertex -0.002999997 -0.132746 0.1124397
	vertex -0.002999997 -0.1334101 0.1095347
	vertex 0.003 -0.132746 0.1124397
endloop
endfacet
facet normal 0 -0.9373927 0.3410899
outer loop
	vertex -0.002999997 -0.132746 0.1124397
	vertex 0.003 -0.132746 0.1124397
	vertex 0.003 -0.1316554 0.1152211
endloop
endfacet
facet normal 0 -0.9192158 0.387414
outer loop
	vertex -0.002999997 -0.1316554 0.1152211
	vertex -0.002999997 -0.132746 0.1124397
	vertex 0.003 -0.1316554 0.1152211
endloop
endfacet
facet normal 0 -0.8760777 0.476973
outer loop
	vertex -0.002999997 -0.1316554 0.1152211
	vertex 0.003 -0.1316554 0.1152211
	vertex 0.003 -0.1301582 0.1178144
endloop
endfacet
facet normal 0 -0.8511165 0.5202078
outer loop
	vertex -0.002999997 -0.1301582 0.1178144
	vertex -0.002999997 -0.1316554 0.1152211
	vertex 0.003 -0.1301582 0.1178144
endloop
endfacet
facet normal 0 -0.7951264 0.6023466
outer loop
	vertex -0.002999997 -0.1301582 0.1178144
	vertex 0.003 -0.1301582 0.1178144
	vertex 0.003 -0.1282948 0.1201495
endloop
endfacet
facet normal 0 -0.7640975 0.6412506
outer loop
	vertex -0.002999997 -0.1282948 0.1201495
	vertex -0.002999997 -0.1301582 0.1178144
	vertex 0.003 -0.1282948 0.1201495
endloop
endfacet
facet normal 0 -0.6871024 0.721303
outer loop
	vertex -0.002999997 -0.1282948 0.1201495
	vertex 0.003 -0.1282948 0.1201495
	vertex 0.003 -0.126111 0.1221772
endloop
endfacet
facet normal -0.0004720489 -0.641106 0.7624734
outer loop
	vertex -0.002999997 -0.126111 0.1221772
	vertex -0.002999997 -0.1282948 0.1201495
	vertex 0.003 -0.126111 0.1221772
endloop
endfacet
facet normal -0.0143804 -0.5598984 0.8261001
outer loop
	vertex -0.002999997 -0.126111 0.1221772
	vertex 0.003 -0.126111 0.1221772
	vertex 0.003000007 -0.06113582 0.1599515
endloop
endfacet
facet normal -0.01849556 -0.5030485 0.859996
outer loop
	vertex -0.002999993 -0.05476952 0.1632307
	vertex -0.002999997 -0.126111 0.1221772
	vertex 0.003000007 -0.06113582 0.1599515
endloop
endfacet
facet normal -0.0180235 -0.4431162 0.8953382
outer loop
	vertex -0.002999993 -0.05476952 0.1632307
	vertex 0.003000007 -0.06113582 0.1599515
	vertex 0.003000007 -0.05476952 0.1632307
endloop
endfacet
facet normal -0.004115144 -0.3889736 0.9199993
outer loop
	vertex -0.002999993 -0.05476952 0.1632307
	vertex 0.003000007 -0.05476952 0.1632307
	vertex 0.003000007 -0.04816986 0.1658733
endloop
endfacet
facet normal -0.004115144 -0.3595521 0.9317745
outer loop
	vertex -0.002999993 -0.04816986 0.1658733
	vertex -0.002999993 -0.05476952 0.1632307
	vertex 0.003000007 -0.04816986 0.1658733
endloop
endfacet
facet normal 2.980232E-08 -0.2965938 0.9539503
outer loop
	vertex -0.002999993 -0.04816986 0.1658733
	vertex 0.003000007 -0.04816986 0.1658733
	vertex 0.003000008 -0.04131293 0.1678854
endloop
endfacet
facet normal 2.980232E-08 -0.2661697 0.9628826
outer loop
	vertex -0.002999992 -0.04131293 0.1678854
	vertex -0.002999993 -0.04816986 0.1658733
	vertex 0.003000008 -0.04131293 0.1678854
endloop
endfacet
facet normal 2.980232E-08 -0.2046141 0.9778153
outer loop
	vertex -0.002999992 -0.04131293 0.1678854
	vertex 0.003000008 -0.04131293 0.1678854
	vertex 0.003000009 -0.03431502 0.1692351
endloop
endfacet
facet normal 2.980232E-08 -0.1734827 0.9838157
outer loop
	vertex -0.002999992 -0.03431502 0.1692351
	vertex -0.002999992 -0.04131293 0.1678854
	vertex 0.003000009 -0.03431502 0.1692351
endloop
endfacet
facet normal 2.980232E-08 -0.1107516 0.9928337
outer loop
	vertex -0.002999992 -0.03431502 0.1692351
	vertex 0.003000009 -0.03431502 0.1692351
	vertex 0.003000007 -0.02719768 0.1699143
endloop
endfacet
facet normal 2.980232E-08 -0.07915185 0.9958512
outer loop
	vertex -0.002999994 -0.02719768 0.1699143
	vertex -0.002999992 -0.03431502 0.1692351
	vertex 0.003000007 -0.02719768 0.1699143
endloop
endfacet
facet normal 2.980232E-08 -0.01585071 0.9988688
outer loop
	vertex -0.002999994 -0.02719768 0.1699143
	vertex 0.003000007 -0.02719768 0.1699143
	vertex 0.003000007 -0.02007231 0.1699143
endloop
endfacet
facet normal 2.980232E-08 0.01585071 0.9988688
outer loop
	vertex -0.002999994 -0.02007231 0.1699143
	vertex -0.002999994 -0.02719768 0.1699143
	vertex 0.003000007 -0.02007231 0.1699143
endloop
endfacet
facet normal 2.980232E-08 0.07915185 0.9958512
outer loop
	vertex -0.002999994 -0.02007231 0.1699143
	vertex 0.003000007 -0.02007231 0.1699143
	vertex 0.003000007 -0.01295498 0.1692351
endloop
endfacet
facet normal 2.980232E-08 0.1107516 0.9928337
outer loop
	vertex -0.002999994 -0.01295498 0.1692351
	vertex -0.002999994 -0.02007231 0.1699143
	vertex 0.003000007 -0.01295498 0.1692351
endloop
endfacet
facet normal 2.980232E-08 0.1734827 0.9838157
outer loop
	vertex -0.002999994 -0.01295498 0.1692351
	vertex 0.003000007 -0.01295498 0.1692351
	vertex 0.003000007 -0.005957071 0.1678854
endloop
endfacet
facet normal 2.980232E-08 0.2046141 0.9778153
outer loop
	vertex -0.002999994 -0.005957071 0.1678854
	vertex -0.002999994 -0.01295498 0.1692351
	vertex 0.003000007 -0.005957071 0.1678854
endloop
endfacet
facet normal 2.980232E-08 0.2661696 0.9628826
outer loop
	vertex -0.002999994 -0.005957071 0.1678854
	vertex 0.003000007 -0.005957071 0.1678854
	vertex 0.003000007 0.0008998588 0.1658733
endloop
endfacet
facet normal 2.980232E-08 0.2965938 0.9539504
outer loop
	vertex -0.002999997 0.0008998588 0.1658733
	vertex -0.002999994 -0.005957071 0.1678854
	vertex 0.003000007 0.0008998588 0.1658733
endloop
endfacet
facet normal 2.980232E-08 0.3564395 0.9332429
outer loop
	vertex -0.002999997 0.0008998588 0.1658733
	vertex 0.003000007 0.0008998588 0.1658733
	vertex 0.003000007 0.00749952 0.1632307
endloop
endfacet
facet normal -0.003945033 0.3888457 0.9200616
outer loop
	vertex -0.00299999 0.00749952 0.1632307
	vertex -0.002999997 0.0008998588 0.1658733
	vertex 0.003000007 0.00749952 0.1632307
endloop
endfacet
facet normal -0.01737399 0.442551 0.8956683
outer loop
	vertex -0.00299999 0.00749952 0.1632307
	vertex 0.003000007 0.00749952 0.1632307
	vertex 0.003000007 0.01386583 0.1599515
endloop
endfacet
facet normal -0.01773022 0.4776477 0.8770431
outer loop
	vertex -0.00299999 0.09613581 0.1124515
	vertex -0.00299999 0.00749952 0.1632307
	vertex 0.003000007 0.01386583 0.1599515
endloop
endfacet
facet normal -0.01378516 0.509779 0.8598124
outer loop
	vertex -0.00299999 0.09613581 0.1124515
	vertex 0.003000007 0.01386583 0.1599515
	vertex 0.003000007 0.09613581 0.1124515
endloop
endfacet
facet normal -0.0003562172 0.5404654 0.8406926
outer loop
	vertex -0.00299999 0.09613581 0.1124515
	vertex 0.003000007 0.09613581 0.1124515
	vertex 0.003000007 0.1021586 0.1085777
endloop
endfacet
facet normal -0.0003562172 0.5603197 0.8275915
outer loop
	vertex -0.00299999 0.1021586 0.1085777
	vertex -0.00299999 0.09613581 0.1124515
	vertex 0.003000007 0.1021586 0.1085777
endloop
endfacet
facet normal 0 0.6051006 0.7948867
outer loop
	vertex -0.00299999 0.1021586 0.1085777
	vertex 0.003000007 0.1021586 0.1085777
	vertex 0.003000007 0.1077466 0.1041836
endloop
endfacet
facet normal 0 0.6300079 0.7752945
outer loop
	vertex -0.00299999 0.1077466 0.1041836
	vertex -0.00299999 0.1021586 0.1085777
	vertex 0.003000007 0.1077466 0.1041836
endloop
endfacet
facet normal 0 0.6778616 0.7338209
outer loop
	vertex -0.00299999 0.1077466 0.1041836
	vertex 0.003000007 0.1077466 0.1041836
	vertex 0.003000007 0.1129174 0.09925143
endloop
endfacet
facet normal 0 0.7008079 0.7119393
outer loop
	vertex -0.003000005 0.1129174 0.09925143
	vertex -0.00299999 0.1077466 0.1041836
	vertex 0.003000007 0.1129174 0.09925143
endloop
endfacet
facet normal 0 0.7445151 0.6660984
outer loop
	vertex -0.003000005 0.1129174 0.09925143
	vertex 0.003000007 0.1129174 0.09925143
	vertex 0.003000007 0.117585 0.09386605
endloop
endfacet
facet normal 0 0.765276 0.642139
outer loop
	vertex -0.00299999 0.117585 0.09386606
	vertex -0.003000005 0.1129174 0.09925143
	vertex 0.003000007 0.117585 0.09386605
endloop
endfacet
facet normal 0 0.8044491 0.592323
outer loop
	vertex -0.00299999 0.117585 0.09386606
	vertex 0.003000007 0.117585 0.09386605
	vertex 0.003000007 0.1217317 0.08804203
endloop
endfacet
facet normal 0 0.8228613 0.5664664
outer loop
	vertex -0.00299999 0.1217317 0.08804204
	vertex -0.00299999 0.117585 0.09386606
	vertex 0.003000007 0.1217317 0.08804203
endloop
endfacet
facet normal 0 0.8571237 0.5131559
outer loop
	vertex -0.00299999 0.1217317 0.08804204
	vertex 0.003000007 0.1217317 0.08804203
	vertex 0.003000007 0.1252942 0.08187148
endloop
endfacet
facet normal 0 0.872974 0.4857021
outer loop
	vertex -0.00299999 0.1252942 0.08187149
	vertex -0.00299999 0.1217317 0.08804204
	vertex 0.003000007 0.1252942 0.08187148
endloop
endfacet
facet normal 0 0.9020103 0.4293743
outer loop
	vertex -0.00299999 0.1252942 0.08187149
	vertex 0.003000007 0.1252942 0.08187148
	vertex 0.003000007 0.1282645 0.07536831
endloop
endfacet
facet normal 0 0.9151962 0.4005005
outer loop
	vertex -0.003000005 0.1282645 0.07536831
	vertex -0.00299999 0.1252942 0.08187149
	vertex 0.003000007 0.1282645 0.07536831
endloop
endfacet
facet normal 0 0.938751 0.3416672
outer loop
	vertex -0.003000005 0.1282645 0.07536831
	vertex 0.003000007 0.1282645 0.07536831
	vertex 0.003000007 0.1305945 0.06863334
endloop
endfacet
facet normal 0 0.9491196 0.3117078
outer loop
	vertex -0.003000005 0.1305945 0.06863335
	vertex -0.003000005 0.1282645 0.07536831
	vertex 0.003000007 0.1305945 0.06863334
endloop
endfacet
facet normal 0 0.9669647 0.2509356
outer loop
	vertex -0.003000005 0.1305945 0.06863335
	vertex 0.003000007 0.1305945 0.06863334
	vertex 0.003000007 0.1322803 0.06168924
endloop
endfacet
facet normal 0 0.974441 0.2201227
outer loop
	vertex -0.003000005 0.1322803 0.06168924
	vertex -0.003000005 0.1305945 0.06863335
	vertex 0.003000007 0.1322803 0.06168924
endloop
endfacet
facet normal 0 0.9864306 0.1579432
outer loop
	vertex -0.003000005 0.1322803 0.06168924
	vertex 0.003000007 0.1322803 0.06168924
	vertex 0.003000007 0.1332917 0.05465277
endloop
endfacet
facet normal -0.003944735 0.9912185 0.1232888
outer loop
	vertex -0.003000005 0.1332917 0.05465277
	vertex -0.003000005 0.1322803 0.06168924
	vertex 0.003000007 0.1332917 0.05465277
endloop
endfacet
facet normal -0.01701631 0.9969609 0.06456146
outer loop
	vertex -0.003000005 0.1332917 0.05465277
	vertex 0.003000007 0.1332917 0.05465277
	vertex 0.003000007 0.133635 0.04750001
endloop
endfacet
facet normal -0.003944755 0.99819 0.02844889
outer loop
	vertex -0.003000005 0.133635 -0.04749998
	vertex -0.003000005 0.1332917 0.05465277
	vertex 0.003000007 0.133635 0.04750001
endloop
endfacet
facet normal 0.003944695 0.99819 -0.02844884
outer loop
	vertex -0.003000005 0.133635 -0.04749998
	vertex 0.003000007 0.133635 0.04750001
	vertex 0.003000007 0.1332917 -0.05465275
endloop
endfacet
facet normal 0.01701627 0.9969609 -0.0645614
outer loop
	vertex -0.003000005 0.1332917 -0.05465275
	vertex -0.003000005 0.133635 -0.04749998
	vertex 0.003000007 0.1332917 -0.05465275
endloop
endfacet
facet normal 0.003944715 0.9912185 -0.1232888
outer loop
	vertex -0.003000005 0.1332917 -0.05465275
	vertex 0.003000007 0.1332917 -0.05465275
	vertex 0.003000007 0.1322803 -0.06168922
endloop
endfacet
facet normal 0 0.9864306 -0.1579432
outer loop
	vertex -0.003000005 0.1322803 -0.06168922
	vertex -0.003000005 0.1332917 -0.05465275
	vertex 0.003000007 0.1322803 -0.06168922
endloop
endfacet
facet normal 0 0.974441 -0.2201227
outer loop
	vertex -0.003000005 0.1322803 -0.06168922
	vertex 0.003000007 0.1322803 -0.06168922
	vertex 0.003000007 0.1305945 -0.06863333
endloop
endfacet
facet normal 0 0.9669647 -0.2509355
outer loop
	vertex -0.003000005 0.1305945 -0.06863333
	vertex -0.003000005 0.1322803 -0.06168922
	vertex 0.003000007 0.1305945 -0.06863333
endloop
endfacet
facet normal 0 0.9491196 -0.3117077
outer loop
	vertex -0.003000005 0.1305945 -0.06863333
	vertex 0.003000007 0.1305945 -0.06863333
	vertex 0.003000007 0.1282645 -0.07536829
endloop
endfacet
facet normal 0 0.938751 -0.3416671
outer loop
	vertex -0.003000005 0.1282645 -0.07536829
	vertex -0.003000005 0.1305945 -0.06863333
	vertex 0.003000007 0.1282645 -0.07536829
endloop
endfacet
facet normal 0 0.9151963 -0.4005004
outer loop
	vertex -0.003000005 0.1282645 -0.07536829
	vertex 0.003000007 0.1282645 -0.07536829
	vertex 0.003000007 0.1252942 -0.08187147
endloop
endfacet
facet normal 0 0.9020103 -0.4293743
outer loop
	vertex -0.00299999 0.1252942 -0.08187146
	vertex -0.003000005 0.1282645 -0.07536829
	vertex 0.003000007 0.1252942 -0.08187147
endloop
endfacet
facet normal 0 0.872974 -0.485702
outer loop
	vertex -0.00299999 0.1252942 -0.08187146
	vertex 0.003000007 0.1252942 -0.08187147
	vertex 0.003000007 0.1217317 -0.08804201
endloop
endfacet
facet normal 0 0.8571237 -0.5131559
outer loop
	vertex -0.00299999 0.1217317 -0.08804201
	vertex -0.00299999 0.1252942 -0.08187146
	vertex 0.003000007 0.1217317 -0.08804201
endloop
endfacet
facet normal 0 0.8228613 -0.5664664
outer loop
	vertex -0.00299999 0.1217317 -0.08804201
	vertex 0.003000007 0.1217317 -0.08804201
	vertex 0.003000007 0.117585 -0.09386604
endloop
endfacet
facet normal 0 0.8044491 -0.592323
outer loop
	vertex -0.00299999 0.117585 -0.09386604
	vertex -0.00299999 0.1217317 -0.08804201
	vertex 0.003000007 0.117585 -0.09386604
endloop
endfacet
facet normal 0 0.765276 -0.642139
outer loop
	vertex -0.00299999 0.117585 -0.09386604
	vertex 0.003000007 0.117585 -0.09386604
	vertex 0.003000007 0.1129174 -0.09925141
endloop
endfacet
facet normal 0 0.7445151 -0.6660984
outer loop
	vertex -0.003000005 0.1129174 -0.0992514
	vertex -0.00299999 0.117585 -0.09386604
	vertex 0.003000007 0.1129174 -0.09925141
endloop
endfacet
facet normal 0 0.7008079 -0.7119393
outer loop
	vertex -0.003000005 0.1129174 -0.0992514
	vertex 0.003000007 0.1129174 -0.09925141
	vertex 0.003000007 0.1077466 -0.1041835
endloop
endfacet
facet normal 0 0.6778616 -0.7338208
outer loop
	vertex -0.00299999 0.1077466 -0.1041835
	vertex -0.003000005 0.1129174 -0.0992514
	vertex 0.003000007 0.1077466 -0.1041835
endloop
endfacet
facet normal 0 0.6300079 -0.7752945
outer loop
	vertex -0.00299999 0.1077466 -0.1041835
	vertex 0.003000007 0.1077466 -0.1041835
	vertex 0.003000007 0.1021586 -0.1085776
endloop
endfacet
facet normal 0 0.6051006 -0.7948867
outer loop
	vertex -0.00299999 0.1021586 -0.1085776
	vertex -0.00299999 0.1077466 -0.1041835
	vertex 0.003000007 0.1021586 -0.1085776
endloop
endfacet
facet normal 0 0.5598605 -0.8278711
outer loop
	vertex -0.00299999 0.1021586 -0.1085776
	vertex 0.003000007 0.1021586 -0.1085776
	vertex 0.003000007 0.09613581 -0.1124514
endloop
endfacet
facet normal 0.0003562967 0.5395456 -0.8412524
outer loop
	vertex -0.00299999 0.09613581 -0.1124514
	vertex -0.00299999 0.1021586 -0.1085776
	vertex 0.003000007 0.09613581 -0.1124514
endloop
endfacet
facet normal 0.004241983 0.4877665 -0.871488
outer loop
	vertex -0.00299999 0.09613581 -0.1124514
	vertex 0.003000007 0.09613581 -0.1124514
	vertex 0.002999993 0.00749952 -0.1632307
endloop
endfacet
facet normal 0.01906204 0.4781226 -0.8767493
outer loop
	vertex -0.003000005 0.01386583 -0.1599514
	vertex -0.00299999 0.09613581 -0.1124514
	vertex 0.002999993 0.00749952 -0.1632307
endloop
endfacet
facet normal 0.01870573 0.4434673 -0.895106
outer loop
	vertex -0.003000005 0.00749952 -0.1632307
	vertex -0.003000005 0.01386583 -0.1599514
	vertex 0.002999993 0.00749952 -0.1632307
endloop
endfacet
facet normal 0.003885667 0.3890522 -0.9199655
outer loop
	vertex -0.003000005 0.00749952 -0.1632307
	vertex 0.002999993 0.00749952 -0.1632307
	vertex 0.003 0.0008998588 -0.1658732
endloop
endfacet
facet normal -2.980232E-08 0.3564395 -0.9332429
outer loop
	vertex -0.003000005 0.0008998588 -0.1658732
	vertex -0.003000005 0.00749952 -0.1632307
	vertex 0.003 0.0008998588 -0.1658732
endloop
endfacet
facet normal -2.980232E-08 0.2965938 -0.9539504
outer loop
	vertex -0.003000005 0.0008998588 -0.1658732
	vertex 0.003 0.0008998588 -0.1658732
	vertex 0.003 -0.005957071 -0.1678854
endloop
endfacet
facet normal -2.980232E-08 0.2661696 -0.9628826
outer loop
	vertex -0.003000001 -0.005957071 -0.1678854
	vertex -0.003000005 0.0008998588 -0.1658732
	vertex 0.003 -0.005957071 -0.1678854
endloop
endfacet
facet normal -2.980232E-08 0.2046141 -0.9778153
outer loop
	vertex -0.003000001 -0.005957071 -0.1678854
	vertex 0.003 -0.005957071 -0.1678854
	vertex 0.003 -0.01295498 -0.1692351
endloop
endfacet
facet normal -2.980232E-08 0.1734827 -0.9838157
outer loop
	vertex -0.003000001 -0.01295498 -0.1692351
	vertex -0.003000001 -0.005957071 -0.1678854
	vertex 0.003 -0.01295498 -0.1692351
endloop
endfacet
facet normal -2.980232E-08 0.1107516 -0.9928337
outer loop
	vertex -0.003000001 -0.01295498 -0.1692351
	vertex 0.003 -0.01295498 -0.1692351
	vertex 0.003 -0.02007231 -0.1699143
endloop
endfacet
facet normal -2.980232E-08 0.07915185 -0.9958512
outer loop
	vertex -0.003000001 -0.02007231 -0.1699143
	vertex -0.003000001 -0.01295498 -0.1692351
	vertex 0.003 -0.02007231 -0.1699143
endloop
endfacet
facet normal -2.980232E-08 0.01585071 -0.9988688
outer loop
	vertex -0.003000001 -0.02007231 -0.1699143
	vertex 0.003 -0.02007231 -0.1699143
	vertex 0.003 -0.02719768 -0.1699143
endloop
endfacet
facet normal -2.980232E-08 -0.01585071 -0.9988688
outer loop
	vertex -0.003000001 -0.02719768 -0.1699143
	vertex -0.003000001 -0.02007231 -0.1699143
	vertex 0.003 -0.02719768 -0.1699143
endloop
endfacet
facet normal -2.980232E-08 -0.07915185 -0.9958512
outer loop
	vertex -0.003000001 -0.02719768 -0.1699143
	vertex 0.003 -0.02719768 -0.1699143
	vertex 0.002999998 -0.03431502 -0.1692351
endloop
endfacet
facet normal -2.980232E-08 -0.1107516 -0.9928337
outer loop
	vertex -0.003000003 -0.03431502 -0.1692351
	vertex -0.003000001 -0.02719768 -0.1699143
	vertex 0.002999998 -0.03431502 -0.1692351
endloop
endfacet
facet normal -2.980232E-08 -0.1734827 -0.9838157
outer loop
	vertex -0.003000003 -0.03431502 -0.1692351
	vertex 0.002999998 -0.03431502 -0.1692351
	vertex 0.002999997 -0.04131293 -0.1678854
endloop
endfacet
facet normal -2.980232E-08 -0.2046141 -0.9778153
outer loop
	vertex -0.003000003 -0.04131293 -0.1678854
	vertex -0.003000003 -0.03431502 -0.1692351
	vertex 0.002999997 -0.04131293 -0.1678854
endloop
endfacet
facet normal -2.980232E-08 -0.2661697 -0.9628826
outer loop
	vertex -0.003000003 -0.04131293 -0.1678854
	vertex 0.002999997 -0.04131293 -0.1678854
	vertex 0.002999998 -0.04816986 -0.1658732
endloop
endfacet
facet normal -2.980232E-08 -0.2965938 -0.9539503
outer loop
	vertex -0.003000002 -0.04816986 -0.1658732
	vertex -0.003000003 -0.04131293 -0.1678854
	vertex 0.002999998 -0.04816986 -0.1658732
endloop
endfacet
facet normal 0.004115155 -0.3595521 -0.9317745
outer loop
	vertex -0.003000002 -0.04816986 -0.1658732
	vertex 0.002999998 -0.04816986 -0.1658732
	vertex 0.002999998 -0.05476952 -0.1632307
endloop
endfacet
facet normal 0.004115155 -0.3889736 -0.9199993
outer loop
	vertex -0.003000002 -0.05476952 -0.1632307
	vertex -0.003000002 -0.04816986 -0.1658732
	vertex 0.002999998 -0.05476952 -0.1632307
endloop
endfacet
facet normal 0.01802357 -0.4431163 -0.8953382
outer loop
	vertex -0.003000002 -0.06113582 -0.1599514
	vertex -0.003000002 -0.05476952 -0.1632307
	vertex 0.002999998 -0.05476952 -0.1632307
endloop
endfacet
facet normal 0.01849565 -0.5030485 -0.859996
outer loop
	vertex -0.003000002 -0.06113582 -0.1599514
	vertex 0.002999998 -0.05476952 -0.1632307
	vertex 0.003 -0.126111 -0.1221771
endloop
endfacet
facet normal 0.01438047 -0.5598986 -0.8261001
outer loop
	vertex -0.002999997 -0.126111 -0.1221771
	vertex -0.003000002 -0.06113582 -0.1599514
	vertex 0.003 -0.126111 -0.1221771
endloop
endfacet
facet normal 0.0004720688 -0.641106 -0.7624733
outer loop
	vertex -0.002999997 -0.126111 -0.1221771
	vertex 0.003 -0.126111 -0.1221771
	vertex 0.003 -0.1282948 -0.1201494
endloop
endfacet
facet normal 0 -0.6871025 -0.721303
outer loop
	vertex -0.002999997 -0.1282948 -0.1201494
	vertex -0.002999997 -0.126111 -0.1221771
	vertex 0.003 -0.1282948 -0.1201494
endloop
endfacet
facet normal 0 -1 -2.980232E-08
outer loop
	vertex 0.0007054373 -0.133635 -0.00849967
	vertex 0.001522617 -0.133635 -0.008509228
	vertex 0.00228914 -0.133635 -0.00847447
endloop
endfacet
facet normal 0 -0.9997649 -0.01251705
outer loop
	vertex 0.001522617 -0.133635 -0.008509228
	vertex -0.002999997 -0.133635 -0.1065459
	vertex 0.00228914 -0.133635 -0.00847447
endloop
endfacet
facet normal 0 -0.9997649 -0.01251705
outer loop
	vertex 0.0007054373 -0.133635 -0.00849967
	vertex -0.002999997 -0.133635 -0.1065459
	vertex 0.001522617 -0.133635 -0.008509228
endloop
endfacet
facet normal 0 -1 -2.980232E-08
outer loop
	vertex -0.0001541585 -0.133635 -0.008499693
	vertex 0.0007054373 -0.133635 -0.00849967
	vertex 0.00228914 -0.133635 -0.00847447
endloop
endfacet
facet normal 0 -0.9997649 -0.01251705
outer loop
	vertex -0.0001541585 -0.133635 -0.008499693
	vertex -0.002999997 -0.133635 -0.1065459
	vertex 0.0007054373 -0.133635 -0.00849967
endloop
endfacet
facet normal 0 -1 -2.980232E-08
outer loop
	vertex -0.001057206 -0.133635 -0.008499717
	vertex -0.0001541585 -0.133635 -0.008499693
	vertex 0.00228914 -0.133635 -0.00847447
endloop
endfacet
facet normal 0 -0.9997649 -0.01251705
outer loop
	vertex -0.001057206 -0.133635 -0.008499717
	vertex -0.002999997 -0.133635 -0.1065459
	vertex -0.0001541585 -0.133635 -0.008499693
endloop
endfacet
facet normal 0 -1 -2.980232E-08
outer loop
	vertex -0.002005464 -0.133635 -0.008499743
	vertex -0.001057206 -0.133635 -0.008499717
	vertex 0.00228914 -0.133635 -0.00847447
endloop
endfacet
facet normal 0 -0.9997649 -0.01251705
outer loop
	vertex -0.002005464 -0.133635 -0.008499743
	vertex -0.002999997 -0.133635 -0.1065459
	vertex -0.001057206 -0.133635 -0.008499717
endloop
endfacet
facet normal -0.000377655 -0.9994838 0.01854088
outer loop
	vertex -0.002999997 -0.133635 -0.008484867
	vertex -0.002005464 -0.133635 -0.008499743
	vertex 0.00228914 -0.133635 -0.00847447
endloop
endfacet
facet normal -0.000377655 -0.9992487 0.006023853
outer loop
	vertex -0.002999997 -0.133635 -0.008484867
	vertex -0.002999997 -0.133635 -0.1065459
	vertex -0.002005464 -0.133635 -0.008499743
endloop
endfacet
facet normal 0 -0.7640975 -0.6412506
outer loop
	vertex -0.002999997 -0.1282948 -0.1201494
	vertex 0.003 -0.1282948 -0.1201494
	vertex 0.003 -0.1301582 -0.1178143
endloop
endfacet
facet normal 0 -0.7951264 -0.6023466
outer loop
	vertex -0.002999997 -0.1301582 -0.1178143
	vertex -0.002999997 -0.1282948 -0.1201494
	vertex 0.003 -0.1301582 -0.1178143
endloop
endfacet
facet normal 0 -0.8511165 -0.5202078
outer loop
	vertex -0.002999997 -0.1301582 -0.1178143
	vertex 0.003 -0.1301582 -0.1178143
	vertex 0.003 -0.1316554 -0.115221
endloop
endfacet
facet normal 0 -0.8760777 -0.476973
outer loop
	vertex -0.002999997 -0.1316554 -0.115221
	vertex -0.002999997 -0.1301582 -0.1178143
	vertex 0.003 -0.1316554 -0.115221
endloop
endfacet
facet normal 0 -0.9192158 -0.3874141
outer loop
	vertex -0.002999997 -0.1316554 -0.115221
	vertex 0.003 -0.1316554 -0.115221
	vertex 0.003 -0.132746 -0.1124397
endloop
endfacet
facet normal 0 -0.9373927 -0.3410899
outer loop
	vertex -0.002999997 -0.132746 -0.1124397
	vertex -0.002999997 -0.1316554 -0.115221
	vertex 0.003 -0.132746 -0.1124397
endloop
endfacet
facet normal 0 -0.9666402 -0.2462999
outer loop
	vertex -0.002999997 -0.132746 -0.1124397
	vertex 0.003 -0.132746 -0.1124397
	vertex 0.003 -0.1334101 -0.1095346
endloop
endfacet
facet normal 0 -0.977711 -0.197834
outer loop
	vertex -0.002999997 -0.1334101 -0.1095346
	vertex -0.002999997 -0.132746 -0.1124397
	vertex 0.003 -0.1334101 -0.1095346
endloop
endfacet
facet normal 0 -0.992286 -0.1120958
outer loop
	vertex -0.002999997 -0.1334101 -0.1095346
	vertex 0.003 -0.1334101 -0.1095346
	vertex 0.003 -0.133635 -0.1065459
endloop
endfacet
facet normal 0 -0.9957904 -0.07482347
outer loop
	vertex -0.002999997 -0.133635 -0.1065459
	vertex -0.002999997 -0.1334101 -0.1095346
	vertex 0.003 -0.133635 -0.1065459
endloop
endfacet
facet normal 0.0002388358 -0.9987492 -0.002235648
outer loop
	vertex -0.002999997 -0.133635 -0.1065459
	vertex 0.003 -0.133635 -0.1065459
	vertex 0.003 -0.133635 -0.008362654
endloop
endfacet
facet normal 0.0002388358 -0.9989843 0.01028144
outer loop
	vertex -0.002999997 -0.133635 -0.1065459
	vertex 0.003 -0.133635 -0.008362654
	vertex 0.00228914 -0.133635 -0.00847447
endloop
endfacet
facet normal -0.0001388192 -0.9987031 0.04133937
outer loop
	vertex 0.003 -0.133635 -0.008362654
	vertex -0.002999997 -0.133635 -0.008484867
	vertex 0.00228914 -0.133635 -0.00847447
endloop
endfacet
facet normal -0.0007448792 -0.9902482 0.1159364
outer loop
	vertex -0.002999997 -0.1335097 -0.007378093
	vertex -0.002999997 -0.133635 -0.008484867
	vertex 0.003 -0.133635 -0.008362654
endloop
endfacet
facet normal 0.0001506209 -0.9805224 0.1793887
outer loop
	vertex -0.002999997 -0.1335097 -0.007378093
	vertex 0.003 -0.133635 -0.008362654
	vertex 0.003 -0.1334832 -0.007270312
endloop
endfacet
facet normal -0.0005910595 -0.9482604 0.3012844
outer loop
	vertex -0.002999997 -0.1331418 -0.006332817
	vertex -0.002999997 -0.1335097 -0.007378093
	vertex 0.003 -0.1334832 -0.007270312
endloop
endfacet
facet normal 0.0004491409 -0.9208976 0.3770047
outer loop
	vertex -0.002999997 -0.1331418 -0.006332817
	vertex 0.003 -0.1334832 -0.007270312
	vertex 0.003 -0.1330997 -0.006247601
endloop
endfacet
facet normal -0.0004930894 -0.8585489 0.5026753
outer loop
	vertex -0.002999997 -0.1325478 -0.005384331
	vertex -0.002999997 -0.1331418 -0.006332817
	vertex 0.003 -0.1330997 -0.006247601
endloop
endfacet
facet normal 0.0003597935 -0.8158191 0.5695784
outer loop
	vertex -0.002999997 -0.1325478 -0.005384331
	vertex 0.003 -0.1330997 -0.006247601
	vertex 0.003 -0.1325 -0.005325647
endloop
endfacet
facet normal -0.000410219 -0.7259778 0.6799953
outer loop
	vertex -0.002999997 -0.1317529 -0.004589448
	vertex -0.002999997 -0.1325478 -0.005384331
	vertex 0.003 -0.1325 -0.005325647
endloop
endfacet
facet normal -1 -2.980232E-08 0
outer loop
	vertex -0.003000001 -0.02719768 -0.1699143
	vertex -0.003000003 -0.03431502 -0.1692351
	vertex -0.003000001 -0.02007231 -0.1699143
endloop
endfacet
facet normal -1 -2.980232E-08 0
outer loop
	vertex -0.003000001 -0.02007231 -0.1699143
	vertex -0.003000003 -0.03431502 -0.1692351
	vertex -0.003000001 -0.01295498 -0.1692351
endloop
endfacet
facet normal -1 -2.980232E-08 0
outer loop
	vertex -0.003000003 -0.03431502 -0.1692351
	vertex -0.003000003 -0.04131293 -0.1678854
	vertex -0.003000001 -0.01295498 -0.1692351
endloop
endfacet
facet normal -1 -2.980232E-08 0
outer loop
	vertex -0.003000001 -0.01295498 -0.1692351
	vertex -0.003000003 -0.04131293 -0.1678854
	vertex -0.003000001 -0.005957071 -0.1678854
endloop
endfacet
facet normal -1 -2.980232E-08 0
outer loop
	vertex -0.003000003 -0.04131293 -0.1678854
	vertex -0.003000002 -0.04816986 -0.1658732
	vertex -0.003000001 -0.005957071 -0.1678854
endloop
endfacet
facet normal -1 -2.980232E-08 0
outer loop
	vertex -0.003000001 -0.005957071 -0.1678854
	vertex -0.003000002 -0.04816986 -0.1658732
	vertex -0.003000005 0.0008998588 -0.1658732
endloop
endfacet
facet normal -1 -2.980232E-08 0
outer loop
	vertex -0.003000002 -0.04816986 -0.1658732
	vertex -0.003000002 -0.05476952 -0.1632307
	vertex -0.003000005 0.0008998588 -0.1658732
endloop
endfacet
facet normal -1 -2.980232E-08 0
outer loop
	vertex -0.003000005 0.0008998588 -0.1658732
	vertex -0.003000002 -0.05476952 -0.1632307
	vertex -0.003000005 0.00749952 -0.1632307
endloop
endfacet
facet normal -1 -2.980232E-08 0
outer loop
	vertex -0.003000002 -0.05476952 -0.1632307
	vertex -0.003000002 -0.06113582 -0.1599514
	vertex -0.003000005 0.00749952 -0.1632307
endloop
endfacet
facet normal -1 -2.980232E-08 0
outer loop
	vertex -0.003000005 0.00749952 -0.1632307
	vertex -0.003000002 -0.06113582 -0.1599514
	vertex -0.003000005 0.01386583 -0.1599514
endloop
endfacet
facet normal -1 -2.980232E-08 0
outer loop
	vertex -0.003000002 -0.06113582 -0.1599514
	vertex -0.002999997 -0.126111 -0.1221771
	vertex -0.003000005 0.01386583 -0.1599514
endloop
endfacet
facet normal -1 -2.980232E-08 0
outer loop
	vertex -0.002999997 -0.126111 -0.1221771
	vertex -0.002999997 -0.1282948 -0.1201494
	vertex -0.003000005 0.01386583 -0.1599514
endloop
endfacet
facet normal -1 -2.980232E-08 0
outer loop
	vertex -0.002999997 -0.1282948 -0.1201494
	vertex -0.002999997 -0.1301582 -0.1178143
	vertex -0.003000005 0.01386583 -0.1599514
endloop
endfacet
facet normal -1 -2.980232E-08 0
outer loop
	vertex -0.002999997 -0.1301582 -0.1178143
	vertex -0.002999997 -0.1316554 -0.115221
	vertex -0.003000005 0.01386583 -0.1599514
endloop
endfacet
facet normal -1 -2.980232E-08 0
outer loop
	vertex -0.003000005 0.01386583 -0.1599514
	vertex -0.002999997 -0.1316554 -0.115221
	vertex -0.00299999 0.09613581 -0.1124514
endloop
endfacet
facet normal -1 -2.980232E-08 0
outer loop
	vertex -0.002999997 -0.1316554 -0.115221
	vertex -0.002999997 -0.132746 -0.1124397
	vertex -0.00299999 0.09613581 -0.1124514
endloop
endfacet
facet normal -1 -2.980232E-08 0
outer loop
	vertex -0.002999997 -0.132746 -0.1124397
	vertex -0.002999997 -0.1334101 -0.1095346
	vertex -0.00299999 0.09613581 -0.1124514
endloop
endfacet
facet normal -1 -2.980232E-08 0
outer loop
	vertex -0.00299999 0.09613581 -0.1124514
	vertex -0.002999997 -0.1334101 -0.1095346
	vertex -0.00299999 0.1021586 -0.1085776
endloop
endfacet
facet normal -1 -2.980232E-08 0
outer loop
	vertex -0.002999997 -0.1334101 -0.1095346
	vertex -0.002999997 -0.133635 -0.1065459
	vertex -0.00299999 0.1021586 -0.1085776
endloop
endfacet
facet normal -1 -2.980232E-08 0
outer loop
	vertex -0.00299999 0.1021586 -0.1085776
	vertex -0.002999997 -0.133635 -0.1065459
	vertex -0.00299999 0.1077466 -0.1041835
endloop
endfacet
facet normal -1 -2.980232E-08 0
outer loop
	vertex -0.00299999 0.1077466 -0.1041835
	vertex -0.002999997 -0.1127564 -0.0298725
	vertex -0.003000005 0.1129174 -0.0992514
endloop
endfacet
facet normal -1 -2.980232E-08 0
outer loop
	vertex -0.002999997 -0.133635 -0.1065459
	vertex -0.002999997 -0.1127564 -0.0298725
	vertex -0.00299999 0.1077466 -0.1041835
endloop
endfacet
facet normal -1 -2.980232E-08 0
outer loop
	vertex -0.002999997 -0.1138055 -0.02950405
	vertex -0.002999997 -0.1127564 -0.0298725
	vertex -0.002999997 -0.133635 -0.1065459
endloop
endfacet
facet normal -1 -2.980232E-08 0
outer loop
	vertex -0.002999997 -0.1147529 -0.02891014
	vertex -0.002999997 -0.1138055 -0.02950405
	vertex -0.002999997 -0.133635 -0.1065459
endloop
endfacet
facet normal -1 -2.980232E-08 0
outer loop
	vertex -0.002999997 -0.1155477 -0.02811529
	vertex -0.002999997 -0.1147529 -0.02891014
	vertex -0.002999997 -0.133635 -0.1065459
endloop
endfacet
facet normal -1 -2.980232E-08 0
outer loop
	vertex -0.002999997 -0.133635 -0.008484867
	vertex -0.002999997 -0.1155477 -0.02811529
	vertex -0.002999997 -0.133635 -0.1065459
endloop
endfacet
facet normal -1 -2.980232E-08 0
outer loop
	vertex -0.002999997 -0.1161416 -0.02716791
	vertex -0.002999997 -0.1155477 -0.02811529
	vertex -0.002999997 -0.133635 -0.008484867
endloop
endfacet
facet normal -1 -2.980232E-08 0
outer loop
	vertex -0.002999997 -0.1165101 -0.02611885
	vertex -0.002999997 -0.1161416 -0.02716791
	vertex -0.002999997 -0.133635 -0.008484867
endloop
endfacet
facet normal -1 -2.980232E-08 0
outer loop
	vertex -0.002999997 -0.1167647 -0.00738072
	vertex -0.002999997 -0.1165101 -0.02611885
	vertex -0.002999997 -0.133635 -0.008484867
endloop
endfacet
facet normal -1 -2.980232E-08 0
outer loop
	vertex -0.002999997 -0.1335097 -0.007378093
	vertex -0.002999997 -0.1167647 -0.00738072
	vertex -0.002999997 -0.133635 -0.008484867
endloop
endfacet
facet normal -1 -2.980232E-08 0
outer loop
	vertex -0.002999997 -0.1331418 -0.006332817
	vertex -0.002999997 -0.1167647 -0.00738072
	vertex -0.002999997 -0.1335097 -0.007378093
endloop
endfacet
facet normal -1 -2.980232E-08 0
outer loop
	vertex -0.002999997 -0.1171331 -0.006331659
	vertex -0.002999997 -0.1167647 -0.00738072
	vertex -0.002999997 -0.1331418 -0.006332817
endloop
endfacet
facet normal -1 -2.980232E-08 0
outer loop
	vertex -0.002999997 -0.1325478 -0.005384331
	vertex -0.002999997 -0.1171331 -0.006331659
	vertex -0.002999997 -0.1331418 -0.006332817
endloop
endfacet
facet normal -1 -2.980232E-08 0
outer loop
	vertex -0.002999997 -0.117727 -0.005384275
	vertex -0.002999997 -0.1171331 -0.006331659
	vertex -0.002999997 -0.1325478 -0.005384331
endloop
endfacet
facet normal -1 -2.980232E-08 0
outer loop
	vertex -0.002999997 -0.1317529 -0.004589448
	vertex -0.002999997 -0.117727 -0.005384275
	vertex -0.002999997 -0.1325478 -0.005384331
endloop
endfacet
facet normal -1 -2.980232E-08 0
outer loop
	vertex -0.002999997 -0.1185219 -0.004589425
	vertex -0.002999997 -0.117727 -0.005384275
	vertex -0.002999997 -0.1317529 -0.004589448
endloop
endfacet
facet normal -1 -2.980232E-08 0
outer loop
	vertex -0.002999997 -0.1308055 -0.003995523
	vertex -0.002999997 -0.1185219 -0.004589425
	vertex -0.002999997 -0.1317529 -0.004589448
endloop
endfacet
facet normal -1 -2.980232E-08 0
outer loop
	vertex -0.002999997 -0.1194692 -0.003995521
	vertex -0.002999997 -0.1185219 -0.004589425
	vertex -0.002999997 -0.1308055 -0.003995523
endloop
endfacet
facet normal 0.0002632936 -0.6699582 0.7353896
outer loop
	vertex -0.002999997 -0.1317529 -0.004589448
	vertex 0.003 -0.1325 -0.005325647
	vertex 0.003 -0.1317083 -0.00455449
endloop
endfacet
facet normal -0.0005520384 -0.5045319 0.8441392
outer loop
	vertex -0.002999997 -0.1308055 -0.003995523
	vertex -0.002999997 -0.1317529 -0.004589448
	vertex 0.003 -0.1317083 -0.00455449
endloop
endfacet
facet normal -0.0005765855 -0.3868983 0.9043468
outer loop
	vertex -0.002999997 -0.1308055 -0.003995523
	vertex 0.003 -0.1317083 -0.00455449
	vertex 0.003 -0.1307712 -0.003979173
endloop
endfacet
facet normal -0.0009873509 -0.08998826 0.9616207
outer loop
	vertex -0.002999997 -0.1308055 -0.003995523
	vertex 0.003 -0.1307712 -0.003979173
	vertex 0.003000004 -0.1194687 -0.003995355
endloop
endfacet
facet normal -0.0006431838 0.0921606 0.9610338
outer loop
	vertex -0.002999997 -0.1194692 -0.003995521
	vertex -0.002999997 -0.1308055 -0.003995523
	vertex 0.003000004 -0.1194687 -0.003995355
endloop
endfacet
facet normal -0.0002018313 0.3919903 0.9014048
outer loop
	vertex -0.002999997 -0.1194692 -0.003995521
	vertex 0.003000004 -0.1194687 -0.003995355
	vertex 0.003000004 -0.1185214 -0.004589261
endloop
endfacet
facet normal -6.41346E-05 0.5074968 0.8417919
outer loop
	vertex -0.002999997 -0.1185219 -0.004589425
	vertex -0.002999997 -0.1194692 -0.003995521
	vertex 0.003000004 -0.1185214 -0.004589261
endloop
endfacet
facet normal -7.464489E-05 0.6761082 0.7291304
outer loop
	vertex -0.002999997 -0.1185219 -0.004589425
	vertex 0.003000004 -0.1185214 -0.004589261
	vertex 0.003000004 -0.1177265 -0.005384109
endloop
endfacet
facet normal -7.746617E-05 0.7291316 0.6761068
outer loop
	vertex -0.002999997 -0.117727 -0.005384275
	vertex -0.002999997 -0.1185219 -0.004589425
	vertex 0.003000004 -0.1177265 -0.005384109
endloop
endfacet
facet normal -8.17577E-05 0.8217534 0.5600312
outer loop
	vertex -0.002999997 -0.117727 -0.005384275
	vertex 0.003000004 -0.1177265 -0.005384109
	vertex 0.003000004 -0.1171326 -0.006331494
endloop
endfacet
facet normal -8.322795E-05 0.8613492 0.496982
outer loop
	vertex -0.002999997 -0.1171331 -0.006331659
	vertex -0.002999997 -0.117727 -0.005384275
	vertex 0.003000004 -0.1171326 -0.006331494
endloop
endfacet
facet normal -8.47578E-05 0.9255239 0.3638225
outer loop
	vertex -0.002999997 -0.1171331 -0.006331659
	vertex 0.003000004 -0.1171326 -0.006331494
	vertex 0.003000004 -0.1167642 -0.007380554
endloop
endfacet
facet normal -0.001838326 0.9533307 0.2778625
outer loop
	vertex -0.002999997 -0.1167647 -0.00738072
	vertex -0.002999997 -0.1171331 -0.006331659
	vertex 0.003000004 -0.1167642 -0.007380554
endloop
endfacet
facet normal -0.005795638 0.985909 0.1498647
outer loop
	vertex -0.002999997 -0.1167647 -0.00738072
	vertex 0.003000004 -0.1167642 -0.007380554
	vertex 0.003000004 -0.1166369 -0.00849962
endloop
endfacet
facet normal -0.003701786 0.9938177 0.0940302
outer loop
	vertex -0.002999997 -0.1167647 -0.00738072
	vertex 0.003000004 -0.1166369 -0.00849962
	vertex 0.003000004 -0.1166369 -0.02499962
endloop
endfacet
facet normal 0.003036737 0.9887677 0.1375679
outer loop
	vertex -0.002999997 -0.1165101 -0.02611885
	vertex -0.002999997 -0.1167647 -0.00738072
	vertex 0.003000004 -0.1166369 -0.02499962
endloop
endfacet
facet normal 0.004790246 0.9855393 0.1534175
outer loop
	vertex -0.002999997 -0.1165101 -0.02611885
	vertex 0.003000004 -0.1166369 -0.02499962
	vertex 0.003000004 -0.1165096 -0.02611868
endloop
endfacet
facet normal 0.002696653 0.9530525 0.2793613
outer loop
	vertex -0.002999997 -0.1165101 -0.02611885
	vertex 0.003000004 -0.1165096 -0.02611868
	vertex 0.003000004 -0.1161412 -0.02716774
endloop
endfacet
facet normal 0.002696931 0.9284741 0.3494718
outer loop
	vertex -0.002999997 -0.1161416 -0.02716791
	vertex -0.002999997 -0.1165101 -0.02611885
	vertex 0.003000004 -0.1161412 -0.02716774
endloop
endfacet
facet normal -8.267164E-05 0.861349 0.4969822
outer loop
	vertex -0.002999997 -0.1161416 -0.02716791
	vertex 0.003000004 -0.1161412 -0.02716774
	vertex 0.003000004 -0.1155473 -0.02811513
endloop
endfacet
facet normal -8.141994E-05 0.8217539 0.5600307
outer loop
	vertex -0.002999997 -0.1155477 -0.02811529
	vertex -0.002999997 -0.1161416 -0.02716791
	vertex 0.003000004 -0.1155473 -0.02811513
endloop
endfacet
facet normal -7.736683E-05 0.7291323 0.6761059
outer loop
	vertex -0.002999997 -0.1155477 -0.02811529
	vertex 0.003000004 -0.1155473 -0.02811513
	vertex 0.003000004 -0.1147524 -0.02890998
endloop
endfacet
facet normal -7.470449E-05 0.6761091 0.7291294
outer loop
	vertex -0.002999997 -0.1147529 -0.02891014
	vertex -0.002999997 -0.1155477 -0.02811529
	vertex 0.003000004 -0.1147524 -0.02890998
endloop
endfacet
facet normal -6.787976E-05 0.5600324 0.8217524
outer loop
	vertex -0.002999997 -0.1147529 -0.02891014
	vertex 0.003000004 -0.1147524 -0.02890998
	vertex 0.003000004 -0.113805 -0.02950388
endloop
endfacet
facet normal -6.387631E-05 0.4969846 0.8613476
outer loop
	vertex -0.002999997 -0.1138055 -0.02950405
	vertex -0.002999997 -0.1147529 -0.02891014
	vertex 0.003000004 -0.113805 -0.02950388
endloop
endfacet
facet normal -0.00321575 0.3475045 0.9288249
outer loop
	vertex -0.002999997 -0.1138055 -0.02950405
	vertex 0.003000004 -0.113805 -0.02950388
	vertex 0.003000004 -0.112756 -0.02987232
endloop
endfacet
facet normal -0.003210773 0.2773978 0.9534023
outer loop
	vertex -0.002999997 -0.1127564 -0.0298725
	vertex -0.002999997 -0.1138055 -0.02950405
	vertex 0.003000004 -0.112756 -0.02987232
endloop
endfacet
facet normal -0.007159362 0.1493992 0.9859817
outer loop
	vertex -0.002999997 -0.1116374 -0.02999979
	vertex -0.002999997 -0.1127564 -0.0298725
	vertex 0.003000004 -0.112756 -0.02987232
endloop
endfacet
facet normal -0.0111106 0.05821785 0.9939827
outer loop
	vertex -0.002999997 -0.1076374 -0.02999979
	vertex -0.002999997 -0.1116374 -0.02999979
	vertex 0.003000004 -0.112756 -0.02987232
endloop
endfacet
facet normal -0.01030816 -0.01664907 0.9892833
outer loop
	vertex -0.002999997 -0.1076374 -0.02999979
	vertex 0.003000004 -0.112756 -0.02987232
	vertex 0.003000004 -0.1065178 -0.02987233
endloop
endfacet
facet normal -0.007132313 -0.1493963 0.9859822
outer loop
	vertex -0.002999997 -0.1065183 -0.0298725
	vertex -0.002999997 -0.1076374 -0.02999979
	vertex 0.003000004 -0.1065178 -0.02987233
endloop
endfacet
facet normal -0.003162702 -0.2773976 0.9534025
outer loop
	vertex -0.002999997 -0.1065183 -0.0298725
	vertex 0.003000004 -0.1065178 -0.02987233
	vertex 0.003000004 -0.1054688 -0.02950389
endloop
endfacet
facet normal 6.745259E-06 -0.3638203 0.9255242
outer loop
	vertex -0.002999997 -0.1054693 -0.02950406
	vertex -0.002999997 -0.1065183 -0.0298725
	vertex 0.003000004 -0.1054688 -0.02950389
endloop
endfacet
facet normal 1.62522E-05 -0.496984 0.8613477
outer loop
	vertex -0.002999997 -0.1054693 -0.02950406
	vertex 0.003000004 -0.1054688 -0.02950389
	vertex 0.003000004 -0.1045214 -0.02890999
endloop
endfacet
facet normal 2.238154E-05 -0.5600305 0.8217536
outer loop
	vertex -0.002999997 -0.1045219 -0.02891015
	vertex -0.002999997 -0.1054693 -0.02950406
	vertex 0.003000004 -0.1045214 -0.02890999
endloop
endfacet
facet normal 3.431241E-05 -0.6761075 0.7291309
outer loop
	vertex -0.002999997 -0.1045219 -0.02891015
	vertex 0.003000004 -0.1045214 -0.02890999
	vertex 0.003000004 -0.1037265 -0.02811514
endloop
endfacet
facet normal 4.009406E-05 -0.7291292 0.6761093
outer loop
	vertex -0.002999997 -0.103727 -0.02811531
	vertex -0.002999997 -0.1045219 -0.02891015
	vertex 0.003000004 -0.1037265 -0.02811514
endloop
endfacet
facet normal 5.38826E-05 -0.8417911 0.5074987
outer loop
	vertex -0.002999997 -0.103727 -0.02811531
	vertex 0.003000004 -0.1037265 -0.02811514
	vertex 0.003000004 -0.1031326 -0.02716776
endloop
endfacet
facet normal 6.190936E-05 -0.9014246 0.3919203
outer loop
	vertex -0.002999997 -0.1031331 -0.02716792
	vertex -0.002999997 -0.103727 -0.02811531
	vertex 0.003000004 -0.1031326 -0.02716776
endloop
endfacet
facet normal 7.502238E-05 -0.961061 0.09211234
outer loop
	vertex -0.002999997 -0.1031331 -0.02716792
	vertex 0.003000004 -0.1031326 -0.02716776
	vertex 0.003000004 -0.1031326 0.02716849
endloop
endfacet
facet normal 8.012851E-05 -0.9610603 -0.09210867
outer loop
	vertex -0.002999997 -0.1031331 0.02716833
	vertex -0.002999997 -0.1031331 -0.02716792
	vertex 0.003000004 -0.1031326 0.02716849
endloop
endfacet
facet normal 8.360545E-05 -0.9014269 -0.391917
outer loop
	vertex -0.002999997 -0.1031331 0.02716833
	vertex 0.003000004 -0.1031326 0.02716849
	vertex 0.003000004 -0.1037265 0.02811588
endloop
endfacet
facet normal 8.197626E-05 -0.8417917 -0.5074993
outer loop
	vertex -0.002999997 -0.103727 0.02811571
	vertex -0.002999997 -0.1031331 0.02716833
	vertex 0.003000004 -0.1037265 0.02811588
endloop
endfacet
facet normal 7.752577E-05 -0.7291334 -0.6761054
outer loop
	vertex -0.002999997 -0.103727 0.02811571
	vertex 0.003000004 -0.1037265 0.02811588
	vertex 0.003000004 -0.1045213 0.02891073
endloop
endfacet
facet normal 7.470449E-05 -0.6761077 -0.7291312
outer loop
	vertex -0.002999997 -0.1045218 0.02891056
	vertex -0.002999997 -0.103727 0.02811571
	vertex 0.003000004 -0.1045213 0.02891073
endloop
endfacet
facet normal 6.787976E-05 -0.5600348 -0.8217512
outer loop
	vertex -0.002999997 -0.1045218 0.02891056
	vertex 0.003000004 -0.1045213 0.02891073
	vertex 0.003000004 -0.1054687 0.02950463
endloop
endfacet
facet normal 6.383657E-05 -0.4969826 -0.8613491
outer loop
	vertex -0.002999997 -0.1054692 0.02950447
	vertex -0.002999997 -0.1045218 0.02891056
	vertex 0.003000004 -0.1054687 0.02950463
endloop
endfacet
facet normal 5.480151E-05 -0.3638255 -0.9255229
outer loop
	vertex -0.002999997 -0.1054692 0.02950447
	vertex 0.003000004 -0.1054687 0.02950463
	vertex 0.003000004 -0.1065178 0.02987307
endloop
endfacet
facet normal 0.003210619 -0.2773952 -0.9534035
outer loop
	vertex -0.002999997 -0.1065183 0.02987291
	vertex -0.002999997 -0.1054692 0.02950447
	vertex 0.003000004 -0.1065178 0.02987307
endloop
endfacet
facet normal 0.007159201 -0.1493995 -0.9859817
outer loop
	vertex -0.002999997 -0.1065183 0.02987291
	vertex 0.003000004 -0.1065178 0.02987307
	vertex 0.003000004 -0.1076368 0.03000037
endloop
endfacet
facet normal 0.01111045 -0.05821788 -0.9939827
outer loop
	vertex -0.002999997 -0.1065183 0.02987291
	vertex 0.003000004 -0.1076368 0.03000037
	vertex 0.003000004 -0.1116368 0.03000038
endloop
endfacet
facet normal 0.0103081 0.01664986 -0.9892833
outer loop
	vertex -0.002999997 -0.1127564 0.02987291
	vertex -0.002999997 -0.1065183 0.02987291
	vertex 0.003000004 -0.1116368 0.03000038
endloop
endfacet
facet normal 0.007132319 0.1493974 -0.9859821
outer loop
	vertex -0.002999997 -0.1127564 0.02987291
	vertex 0.003000004 -0.1116368 0.03000038
	vertex 0.003000004 -0.1127559 0.02987308
endloop
endfacet
facet normal 0.003166129 0.2773947 -0.9534042
outer loop
	vertex -0.002999997 -0.1127564 0.02987291
	vertex 0.003000004 -0.1127559 0.02987308
	vertex 0.003000004 -0.113805 0.02950464
endloop
endfacet
facet normal 0.003166129 0.3475085 -0.9288245
outer loop
	vertex -0.002999997 -0.1138054 0.02950448
	vertex -0.002999997 -0.1127564 0.02987291
	vertex 0.003000004 -0.113805 0.02950464
endloop
endfacet
facet normal -9.477139E-06 0.4969808 -0.8613504
outer loop
	vertex -0.002999997 -0.1138054 0.02950448
	vertex 0.003000004 -0.113805 0.02950464
	vertex 0.003000004 -0.1147523 0.02891074
endloop
endfacet
facet normal -1.902382E-05 0.5600333 -0.8217524
outer loop
	vertex -0.002999997 -0.1147528 0.02891057
	vertex -0.002999997 -0.1138054 0.02950448
	vertex 0.003000004 -0.1147523 0.02891074
endloop
endfacet
facet normal -3.431241E-05 0.6761045 -0.7291342
outer loop
	vertex -0.002999997 -0.1147528 0.02891057
	vertex 0.003000004 -0.1147523 0.02891074
	vertex 0.003000004 -0.1155472 0.02811589
endloop
endfacet
facet normal -4.015366E-05 0.7291315 -0.6761075
outer loop
	vertex -0.002999997 -0.1155477 0.02811573
	vertex -0.002999997 -0.1147528 0.02891057
	vertex 0.003000004 -0.1155472 0.02811589
endloop
endfacet
facet normal -5.084276E-05 0.8217507 -0.5600355
outer loop
	vertex -0.002999997 -0.1155477 0.02811573
	vertex 0.003000004 -0.1155472 0.02811589
	vertex 0.003000004 -0.1161411 0.02716851
endloop
endfacet
facet normal -5.578995E-05 0.8613489 -0.496983
outer loop
	vertex -0.002999997 -0.1161416 0.02716834
	vertex -0.002999997 -0.1155477 0.02811573
	vertex 0.003000004 -0.1161411 0.02716851
endloop
endfacet
facet normal -0.002846102 0.9284725 -0.349475
outer loop
	vertex -0.002999997 -0.1161416 0.02716834
	vertex 0.003000004 -0.1161411 0.02716851
	vertex 0.003000004 -0.1165095 0.02611945
endloop
endfacet
facet normal -0.002850016 0.9530519 -0.2793624
outer loop
	vertex -0.002999997 -0.11651 0.02611928
	vertex -0.002999997 -0.1161416 0.02716834
	vertex 0.003000004 -0.1165095 0.02611945
endloop
endfacet
facet normal -0.004949013 0.9855381 -0.1534195
outer loop
	vertex -0.002999997 -0.1166373 0.02500022
	vertex -0.002999997 -0.11651 0.02611928
	vertex 0.003000004 -0.1165095 0.02611945
endloop
endfacet
facet normal -0.003196021 0.988767 -0.1375692
outer loop
	vertex -0.002999997 -0.1166373 0.02500022
	vertex 0.003000004 -0.1165095 0.02611945
	vertex 0.003000004 -0.1167642 0.007381316
endloop
endfacet
facet normal 0.003541311 0.9938183 -0.0940306
outer loop
	vertex -0.002999997 -0.1166373 0.008500215
	vertex -0.002999997 -0.1166373 0.02500022
	vertex 0.003000004 -0.1167642 0.007381316
endloop
endfacet
facet normal 0.005636394 0.9859099 -0.1498656
outer loop
	vertex -0.002999997 -0.1167646 0.00738115
	vertex -0.002999997 -0.1166373 0.008500215
	vertex 0.003000004 -0.1167642 0.007381316
endloop
endfacet
facet normal 0.001684427 0.9533311 -0.2778623
outer loop
	vertex -0.002999997 -0.1167646 0.00738115
	vertex 0.003000004 -0.1167642 0.007381316
	vertex 0.003000004 -0.1171326 0.006332256
endloop
endfacet
facet normal -6.449223E-05 0.9255231 -0.3638245
outer loop
	vertex -0.002999997 -0.1171331 0.006332091
	vertex -0.002999997 -0.1167646 0.00738115
	vertex 0.003000004 -0.1171326 0.006332256
endloop
endfacet
facet normal -5.545219E-05 0.8613499 -0.4969815
outer loop
	vertex -0.002999997 -0.1171331 0.006332091
	vertex 0.003000004 -0.1171326 0.006332256
	vertex 0.003000004 -0.1177265 0.005384873
endloop
endfacet
facet normal -5.030632E-05 0.8217523 -0.5600331
outer loop
	vertex -0.002999997 -0.117727 0.005384707
	vertex -0.002999997 -0.1171331 0.006332091
	vertex 0.003000004 -0.1177265 0.005384873
endloop
endfacet
facet normal -3.963709E-05 0.7291334 -0.6761053
outer loop
	vertex -0.002999997 -0.117727 0.005384707
	vertex 0.003000004 -0.1177265 0.005384873
	vertex 0.003000004 -0.1185213 0.004590025
endloop
endfacet
facet normal 0.0001321634 -0.719577 -0.6865973
outer loop
	vertex -0.002999997 -0.1324948 0.005319462
	vertex 0.003 -0.1317085 0.004555472
	vertex 0.003 -0.1325002 0.005326759
endloop
endfacet
facet normal 4.287561E-05 -0.6663818 -0.7383533
outer loop
	vertex -0.002999997 -0.1324948 0.005319462
	vertex -0.002999997 -0.1317036 0.004551074
	vertex 0.003 -0.1317085 0.004555472
endloop
endfacet
facet normal 0.0001333654 -0.4995671 -0.8471718
outer loop
	vertex -0.002999997 -0.1317036 0.004551074
	vertex 0.003 -0.1307714 0.003980054
	vertex 0.003 -0.1317085 0.004555472
endloop
endfacet
facet normal 0.0001249413 -0.3849491 -0.9050591
outer loop
	vertex -0.002999997 -0.1317036 0.004551074
	vertex -0.002999997 -0.1307678 0.003977922
	vertex 0.003 -0.1307714 0.003980054
endloop
endfacet
facet normal 0.0001511276 -0.08820089 -0.9620413
outer loop
	vertex -0.002999997 -0.1307678 0.003977922
	vertex -0.002999997 -0.1194692 0.003995956
	vertex 0.003 -0.1307714 0.003980054
endloop
endfacet
facet normal 9.218851E-05 0.0942911 -0.9614165
outer loop
	vertex -0.002999997 -0.1194692 0.003995956
	vertex 0.003 -0.1194687 0.003996123
	vertex 0.003 -0.1307714 0.003980054
endloop
endfacet
facet normal 9.526809E-06 0.3923784 -0.9012946
outer loop
	vertex -0.002999997 -0.1194692 0.003995956
	vertex -0.002999997 -0.1185218 0.004589858
	vertex 0.003 -0.1194687 0.003996123
endloop
endfacet
facet normal -1.898408E-05 0.5077313 -0.8417249
outer loop
	vertex -0.002999997 -0.1185218 0.004589858
	vertex 0.003000004 -0.1185213 0.004590025
	vertex 0.003 -0.1194687 0.003996123
endloop
endfacet
facet normal -3.407399E-05 0.6761055 -0.7291331
outer loop
	vertex -0.002999997 -0.1185218 0.004589858
	vertex -0.002999997 -0.117727 0.005384707
	vertex 0.003000004 -0.1185213 0.004590025
endloop
endfacet
facet normal -1 -2.980232E-08 0
outer loop
	vertex -0.002999994 -0.02007231 0.1699143
	vertex -0.002999994 -0.01295498 0.1692351
	vertex -0.002999994 -0.02719768 0.1699143
endloop
endfacet
facet normal -1 -2.980232E-08 0
outer loop
	vertex -0.002999994 -0.02719768 0.1699143
	vertex -0.002999994 -0.01295498 0.1692351
	vertex -0.002999992 -0.03431502 0.1692351
endloop
endfacet
facet normal -1 -2.980232E-08 0
outer loop
	vertex -0.002999994 -0.01295498 0.1692351
	vertex -0.002999994 -0.005957071 0.1678854
	vertex -0.002999992 -0.03431502 0.1692351
endloop
endfacet
facet normal -1 -2.980232E-08 0
outer loop
	vertex -0.002999992 -0.03431502 0.1692351
	vertex -0.002999994 -0.005957071 0.1678854
	vertex -0.002999992 -0.04131293 0.1678854
endloop
endfacet
facet normal -1 -2.980232E-08 0
outer loop
	vertex -0.002999994 -0.005957071 0.1678854
	vertex -0.002999997 0.0008998588 0.1658733
	vertex -0.002999992 -0.04131293 0.1678854
endloop
endfacet
facet normal -1 -2.980232E-08 0
outer loop
	vertex -0.002999992 -0.04131293 0.1678854
	vertex -0.002999997 0.0008998588 0.1658733
	vertex -0.002999993 -0.04816986 0.1658733
endloop
endfacet
facet normal -1 -2.980232E-08 0
outer loop
	vertex -0.002999997 0.0008998588 0.1658733
	vertex -0.00299999 0.00749952 0.1632307
	vertex -0.002999993 -0.04816986 0.1658733
endloop
endfacet
facet normal -1 -2.980232E-08 0
outer loop
	vertex -0.002999993 -0.04816986 0.1658733
	vertex -0.00299999 0.00749952 0.1632307
	vertex -0.002999993 -0.05476952 0.1632307
endloop
endfacet
facet normal -1 -2.980232E-08 0
outer loop
	vertex -0.00299999 0.00749952 0.1632307
	vertex -0.00299999 0.09613581 0.1124515
	vertex -0.002999993 -0.05476952 0.1632307
endloop
endfacet
facet normal -1 -2.980232E-08 0
outer loop
	vertex -0.002999993 -0.05476952 0.1632307
	vertex -0.00299999 0.09613581 0.1124515
	vertex -0.002999997 -0.126111 0.1221772
endloop
endfacet
facet normal -1 -2.980232E-08 0
outer loop
	vertex -0.002999997 -0.126111 0.1221772
	vertex -0.00299999 0.09613581 0.1124515
	vertex -0.002999997 -0.1282948 0.1201495
endloop
endfacet
facet normal -1 -2.980232E-08 0
outer loop
	vertex -0.002999997 -0.1282948 0.1201495
	vertex -0.00299999 0.09613581 0.1124515
	vertex -0.002999997 -0.1301582 0.1178144
endloop
endfacet
facet normal -1 -2.980232E-08 0
outer loop
	vertex -0.002999997 -0.1301582 0.1178144
	vertex -0.00299999 0.09613581 0.1124515
	vertex -0.002999997 -0.1316554 0.1152211
endloop
endfacet
facet normal -1 -2.980232E-08 0
outer loop
	vertex -0.002999997 -0.1316554 0.1152211
	vertex -0.00299999 0.09613581 0.1124515
	vertex -0.002999997 -0.132746 0.1124397
endloop
endfacet
facet normal -1 -2.980232E-08 0
outer loop
	vertex -0.00299999 0.09613581 0.1124515
	vertex -0.00299999 0.1021586 0.1085777
	vertex -0.002999997 -0.132746 0.1124397
endloop
endfacet
facet normal -1 -2.980232E-08 0
outer loop
	vertex -0.002999997 -0.132746 0.1124397
	vertex -0.00299999 0.1021586 0.1085777
	vertex -0.002999997 -0.1334101 0.1095347
endloop
endfacet
facet normal -1 -2.980232E-08 0
outer loop
	vertex -0.002999997 -0.1334101 0.1095347
	vertex -0.00299999 0.1021586 0.1085777
	vertex -0.002999997 -0.133635 0.106546
endloop
endfacet
facet normal -1 -2.980232E-08 0
outer loop
	vertex -0.00299999 0.1021586 0.1085777
	vertex -0.00299999 0.1077466 0.1041836
	vertex -0.002999997 -0.133635 0.106546
endloop
endfacet
facet normal -1 -2.980232E-08 0
outer loop
	vertex -0.003000005 0.1129174 -0.0992514
	vertex -0.002999997 -0.1127564 -0.0298725
	vertex -0.00299999 0.117585 -0.09386604
endloop
endfacet
facet normal -1 -2.980232E-08 0
outer loop
	vertex -0.00299999 0.1077466 0.1041836
	vertex -0.003000005 0.1129174 0.09925143
	vertex -0.002999997 -0.133635 0.106546
endloop
endfacet
facet normal -1 -2.980232E-08 0
outer loop
	vertex -0.003000005 0.1129174 0.09925143
	vertex -0.00299999 0.117585 0.09386606
	vertex -0.002999997 -0.133635 0.106546
endloop
endfacet
facet normal -1 -2.980232E-08 0
outer loop
	vertex -0.00299999 0.117585 -0.09386604
	vertex -0.002999997 -0.1127564 -0.0298725
	vertex -0.00299999 0.1217317 -0.08804201
endloop
endfacet
facet normal -1 -2.980232E-08 0
outer loop
	vertex -0.00299999 0.117585 0.09386606
	vertex -0.00299999 0.1217317 0.08804204
	vertex -0.002999997 -0.133635 0.106546
endloop
endfacet
facet normal -1 -2.980232E-08 0
outer loop
	vertex -0.00299999 0.1217317 -0.08804201
	vertex -0.002999997 -0.1127564 -0.0298725
	vertex -0.00299999 0.1252942 -0.08187146
endloop
endfacet
facet normal -1 -2.980232E-08 0
outer loop
	vertex -0.00299999 0.1217317 0.08804204
	vertex -0.00299999 0.1252942 0.08187149
	vertex -0.002999997 -0.133635 0.106546
endloop
endfacet
facet normal -1 -2.980232E-08 0
outer loop
	vertex -0.00299999 0.1252942 -0.08187146
	vertex -0.002999997 -0.1127564 -0.0298725
	vertex -0.003000005 0.1282645 -0.07536829
endloop
endfacet
facet normal -1 -2.980232E-08 0
outer loop
	vertex -0.00299999 0.1252942 0.08187149
	vertex -0.003000005 0.1282645 0.07536831
	vertex -0.002999997 -0.133635 0.106546
endloop
endfacet
facet normal -1 -2.980232E-08 0
outer loop
	vertex -0.003000005 0.1282645 -0.07536829
	vertex -0.002999997 -0.1127564 -0.0298725
	vertex -0.003000005 0.1305945 -0.06863333
endloop
endfacet
facet normal -1 -2.980232E-08 0
outer loop
	vertex -0.003000005 0.1305945 -0.06863333
	vertex -0.002999997 -0.1127564 -0.0298725
	vertex -0.003000005 0.1322803 -0.06168922
endloop
endfacet
facet normal -1 -2.980232E-08 0
outer loop
	vertex -0.002999997 -0.1127564 -0.0298725
	vertex -0.002999997 -0.1116374 -0.02999979
	vertex -0.003000005 0.1322803 -0.06168922
endloop
endfacet
facet normal -1 -2.980232E-08 0
outer loop
	vertex -0.003000005 0.1322803 -0.06168922
	vertex -0.002999997 -0.1116374 -0.02999979
	vertex -0.003000005 0.1332917 -0.05465275
endloop
endfacet
facet normal -1 -2.980232E-08 0
outer loop
	vertex -0.003000005 0.1332917 -0.05465275
	vertex -0.002999997 -0.1116374 -0.02999979
	vertex -0.003000005 0.133635 -0.04749998
endloop
endfacet
facet normal -1 -2.980232E-08 0
outer loop
	vertex -0.003000005 0.1282645 0.07536831
	vertex -0.003000005 0.1305945 0.06863335
	vertex -0.002999997 -0.133635 0.106546
endloop
endfacet
facet normal -1 -2.980232E-08 0
outer loop
	vertex -0.003000005 0.1305945 0.06863335
	vertex -0.003000005 0.1322803 0.06168924
	vertex -0.002999997 -0.133635 0.106546
endloop
endfacet
facet normal -1 -2.980232E-08 0
outer loop
	vertex -0.003000005 0.1322803 0.06168924
	vertex -0.003000005 0.1332917 0.05465277
	vertex -0.002999997 -0.133635 0.106546
endloop
endfacet
facet normal -1 -2.980232E-08 0
outer loop
	vertex -0.003000005 0.1332917 0.05465277
	vertex -0.003000005 0.133635 -0.04749998
	vertex -0.002999997 -0.133635 0.106546
endloop
endfacet
facet normal -1 -2.980232E-08 0
outer loop
	vertex -0.002999997 -0.1116374 -0.02999979
	vertex -0.002999997 -0.1076374 -0.02999979
	vertex -0.003000005 0.133635 -0.04749998
endloop
endfacet
facet normal -1 -2.980232E-08 0
outer loop
	vertex -0.002999997 -0.1076374 -0.02999979
	vertex -0.002999997 -0.1065183 -0.0298725
	vertex -0.003000005 0.133635 -0.04749998
endloop
endfacet
facet normal -1 -2.980232E-08 0
outer loop
	vertex -0.002999997 -0.1065183 -0.0298725
	vertex -0.002999997 -0.1054693 -0.02950406
	vertex -0.003000005 0.133635 -0.04749998
endloop
endfacet
facet normal -1 -2.980232E-08 0
outer loop
	vertex -0.002999997 -0.1054693 -0.02950406
	vertex -0.002999997 -0.1045219 -0.02891015
	vertex -0.003000005 0.133635 -0.04749998
endloop
endfacet
facet normal -1 -2.980232E-08 0
outer loop
	vertex -0.002999997 -0.1045219 -0.02891015
	vertex -0.002999997 -0.103727 -0.02811531
	vertex -0.003000005 0.133635 -0.04749998
endloop
endfacet
facet normal -1 -2.980232E-08 0
outer loop
	vertex -0.002999997 -0.103727 -0.02811531
	vertex -0.002999997 -0.1031331 -0.02716792
	vertex -0.003000005 0.133635 -0.04749998
endloop
endfacet
facet normal -1 -2.980232E-08 0
outer loop
	vertex -0.002999997 -0.1031331 -0.02716792
	vertex -0.002999997 -0.1031331 0.02716833
	vertex -0.003000005 0.133635 -0.04749998
endloop
endfacet
facet normal -1 -2.980232E-08 0
outer loop
	vertex -0.002999997 -0.1031331 0.02716833
	vertex -0.002999997 -0.103727 0.02811571
	vertex -0.003000005 0.133635 -0.04749998
endloop
endfacet
facet normal -1 -2.980232E-08 0
outer loop
	vertex -0.002999997 -0.103727 0.02811571
	vertex -0.002999997 -0.1045218 0.02891056
	vertex -0.003000005 0.133635 -0.04749998
endloop
endfacet
facet normal -1 -2.980232E-08 0
outer loop
	vertex -0.002999997 -0.1045218 0.02891056
	vertex -0.002999997 -0.1054692 0.02950447
	vertex -0.003000005 0.133635 -0.04749998
endloop
endfacet
facet normal -1 -2.980232E-08 0
outer loop
	vertex -0.002999997 -0.1054692 0.02950447
	vertex -0.002999997 -0.1065183 0.02987291
	vertex -0.003000005 0.133635 -0.04749998
endloop
endfacet
facet normal -1 -2.980232E-08 0
outer loop
	vertex -0.003000005 0.133635 -0.04749998
	vertex -0.002999997 -0.1065183 0.02987291
	vertex -0.002999997 -0.133635 0.106546
endloop
endfacet
facet normal -1 -2.980232E-08 0
outer loop
	vertex -0.002999997 -0.1065183 0.02987291
	vertex -0.002999997 -0.1127564 0.02987291
	vertex -0.002999997 -0.133635 0.106546
endloop
endfacet
facet normal -1 -2.980232E-08 0
outer loop
	vertex -0.002999997 -0.1127564 0.02987291
	vertex -0.002999997 -0.1138054 0.02950448
	vertex -0.002999997 -0.133635 0.106546
endloop
endfacet
facet normal -1 -2.980232E-08 0
outer loop
	vertex -0.002999997 -0.1138054 0.02950448
	vertex -0.002999997 -0.1147528 0.02891057
	vertex -0.002999997 -0.133635 0.106546
endloop
endfacet
facet normal -1 -2.980232E-08 0
outer loop
	vertex -0.002999997 -0.1147528 0.02891057
	vertex -0.002999997 -0.1155477 0.02811573
	vertex -0.002999997 -0.133635 0.106546
endloop
endfacet
facet normal -1 -2.980232E-08 0
outer loop
	vertex -0.002999997 -0.1155477 0.02811573
	vertex -0.002999997 -0.1161416 0.02716834
	vertex -0.002999997 -0.133635 0.106546
endloop
endfacet
facet normal -1 -2.980232E-08 0
outer loop
	vertex -0.002999997 -0.1161416 0.02716834
	vertex -0.002999997 -0.11651 0.02611928
	vertex -0.002999997 -0.133635 0.106546
endloop
endfacet
facet normal -1 -2.980232E-08 0
outer loop
	vertex -0.002999997 -0.11651 0.02611928
	vertex -0.002999997 -0.1166373 0.02500022
	vertex -0.002999997 -0.133635 0.106546
endloop
endfacet
facet normal -1 -2.980232E-08 0
outer loop
	vertex -0.002999997 -0.1166373 0.02500022
	vertex -0.002999997 -0.1166373 0.008500215
	vertex -0.002999997 -0.133635 0.106546
endloop
endfacet
facet normal -1 -2.980232E-08 0
outer loop
	vertex -0.002999997 -0.133635 0.106546
	vertex -0.002999997 -0.1166373 0.008500215
	vertex -0.002999997 -0.133635 0.008347318
endloop
endfacet
facet normal -1 -2.980232E-08 0
outer loop
	vertex -0.002999997 -0.1166373 0.008500215
	vertex -0.002999997 -0.1167646 0.00738115
	vertex -0.002999997 -0.133635 0.008347318
endloop
endfacet
facet normal -1 -2.980232E-08 0
outer loop
	vertex -0.002999997 -0.133635 0.008347318
	vertex -0.002999997 -0.1167646 0.00738115
	vertex -0.002999997 -0.1334804 0.00725805
endloop
endfacet
facet normal -1 -2.980232E-08 0
outer loop
	vertex -0.002999997 -0.1167646 0.00738115
	vertex -0.002999997 -0.1171331 0.006332091
	vertex -0.002999997 -0.1334804 0.00725805
endloop
endfacet
facet normal -1 -2.980232E-08 0
outer loop
	vertex -0.002999997 -0.1334804 0.00725805
	vertex -0.002999997 -0.1171331 0.006332091
	vertex -0.002999997 -0.1330952 0.006238421
endloop
endfacet
facet normal -1 -2.980232E-08 0
outer loop
	vertex -0.002999997 -0.1171331 0.006332091
	vertex -0.002999997 -0.117727 0.005384707
	vertex -0.002999997 -0.1330952 0.006238421
endloop
endfacet
facet normal -1 -2.980232E-08 0
outer loop
	vertex -0.002999997 -0.1330952 0.006238421
	vertex -0.002999997 -0.117727 0.005384707
	vertex -0.002999997 -0.1324948 0.005319462
endloop
endfacet
facet normal -1 -2.980232E-08 0
outer loop
	vertex -0.002999997 -0.117727 0.005384707
	vertex -0.002999997 -0.1185218 0.004589858
	vertex -0.002999997 -0.1324948 0.005319462
endloop
endfacet
facet normal -1 -2.980232E-08 0
outer loop
	vertex -0.002999997 -0.1324948 0.005319462
	vertex -0.002999997 -0.1185218 0.004589858
	vertex -0.002999997 -0.1317036 0.004551074
endloop
endfacet
facet normal -1 -2.980232E-08 0
outer loop
	vertex -0.002999997 -0.1185218 0.004589858
	vertex -0.002999997 -0.1194692 0.003995956
	vertex -0.002999997 -0.1317036 0.004551074
endloop
endfacet
facet normal -1 -2.980232E-08 0
outer loop
	vertex -0.002999997 -0.1317036 0.004551074
	vertex -0.002999997 -0.1194692 0.003995956
	vertex -0.002999997 -0.1307678 0.003977922
endloop
endfacet
endsolid _f_stack
