solid _f_poll
facet normal -1 0 -1.192093E-07
outer loop
	vertex -0.1016 -0.000349125 -0.005989841
	vertex -0.1016 -0.001042124 -0.005908764
	vertex -0.1016 0.000349125 -0.005989841
endloop
endfacet
facet normal -1 0 -1.192093E-07
outer loop
	vertex -0.1016 0.000349125 -0.005989841
	vertex -0.1016 -0.001042124 -0.005908764
	vertex -0.1016 0.001042124 -0.005908764
endloop
endfacet
facet normal -1 0 -1.192093E-07
outer loop
	vertex -0.1016 -0.001042124 -0.005908764
	vertex -0.1016 -0.001720712 -0.005747913
	vertex -0.1016 0.001042124 -0.005908764
endloop
endfacet
facet normal -1 0 -1.192093E-07
outer loop
	vertex -0.1016 0.001042124 -0.005908764
	vertex -0.1016 -0.001720712 -0.005747913
	vertex -0.1016 0.001720712 -0.005747913
endloop
endfacet
facet normal -1 0 -1.192093E-07
outer loop
	vertex -0.1016 -0.001720712 -0.005747913
	vertex -0.1016 -0.00237617 -0.005509405
	vertex -0.1016 0.001720712 -0.005747913
endloop
endfacet
facet normal -1 0 -1.192093E-07
outer loop
	vertex -0.1016 0.001720712 -0.005747913
	vertex -0.1016 -0.00237617 -0.005509405
	vertex -0.1016 0.00237617 -0.005509405
endloop
endfacet
facet normal -1 0 -1.192093E-07
outer loop
	vertex -0.1016 -0.00237617 -0.005509405
	vertex -0.1016 -0.003 -0.005196168
	vertex -0.1016 0.00237617 -0.005509405
endloop
endfacet
facet normal -1 0 -1.192093E-07
outer loop
	vertex -0.1016 0.00237617 -0.005509405
	vertex -0.1016 -0.003 -0.005196168
	vertex -0.1016 0.003 -0.005196168
endloop
endfacet
facet normal -1 0 -1.192093E-07
outer loop
	vertex -0.1016 -0.003 -0.005196168
	vertex -0.1016 -0.00358319 -0.004812538
	vertex -0.1016 0.003 -0.005196168
endloop
endfacet
facet normal -1 0 -1.192093E-07
outer loop
	vertex -0.1016 0.003 -0.005196168
	vertex -0.1016 -0.00358319 -0.004812538
	vertex -0.1016 0.00358319 -0.004812538
endloop
endfacet
facet normal -1 0 -1.192093E-07
outer loop
	vertex -0.1016 -0.00358319 -0.004812538
	vertex -0.1016 -0.00411747 -0.004364147
	vertex -0.1016 0.00358319 -0.004812538
endloop
endfacet
facet normal -1 0 -1.192093E-07
outer loop
	vertex -0.1016 0.00358319 -0.004812538
	vertex -0.1016 -0.00411747 -0.004364147
	vertex -0.1016 0.00411747 -0.004364147
endloop
endfacet
facet normal -1 0 -1.192093E-07
outer loop
	vertex -0.1016 -0.00411747 -0.004364147
	vertex -0.1016 -0.004596064 -0.003856896
	vertex -0.1016 0.00411747 -0.004364147
endloop
endfacet
facet normal -1 0 -1.192093E-07
outer loop
	vertex -0.1016 0.00411747 -0.004364147
	vertex -0.1016 -0.004596064 -0.003856896
	vertex -0.1016 0.004596064 -0.003856896
endloop
endfacet
facet normal -1 0 -1.192093E-07
outer loop
	vertex -0.1016 -0.004596064 -0.003856896
	vertex -0.1016 -0.005012776 -0.003297276
	vertex -0.1016 0.004596064 -0.003856896
endloop
endfacet
facet normal -1 0 -1.192093E-07
outer loop
	vertex -0.1016 0.004596064 -0.003856896
	vertex -0.1016 -0.005012776 -0.003297276
	vertex -0.1016 0.005012776 -0.003297276
endloop
endfacet
facet normal -1 0 -1.192093E-07
outer loop
	vertex -0.1016 -0.005012776 -0.003297276
	vertex -0.1016 -0.005361902 -0.002692572
	vertex -0.1016 0.005012776 -0.003297276
endloop
endfacet
facet normal -1 0 -1.192093E-07
outer loop
	vertex -0.1016 0.005012776 -0.003297276
	vertex -0.1016 -0.005361902 -0.002692572
	vertex -0.1016 0.005361902 -0.002692572
endloop
endfacet
facet normal -1 0 -1.192093E-07
outer loop
	vertex -0.1016 -0.005361902 -0.002692572
	vertex -0.1016 -0.005638189 -0.002051882
	vertex -0.1016 0.005361902 -0.002692572
endloop
endfacet
facet normal -1 0 -1.192093E-07
outer loop
	vertex -0.1016 0.005361902 -0.002692572
	vertex -0.1016 -0.005638189 -0.002051882
	vertex -0.1016 0.005638189 -0.002051882
endloop
endfacet
facet normal -1 0 -1.192093E-07
outer loop
	vertex -0.1016 -0.005638189 -0.002051882
	vertex -0.1016 -0.005838181 -0.001383781
	vertex -0.1016 0.005638189 -0.002051882
endloop
endfacet
facet normal -1 0 -1.192093E-07
outer loop
	vertex -0.1016 0.005638189 -0.002051882
	vertex -0.1016 -0.005838181 -0.001383781
	vertex -0.1016 0.005838181 -0.001383781
endloop
endfacet
facet normal -1 0 -1.192093E-07
outer loop
	vertex -0.1016 -0.005838181 -0.001383781
	vertex -0.1016 -0.005959331 -0.0006972691
	vertex -0.1016 0.005838181 -0.001383781
endloop
endfacet
facet normal -1 0 -1.192093E-07
outer loop
	vertex -0.1016 0.005838181 -0.001383781
	vertex -0.1016 -0.005959331 -0.0006972691
	vertex -0.1016 0.005959331 -0.0006972691
endloop
endfacet
facet normal -1 0 -1.192093E-07
outer loop
	vertex -0.1016 -0.005959331 -0.0006972691
	vertex -0.1016 -0.006 -1.396984E-08
	vertex -0.1016 0.005959331 -0.0006972691
endloop
endfacet
facet normal -1 0 -1.192093E-07
outer loop
	vertex -0.1016 -0.006 -1.396984E-08
	vertex -0.1016 0.006 -1.396984E-08
	vertex -0.1016 0.005959331 -0.0006972691
endloop
endfacet
facet normal -1 0 -1.192093E-07
outer loop
	vertex -0.1016 -0.005959331 0.0006972412
	vertex -0.1016 0.006 -1.396984E-08
	vertex -0.1016 -0.006 -1.396984E-08
endloop
endfacet
facet normal -1 0 -1.192093E-07
outer loop
	vertex -0.1016 0.005959331 0.0006972412
	vertex -0.1016 0.006 -1.396984E-08
	vertex -0.1016 -0.005959331 0.0006972412
endloop
endfacet
facet normal -1 0 -1.192093E-07
outer loop
	vertex -0.1016 -0.005838181 0.001383753
	vertex -0.1016 0.005959331 0.0006972412
	vertex -0.1016 -0.005959331 0.0006972412
endloop
endfacet
facet normal -1 0 -1.192093E-07
outer loop
	vertex -0.1016 0.005838181 0.001383753
	vertex -0.1016 0.005959331 0.0006972412
	vertex -0.1016 -0.005838181 0.001383753
endloop
endfacet
facet normal -1 0 -1.192093E-07
outer loop
	vertex -0.1016 -0.005638189 0.002051854
	vertex -0.1016 0.005838181 0.001383753
	vertex -0.1016 -0.005838181 0.001383753
endloop
endfacet
facet normal -1 0 -1.192093E-07
outer loop
	vertex -0.1016 0.005638189 0.002051854
	vertex -0.1016 0.005838181 0.001383753
	vertex -0.1016 -0.005638189 0.002051854
endloop
endfacet
facet normal -1 0 -1.192093E-07
outer loop
	vertex -0.1016 -0.005361902 0.002692544
	vertex -0.1016 0.005638189 0.002051854
	vertex -0.1016 -0.005638189 0.002051854
endloop
endfacet
facet normal -1 0 -1.192093E-07
outer loop
	vertex -0.1016 0.005361902 0.002692544
	vertex -0.1016 0.005638189 0.002051854
	vertex -0.1016 -0.005361902 0.002692544
endloop
endfacet
facet normal -1 0 -1.192093E-07
outer loop
	vertex -0.1016 -0.005012776 0.003297248
	vertex -0.1016 0.005361902 0.002692544
	vertex -0.1016 -0.005361902 0.002692544
endloop
endfacet
facet normal -1 0 -1.192093E-07
outer loop
	vertex -0.1016 0.005012776 0.003297248
	vertex -0.1016 0.005361902 0.002692544
	vertex -0.1016 -0.005012776 0.003297248
endloop
endfacet
facet normal -1 0 -1.192093E-07
outer loop
	vertex -0.1016 -0.004596064 0.003856868
	vertex -0.1016 0.005012776 0.003297248
	vertex -0.1016 -0.005012776 0.003297248
endloop
endfacet
facet normal -1 0 -1.192093E-07
outer loop
	vertex -0.1016 0.004596064 0.003856868
	vertex -0.1016 0.005012776 0.003297248
	vertex -0.1016 -0.004596064 0.003856868
endloop
endfacet
facet normal -1 0 -1.192093E-07
outer loop
	vertex -0.1016 -0.00411747 0.004364111
	vertex -0.1016 0.004596064 0.003856868
	vertex -0.1016 -0.004596064 0.003856868
endloop
endfacet
facet normal -1 0 -1.192093E-07
outer loop
	vertex -0.1016 0.00411747 0.004364111
	vertex -0.1016 0.004596064 0.003856868
	vertex -0.1016 -0.00411747 0.004364111
endloop
endfacet
facet normal -1 0 -1.192093E-07
outer loop
	vertex -0.1016 -0.00358319 0.004812502
	vertex -0.1016 0.00411747 0.004364111
	vertex -0.1016 -0.00411747 0.004364111
endloop
endfacet
facet normal -1 0 -1.192093E-07
outer loop
	vertex -0.1016 0.00358319 0.004812502
	vertex -0.1016 0.00411747 0.004364111
	vertex -0.1016 -0.00358319 0.004812502
endloop
endfacet
facet normal -1 0 -1.192093E-07
outer loop
	vertex -0.1016 -0.003 0.00519614
	vertex -0.1016 0.00358319 0.004812502
	vertex -0.1016 -0.00358319 0.004812502
endloop
endfacet
facet normal -1 0 -1.192093E-07
outer loop
	vertex -0.1016 0.003 0.00519614
	vertex -0.1016 0.00358319 0.004812502
	vertex -0.1016 -0.003 0.00519614
endloop
endfacet
facet normal -1 0 -1.192093E-07
outer loop
	vertex -0.1016 -0.00237617 0.005509377
	vertex -0.1016 0.003 0.00519614
	vertex -0.1016 -0.003 0.00519614
endloop
endfacet
facet normal -1 0 -1.192093E-07
outer loop
	vertex -0.1016 0.00237617 0.005509377
	vertex -0.1016 0.003 0.00519614
	vertex -0.1016 -0.00237617 0.005509377
endloop
endfacet
facet normal -1 0 -1.192093E-07
outer loop
	vertex -0.1016 -0.001720712 0.005747885
	vertex -0.1016 0.00237617 0.005509377
	vertex -0.1016 -0.00237617 0.005509377
endloop
endfacet
facet normal -1 0 -1.192093E-07
outer loop
	vertex -0.1016 0.001720712 0.005747885
	vertex -0.1016 0.00237617 0.005509377
	vertex -0.1016 -0.001720712 0.005747885
endloop
endfacet
facet normal -1 0 -1.192093E-07
outer loop
	vertex -0.1016 -0.001042124 0.005908736
	vertex -0.1016 0.001720712 0.005747885
	vertex -0.1016 -0.001720712 0.005747885
endloop
endfacet
facet normal -1 0 -1.192093E-07
outer loop
	vertex -0.1016 0.001042124 0.005908736
	vertex -0.1016 0.001720712 0.005747885
	vertex -0.1016 -0.001042124 0.005908736
endloop
endfacet
facet normal -1 0 -1.192093E-07
outer loop
	vertex -0.1016 -0.000349125 0.005989806
	vertex -0.1016 0.001042124 0.005908736
	vertex -0.1016 -0.001042124 0.005908736
endloop
endfacet
facet normal -1 0 -1.192093E-07
outer loop
	vertex -0.1016 0.000349125 0.005989806
	vertex -0.1016 0.001042124 0.005908736
	vertex -0.1016 -0.000349125 0.005989806
endloop
endfacet
facet normal -7.947286E-08 0.6565813 0.7522624
outer loop
	vertex 0.1016 0.00411747 0.004364141
	vertex -0.1016 0.00411747 0.004364111
	vertex -0.1016 0.00358319 0.004812502
endloop
endfacet
facet normal -9.934107E-08 0.6269019 0.777169
outer loop
	vertex 0.1016 0.00358319 0.004812532
	vertex 0.1016 0.00411747 0.004364141
	vertex -0.1016 0.00358319 0.004812502
endloop
endfacet
facet normal -1.192093E-07 0.5648152 0.8233922
outer loop
	vertex 0.1016 0.00358319 0.004812532
	vertex -0.1016 0.00358319 0.004812502
	vertex -0.1016 0.003 0.00519614
endloop
endfacet
facet normal -1.192093E-07 0.5324076 0.8447089
outer loop
	vertex 0.1016 0.003 0.00519617
	vertex 0.1016 0.00358319 0.004812532
	vertex -0.1016 0.003 0.00519614
endloop
endfacet
facet normal -1.192093E-07 0.4653356 0.8834329
outer loop
	vertex 0.1016 0.003 0.00519617
	vertex -0.1016 0.003 0.00519614
	vertex -0.1016 0.00237617 0.005509377
endloop
endfacet
facet normal -1.192093E-07 0.4306711 0.9008403
outer loop
	vertex 0.1016 0.00237617 0.005509407
	vertex 0.1016 0.003 0.00519617
	vertex -0.1016 0.00237617 0.005509377
endloop
endfacet
facet normal -1.192093E-07 0.3595969 0.9314976
outer loop
	vertex 0.1016 0.00237617 0.005509407
	vertex -0.1016 0.00237617 0.005509377
	vertex -0.1016 0.001720712 0.005747885
endloop
endfacet
facet normal -1.192093E-07 0.3231873 0.9447474
outer loop
	vertex 0.1016 0.001720712 0.005747915
	vertex 0.1016 0.00237617 0.005509407
	vertex -0.1016 0.001720712 0.005747885
endloop
endfacet
facet normal -1.192093E-07 0.2490906 0.9669301
outer loop
	vertex 0.1016 0.001720712 0.005747915
	vertex -0.1016 0.001720712 0.005747885
	vertex -0.1016 0.001042124 0.005908736
endloop
endfacet
facet normal -1.192093E-07 0.2114033 0.975863
outer loop
	vertex 0.1016 0.001042124 0.005908766
	vertex 0.1016 0.001720712 0.005747915
	vertex -0.1016 0.001042124 0.005908736
endloop
endfacet
facet normal -1.192093E-07 0.1352101 0.989299
outer loop
	vertex 0.1016 0.001042124 0.005908766
	vertex -0.1016 0.001042124 0.005908736
	vertex -0.1016 0.000349125 0.005989806
endloop
endfacet
facet normal -1.192093E-07 0.09670378 0.9938021
outer loop
	vertex 0.1016 0.000349125 0.005989836
	vertex 0.1016 0.001042124 0.005908766
	vertex -0.1016 0.000349125 0.005989806
endloop
endfacet
facet normal -1.192093E-07 0.01939936 0.9983052
outer loop
	vertex 0.1016 0.000349125 0.005989836
	vertex -0.1016 0.000349125 0.005989806
	vertex -0.1016 -0.000349125 0.005989806
endloop
endfacet
facet normal -1.192093E-07 -0.01939937 0.9983052
outer loop
	vertex 0.1016 -0.000349125 0.005989836
	vertex 0.1016 0.000349125 0.005989836
	vertex -0.1016 -0.000349125 0.005989806
endloop
endfacet
facet normal -1.192093E-07 -0.09670378 0.9938021
outer loop
	vertex 0.1016 -0.000349125 0.005989836
	vertex -0.1016 -0.000349125 0.005989806
	vertex -0.1016 -0.001042124 0.005908736
endloop
endfacet
facet normal -1.192093E-07 -0.1352101 0.989299
outer loop
	vertex 0.1016 -0.001042124 0.005908766
	vertex 0.1016 -0.000349125 0.005989836
	vertex -0.1016 -0.001042124 0.005908736
endloop
endfacet
facet normal -1.192093E-07 -0.2114033 0.975863
outer loop
	vertex 0.1016 -0.001042124 0.005908766
	vertex -0.1016 -0.001042124 0.005908736
	vertex -0.1016 -0.001720712 0.005747885
endloop
endfacet
facet normal -1.192093E-07 -0.2490906 0.9669302
outer loop
	vertex 0.1016 -0.001720712 0.005747915
	vertex 0.1016 -0.001042124 0.005908766
	vertex -0.1016 -0.001720712 0.005747885
endloop
endfacet
facet normal -1.192093E-07 -0.3231873 0.9447474
outer loop
	vertex 0.1016 -0.001720712 0.005747915
	vertex -0.1016 -0.001720712 0.005747885
	vertex -0.1016 -0.00237617 0.005509377
endloop
endfacet
facet normal -1.192093E-07 -0.3595969 0.9314976
outer loop
	vertex 0.1016 -0.00237617 0.005509407
	vertex 0.1016 -0.001720712 0.005747915
	vertex -0.1016 -0.00237617 0.005509377
endloop
endfacet
facet normal -1.192093E-07 -0.4306711 0.9008403
outer loop
	vertex 0.1016 -0.00237617 0.005509407
	vertex -0.1016 -0.00237617 0.005509377
	vertex -0.1016 -0.003 0.00519614
endloop
endfacet
facet normal -1.192093E-07 -0.4653356 0.8834329
outer loop
	vertex 0.1016 -0.003 0.00519617
	vertex 0.1016 -0.00237617 0.005509407
	vertex -0.1016 -0.003 0.00519614
endloop
endfacet
facet normal -1.192093E-07 -0.5324076 0.8447089
outer loop
	vertex 0.1016 -0.003 0.00519617
	vertex -0.1016 -0.003 0.00519614
	vertex -0.1016 -0.00358319 0.004812502
endloop
endfacet
facet normal -1.192093E-07 -0.5648151 0.8233923
outer loop
	vertex 0.1016 -0.00358319 0.004812532
	vertex 0.1016 -0.003 0.00519617
	vertex -0.1016 -0.00358319 0.004812502
endloop
endfacet
facet normal -9.934107E-08 -0.6269019 0.7771691
outer loop
	vertex 0.1016 -0.00358319 0.004812532
	vertex -0.1016 -0.00358319 0.004812502
	vertex -0.1016 -0.00411747 0.004364111
endloop
endfacet
facet normal -7.947286E-08 -0.6565813 0.7522624
outer loop
	vertex 0.1016 -0.00411747 0.004364141
	vertex 0.1016 -0.00358319 0.004812532
	vertex -0.1016 -0.00411747 0.004364111
endloop
endfacet
facet normal -5.960464E-08 -0.7128405 0.699184
outer loop
	vertex 0.1016 -0.00411747 0.004364141
	vertex -0.1016 -0.00411747 0.004364111
	vertex -0.1016 -0.004596064 0.003856868
endloop
endfacet
facet normal -5.960464E-08 -0.7394204 0.6710121
outer loop
	vertex 0.1016 -0.004596064 0.003856898
	vertex 0.1016 -0.00411747 0.004364141
	vertex -0.1016 -0.004596064 0.003856868
endloop
endfacet
facet normal -5.960464E-08 -0.789153 0.6117447
outer loop
	vertex 0.1016 -0.004596064 0.003856898
	vertex -0.1016 -0.004596064 0.003856868
	vertex -0.1016 -0.005012776 0.003297248
endloop
endfacet
facet normal -5.960464E-08 -0.8123059 0.580649
outer loop
	vertex 0.1016 -0.005012776 0.003297278
	vertex 0.1016 -0.004596064 0.003856898
	vertex -0.1016 -0.005012776 0.003297248
endloop
endfacet
facet normal -5.960464E-08 -0.8548578 0.515953
outer loop
	vertex 0.1016 -0.005012776 0.003297278
	vertex -0.1016 -0.005012776 0.003297248
	vertex -0.1016 -0.005361902 0.002692544
endloop
endfacet
facet normal -5.960464E-08 -0.874257 0.4823526
outer loop
	vertex 0.1016 -0.005361902 0.002692574
	vertex 0.1016 -0.005012776 0.003297278
	vertex -0.1016 -0.005361902 0.002692544
endloop
endfacet
facet normal -4.967054E-08 -0.9090095 0.4131533
outer loop
	vertex 0.1016 -0.005361902 0.002692574
	vertex -0.1016 -0.005361902 0.002692544
	vertex -0.1016 -0.005638189 0.002051854
endloop
endfacet
facet normal -3.973643E-08 -0.9243629 0.3775542
outer loop
	vertex 0.1016 -0.005638189 0.002051883
	vertex 0.1016 -0.005361902 0.002692574
	vertex -0.1016 -0.005638189 0.002051854
endloop
endfacet
facet normal -2.980232E-08 -0.9508216 0.3048596
outer loop
	vertex 0.1016 -0.005638189 0.002051883
	vertex -0.1016 -0.005638189 0.002051854
	vertex -0.1016 -0.005838181 0.001383753
endloop
endfacet
facet normal -2.980232E-08 -0.9619271 0.2677638
outer loop
	vertex 0.1016 -0.005838181 0.001383782
	vertex 0.1016 -0.005638189 0.002051883
	vertex -0.1016 -0.005838181 0.001383753
endloop
endfacet
facet normal -2.483527E-08 -0.9797634 0.1925135
outer loop
	vertex 0.1016 -0.005838181 0.001383782
	vertex -0.1016 -0.005838181 0.001383753
	vertex -0.1016 -0.005959331 0.0006972412
endloop
endfacet
facet normal -1.986822E-08 -0.9864944 0.1543586
outer loop
	vertex 0.1016 -0.005959331 0.000697271
	vertex 0.1016 -0.005838181 0.001383782
	vertex -0.1016 -0.005959331 0.0006972412
endloop
endfacet
facet normal -9.934108E-09 -0.9954836 0.07746931
outer loop
	vertex 0.1016 -0.005959331 0.000697271
	vertex -0.1016 -0.005959331 0.0006972412
	vertex -0.1016 -0.006 -1.396984E-08
endloop
endfacet
facet normal -4.967054E-09 -0.9977418 0.03873454
outer loop
	vertex 0.1016 -0.006 1.583248E-08
	vertex 0.1016 -0.005959331 0.000697271
	vertex -0.1016 -0.006 -1.396984E-08
endloop
endfacet
facet normal 4.967054E-09 -0.9977418 -0.03873454
outer loop
	vertex 0.1016 -0.006 1.583248E-08
	vertex -0.1016 -0.006 -1.396984E-08
	vertex -0.1016 -0.005959331 -0.0006972691
endloop
endfacet
facet normal 9.934108E-09 -0.9954836 -0.07746931
outer loop
	vertex 0.1016 -0.005959331 -0.0006972393
	vertex 0.1016 -0.006 1.583248E-08
	vertex -0.1016 -0.005959331 -0.0006972691
endloop
endfacet
facet normal 1.986822E-08 -0.9864944 -0.1543586
outer loop
	vertex 0.1016 -0.005959331 -0.0006972393
	vertex -0.1016 -0.005959331 -0.0006972691
	vertex -0.1016 -0.005838181 -0.001383781
endloop
endfacet
facet normal 2.483527E-08 -0.9797634 -0.1925136
outer loop
	vertex 0.1016 -0.005838181 -0.001383751
	vertex 0.1016 -0.005959331 -0.0006972393
	vertex -0.1016 -0.005838181 -0.001383781
endloop
endfacet
facet normal 2.980232E-08 -0.961927 -0.2677639
outer loop
	vertex 0.1016 -0.005838181 -0.001383751
	vertex -0.1016 -0.005838181 -0.001383781
	vertex -0.1016 -0.005638189 -0.002051882
endloop
endfacet
facet normal 2.980232E-08 -0.9508216 -0.3048597
outer loop
	vertex 0.1016 -0.005638189 -0.002051852
	vertex 0.1016 -0.005838181 -0.001383751
	vertex -0.1016 -0.005638189 -0.002051882
endloop
endfacet
facet normal 3.973643E-08 -0.9243628 -0.3775543
outer loop
	vertex 0.1016 -0.005638189 -0.002051852
	vertex -0.1016 -0.005638189 -0.002051882
	vertex -0.1016 -0.005361902 -0.002692572
endloop
endfacet
facet normal 4.967054E-08 -0.9090095 -0.4131534
outer loop
	vertex 0.1016 -0.005361902 -0.002692542
	vertex 0.1016 -0.005638189 -0.002051852
	vertex -0.1016 -0.005361902 -0.002692572
endloop
endfacet
facet normal 5.960464E-08 -0.874257 -0.4823526
outer loop
	vertex 0.1016 -0.005361902 -0.002692542
	vertex -0.1016 -0.005361902 -0.002692572
	vertex -0.1016 -0.005012776 -0.003297276
endloop
endfacet
facet normal 5.960464E-08 -0.8548578 -0.515953
outer loop
	vertex 0.1016 -0.005012776 -0.003297246
	vertex 0.1016 -0.005361902 -0.002692542
	vertex -0.1016 -0.005012776 -0.003297276
endloop
endfacet
facet normal 5.960464E-08 -0.8123059 -0.5806489
outer loop
	vertex 0.1016 -0.005012776 -0.003297246
	vertex -0.1016 -0.005012776 -0.003297276
	vertex -0.1016 -0.004596064 -0.003856896
endloop
endfacet
facet normal 5.960464E-08 -0.7891532 -0.6117446
outer loop
	vertex 0.1016 -0.004596064 -0.003856867
	vertex 0.1016 -0.005012776 -0.003297246
	vertex -0.1016 -0.004596064 -0.003856896
endloop
endfacet
facet normal 5.960464E-08 -0.7394206 -0.6710119
outer loop
	vertex 0.1016 -0.004596064 -0.003856867
	vertex -0.1016 -0.004596064 -0.003856896
	vertex -0.1016 -0.00411747 -0.004364147
endloop
endfacet
facet normal 5.960464E-08 -0.7128406 -0.6991838
outer loop
	vertex 0.1016 -0.00411747 -0.004364117
	vertex 0.1016 -0.004596064 -0.003856867
	vertex -0.1016 -0.00411747 -0.004364147
endloop
endfacet
facet normal 1 0 1.192093E-07
outer loop
	vertex 0.1016 -0.000349125 0.005989836
	vertex 0.1016 -0.001042124 0.005908766
	vertex 0.1016 0.000349125 0.005989836
endloop
endfacet
facet normal 1 0 1.192093E-07
outer loop
	vertex 0.1016 0.000349125 0.005989836
	vertex 0.1016 -0.001042124 0.005908766
	vertex 0.1016 0.001042124 0.005908766
endloop
endfacet
facet normal 1 0 1.192093E-07
outer loop
	vertex 0.1016 -0.001042124 0.005908766
	vertex 0.1016 -0.001720712 0.005747915
	vertex 0.1016 0.001042124 0.005908766
endloop
endfacet
facet normal 1 0 1.192093E-07
outer loop
	vertex 0.1016 0.001042124 0.005908766
	vertex 0.1016 -0.001720712 0.005747915
	vertex 0.1016 0.001720712 0.005747915
endloop
endfacet
facet normal 1 0 1.192093E-07
outer loop
	vertex 0.1016 -0.001720712 0.005747915
	vertex 0.1016 -0.00237617 0.005509407
	vertex 0.1016 0.001720712 0.005747915
endloop
endfacet
facet normal 1 0 1.192093E-07
outer loop
	vertex 0.1016 0.001720712 0.005747915
	vertex 0.1016 -0.00237617 0.005509407
	vertex 0.1016 0.00237617 0.005509407
endloop
endfacet
facet normal 1 0 1.192093E-07
outer loop
	vertex 0.1016 -0.00237617 0.005509407
	vertex 0.1016 -0.003 0.00519617
	vertex 0.1016 0.00237617 0.005509407
endloop
endfacet
facet normal 1 0 1.192093E-07
outer loop
	vertex 0.1016 0.00237617 0.005509407
	vertex 0.1016 -0.003 0.00519617
	vertex 0.1016 0.003 0.00519617
endloop
endfacet
facet normal 1 0 1.192093E-07
outer loop
	vertex 0.1016 -0.003 0.00519617
	vertex 0.1016 -0.00358319 0.004812532
	vertex 0.1016 0.003 0.00519617
endloop
endfacet
facet normal 1 0 1.192093E-07
outer loop
	vertex 0.1016 0.003 0.00519617
	vertex 0.1016 -0.00358319 0.004812532
	vertex 0.1016 0.00358319 0.004812532
endloop
endfacet
facet normal 1 0 1.192093E-07
outer loop
	vertex 0.1016 -0.00358319 0.004812532
	vertex 0.1016 -0.00411747 0.004364141
	vertex 0.1016 0.00358319 0.004812532
endloop
endfacet
facet normal 1 0 1.192093E-07
outer loop
	vertex 0.1016 0.00358319 0.004812532
	vertex 0.1016 -0.00411747 0.004364141
	vertex 0.1016 0.00411747 0.004364141
endloop
endfacet
facet normal 1 0 1.192093E-07
outer loop
	vertex 0.1016 -0.00411747 0.004364141
	vertex 0.1016 -0.004596064 0.003856898
	vertex 0.1016 0.00411747 0.004364141
endloop
endfacet
facet normal 1 0 1.192093E-07
outer loop
	vertex 0.1016 0.00411747 0.004364141
	vertex 0.1016 -0.004596064 0.003856898
	vertex 0.1016 0.004596064 0.003856898
endloop
endfacet
facet normal 1 0 1.192093E-07
outer loop
	vertex 0.1016 -0.004596064 0.003856898
	vertex 0.1016 -0.005012776 0.003297278
	vertex 0.1016 0.004596064 0.003856898
endloop
endfacet
facet normal 1 0 1.192093E-07
outer loop
	vertex 0.1016 0.004596064 0.003856898
	vertex 0.1016 -0.005012776 0.003297278
	vertex 0.1016 0.005012776 0.003297278
endloop
endfacet
facet normal 1 0 1.192093E-07
outer loop
	vertex 0.1016 -0.005012776 0.003297278
	vertex 0.1016 -0.005361902 0.002692574
	vertex 0.1016 0.005012776 0.003297278
endloop
endfacet
facet normal 1 0 1.192093E-07
outer loop
	vertex 0.1016 0.005012776 0.003297278
	vertex 0.1016 -0.005361902 0.002692574
	vertex 0.1016 0.005361902 0.002692574
endloop
endfacet
facet normal 1 0 1.192093E-07
outer loop
	vertex 0.1016 -0.005361902 0.002692574
	vertex 0.1016 -0.005638189 0.002051883
	vertex 0.1016 0.005361902 0.002692574
endloop
endfacet
facet normal 1 0 1.192093E-07
outer loop
	vertex 0.1016 0.005361902 0.002692574
	vertex 0.1016 -0.005638189 0.002051883
	vertex 0.1016 0.005638189 0.002051883
endloop
endfacet
facet normal 1 0 1.192093E-07
outer loop
	vertex 0.1016 -0.005638189 0.002051883
	vertex 0.1016 -0.005838181 0.001383782
	vertex 0.1016 0.005638189 0.002051883
endloop
endfacet
facet normal 1 0 1.192093E-07
outer loop
	vertex 0.1016 0.005638189 0.002051883
	vertex 0.1016 -0.005838181 0.001383782
	vertex 0.1016 0.005838181 0.001383782
endloop
endfacet
facet normal 1 0 1.192093E-07
outer loop
	vertex 0.1016 -0.005838181 0.001383782
	vertex 0.1016 -0.005959331 0.000697271
	vertex 0.1016 0.005838181 0.001383782
endloop
endfacet
facet normal 1 0 1.192093E-07
outer loop
	vertex 0.1016 0.005838181 0.001383782
	vertex 0.1016 -0.005959331 0.000697271
	vertex 0.1016 0.005959331 0.000697271
endloop
endfacet
facet normal 1 0 1.192093E-07
outer loop
	vertex 0.1016 -0.005959331 0.000697271
	vertex 0.1016 -0.006 1.583248E-08
	vertex 0.1016 0.005959331 0.000697271
endloop
endfacet
facet normal 1 0 1.192093E-07
outer loop
	vertex 0.1016 -0.006 1.583248E-08
	vertex 0.1016 0.006 1.583248E-08
	vertex 0.1016 0.005959331 0.000697271
endloop
endfacet
facet normal 1 0 1.192093E-07
outer loop
	vertex 0.1016 -0.005959331 -0.0006972393
	vertex 0.1016 0.006 1.583248E-08
	vertex 0.1016 -0.006 1.583248E-08
endloop
endfacet
facet normal 1 0 1.192093E-07
outer loop
	vertex 0.1016 0.005959331 -0.0006972393
	vertex 0.1016 0.006 1.583248E-08
	vertex 0.1016 -0.005959331 -0.0006972393
endloop
endfacet
facet normal 1 0 1.192093E-07
outer loop
	vertex 0.1016 -0.005838181 -0.001383751
	vertex 0.1016 0.005959331 -0.0006972393
	vertex 0.1016 -0.005959331 -0.0006972393
endloop
endfacet
facet normal 1 0 1.192093E-07
outer loop
	vertex 0.1016 0.005838181 -0.001383751
	vertex 0.1016 0.005959331 -0.0006972393
	vertex 0.1016 -0.005838181 -0.001383751
endloop
endfacet
facet normal 1 0 1.192093E-07
outer loop
	vertex 0.1016 -0.005638189 -0.002051852
	vertex 0.1016 0.005838181 -0.001383751
	vertex 0.1016 -0.005838181 -0.001383751
endloop
endfacet
facet normal 1 0 1.192093E-07
outer loop
	vertex 0.1016 0.005638189 -0.002051852
	vertex 0.1016 0.005838181 -0.001383751
	vertex 0.1016 -0.005638189 -0.002051852
endloop
endfacet
facet normal 1 0 1.192093E-07
outer loop
	vertex 0.1016 -0.005361902 -0.002692542
	vertex 0.1016 0.005638189 -0.002051852
	vertex 0.1016 -0.005638189 -0.002051852
endloop
endfacet
facet normal 1 0 1.192093E-07
outer loop
	vertex 0.1016 0.005361902 -0.002692542
	vertex 0.1016 0.005638189 -0.002051852
	vertex 0.1016 -0.005361902 -0.002692542
endloop
endfacet
facet normal 1 0 1.192093E-07
outer loop
	vertex 0.1016 -0.005012776 -0.003297246
	vertex 0.1016 0.005361902 -0.002692542
	vertex 0.1016 -0.005361902 -0.002692542
endloop
endfacet
facet normal 1 0 1.192093E-07
outer loop
	vertex 0.1016 0.005012776 -0.003297246
	vertex 0.1016 0.005361902 -0.002692542
	vertex 0.1016 -0.005012776 -0.003297246
endloop
endfacet
facet normal 1 0 1.192093E-07
outer loop
	vertex 0.1016 -0.004596064 -0.003856867
	vertex 0.1016 0.005012776 -0.003297246
	vertex 0.1016 -0.005012776 -0.003297246
endloop
endfacet
facet normal 1 0 1.192093E-07
outer loop
	vertex 0.1016 0.004596064 -0.003856867
	vertex 0.1016 0.005012776 -0.003297246
	vertex 0.1016 -0.004596064 -0.003856867
endloop
endfacet
facet normal 1 0 1.192093E-07
outer loop
	vertex 0.1016 -0.00411747 -0.004364117
	vertex 0.1016 0.004596064 -0.003856867
	vertex 0.1016 -0.004596064 -0.003856867
endloop
endfacet
facet normal 1 0 1.192093E-07
outer loop
	vertex 0.1016 0.00411747 -0.004364117
	vertex 0.1016 0.004596064 -0.003856867
	vertex 0.1016 -0.00411747 -0.004364117
endloop
endfacet
facet normal 1 0 1.192093E-07
outer loop
	vertex 0.1016 -0.00358319 -0.004812508
	vertex 0.1016 0.00411747 -0.004364117
	vertex 0.1016 -0.00411747 -0.004364117
endloop
endfacet
facet normal 1 0 1.192093E-07
outer loop
	vertex 0.1016 0.00358319 -0.004812508
	vertex 0.1016 0.00411747 -0.004364117
	vertex 0.1016 -0.00358319 -0.004812508
endloop
endfacet
facet normal 1 0 1.192093E-07
outer loop
	vertex 0.1016 -0.003 -0.005196138
	vertex 0.1016 0.00358319 -0.004812508
	vertex 0.1016 -0.00358319 -0.004812508
endloop
endfacet
facet normal 1 0 1.192093E-07
outer loop
	vertex 0.1016 0.003 -0.005196138
	vertex 0.1016 0.00358319 -0.004812508
	vertex 0.1016 -0.003 -0.005196138
endloop
endfacet
facet normal 1 0 1.192093E-07
outer loop
	vertex 0.1016 -0.00237617 -0.005509376
	vertex 0.1016 0.003 -0.005196138
	vertex 0.1016 -0.003 -0.005196138
endloop
endfacet
facet normal 1 0 1.192093E-07
outer loop
	vertex 0.1016 0.00237617 -0.005509376
	vertex 0.1016 0.003 -0.005196138
	vertex 0.1016 -0.00237617 -0.005509376
endloop
endfacet
facet normal 1 0 1.192093E-07
outer loop
	vertex 0.1016 -0.001720712 -0.005747884
	vertex 0.1016 0.00237617 -0.005509376
	vertex 0.1016 -0.00237617 -0.005509376
endloop
endfacet
facet normal 1 0 1.192093E-07
outer loop
	vertex 0.1016 0.001720712 -0.005747884
	vertex 0.1016 0.00237617 -0.005509376
	vertex 0.1016 -0.001720712 -0.005747884
endloop
endfacet
facet normal 1 0 1.192093E-07
outer loop
	vertex 0.1016 -0.001042124 -0.005908734
	vertex 0.1016 0.001720712 -0.005747884
	vertex 0.1016 -0.001720712 -0.005747884
endloop
endfacet
facet normal 1 0 1.192093E-07
outer loop
	vertex 0.1016 0.001042124 -0.005908734
	vertex 0.1016 0.001720712 -0.005747884
	vertex 0.1016 -0.001042124 -0.005908734
endloop
endfacet
facet normal 1 0 1.192093E-07
outer loop
	vertex 0.1016 -0.000349125 -0.005989811
	vertex 0.1016 0.001042124 -0.005908734
	vertex 0.1016 -0.001042124 -0.005908734
endloop
endfacet
facet normal 1 0 1.192093E-07
outer loop
	vertex 0.1016 0.000349125 -0.005989811
	vertex 0.1016 0.001042124 -0.005908734
	vertex 0.1016 -0.000349125 -0.005989811
endloop
endfacet
facet normal -5.960464E-08 0.7128405 0.699184
outer loop
	vertex 0.1016 0.00411747 0.004364141
	vertex 0.1016 0.004596064 0.003856898
	vertex -0.1016 0.00411747 0.004364111
endloop
endfacet
facet normal -5.960464E-08 0.7394204 0.671012
outer loop
	vertex 0.1016 0.004596064 0.003856898
	vertex -0.1016 0.004596064 0.003856868
	vertex -0.1016 0.00411747 0.004364111
endloop
endfacet
facet normal -5.960464E-08 0.789153 0.6117446
outer loop
	vertex 0.1016 0.004596064 0.003856898
	vertex 0.1016 0.005012776 0.003297278
	vertex -0.1016 0.004596064 0.003856868
endloop
endfacet
facet normal -5.960464E-08 0.8123059 0.5806489
outer loop
	vertex 0.1016 0.005012776 0.003297278
	vertex -0.1016 0.005012776 0.003297248
	vertex -0.1016 0.004596064 0.003856868
endloop
endfacet
facet normal -5.960464E-08 0.8548578 0.515953
outer loop
	vertex 0.1016 0.005012776 0.003297278
	vertex 0.1016 0.005361902 0.002692574
	vertex -0.1016 0.005012776 0.003297248
endloop
endfacet
facet normal -5.960464E-08 0.874257 0.4823526
outer loop
	vertex 0.1016 0.005361902 0.002692574
	vertex -0.1016 0.005361902 0.002692544
	vertex -0.1016 0.005012776 0.003297248
endloop
endfacet
facet normal -4.967054E-08 0.9090095 0.4131533
outer loop
	vertex 0.1016 0.005361902 0.002692574
	vertex 0.1016 0.005638189 0.002051883
	vertex -0.1016 0.005361902 0.002692544
endloop
endfacet
facet normal -3.973643E-08 0.9243629 0.3775542
outer loop
	vertex 0.1016 0.005638189 0.002051883
	vertex -0.1016 0.005638189 0.002051854
	vertex -0.1016 0.005361902 0.002692544
endloop
endfacet
facet normal -2.980232E-08 0.9508216 0.3048596
outer loop
	vertex 0.1016 0.005638189 0.002051883
	vertex 0.1016 0.005838181 0.001383782
	vertex -0.1016 0.005638189 0.002051854
endloop
endfacet
facet normal -2.980232E-08 0.9619271 0.2677638
outer loop
	vertex 0.1016 0.005838181 0.001383782
	vertex -0.1016 0.005838181 0.001383753
	vertex -0.1016 0.005638189 0.002051854
endloop
endfacet
facet normal -2.483527E-08 0.9797634 0.1925135
outer loop
	vertex 0.1016 0.005838181 0.001383782
	vertex 0.1016 0.005959331 0.000697271
	vertex -0.1016 0.005838181 0.001383753
endloop
endfacet
facet normal -1.986822E-08 0.9864944 0.1543586
outer loop
	vertex 0.1016 0.005959331 0.000697271
	vertex -0.1016 0.005959331 0.0006972412
	vertex -0.1016 0.005838181 0.001383753
endloop
endfacet
facet normal -9.934108E-09 0.9954836 0.07746931
outer loop
	vertex 0.1016 0.005959331 0.000697271
	vertex 0.1016 0.006 1.583248E-08
	vertex -0.1016 0.005959331 0.0006972412
endloop
endfacet
facet normal -4.967054E-09 0.9977418 0.03873454
outer loop
	vertex 0.1016 0.006 1.583248E-08
	vertex -0.1016 0.006 -1.396984E-08
	vertex -0.1016 0.005959331 0.0006972412
endloop
endfacet
facet normal 4.967054E-09 0.9977418 -0.03873454
outer loop
	vertex 0.1016 0.006 1.583248E-08
	vertex 0.1016 0.005959331 -0.0006972393
	vertex -0.1016 0.006 -1.396984E-08
endloop
endfacet
facet normal 9.934108E-09 0.9954836 -0.07746931
outer loop
	vertex -0.1016 0.006 -1.396984E-08
	vertex 0.1016 0.005959331 -0.0006972393
	vertex -0.1016 0.005959331 -0.0006972691
endloop
endfacet
facet normal 1.986822E-08 0.9864944 -0.1543586
outer loop
	vertex 0.1016 0.005959331 -0.0006972393
	vertex 0.1016 0.005838181 -0.001383751
	vertex -0.1016 0.005959331 -0.0006972691
endloop
endfacet
facet normal 2.483527E-08 0.9797634 -0.1925136
outer loop
	vertex 0.1016 0.005838181 -0.001383751
	vertex -0.1016 0.005838181 -0.001383781
	vertex -0.1016 0.005959331 -0.0006972691
endloop
endfacet
facet normal 2.980232E-08 0.961927 -0.2677639
outer loop
	vertex 0.1016 0.005838181 -0.001383751
	vertex 0.1016 0.005638189 -0.002051852
	vertex -0.1016 0.005838181 -0.001383781
endloop
endfacet
facet normal 2.980232E-08 0.9508216 -0.3048597
outer loop
	vertex 0.1016 0.005638189 -0.002051852
	vertex -0.1016 0.005638189 -0.002051882
	vertex -0.1016 0.005838181 -0.001383781
endloop
endfacet
facet normal 3.973643E-08 0.9243628 -0.3775543
outer loop
	vertex 0.1016 0.005638189 -0.002051852
	vertex 0.1016 0.005361902 -0.002692542
	vertex -0.1016 0.005638189 -0.002051882
endloop
endfacet
facet normal 4.967054E-08 0.9090095 -0.4131534
outer loop
	vertex 0.1016 0.005361902 -0.002692542
	vertex -0.1016 0.005361902 -0.002692572
	vertex -0.1016 0.005638189 -0.002051882
endloop
endfacet
facet normal 5.960464E-08 0.874257 -0.4823526
outer loop
	vertex 0.1016 0.005361902 -0.002692542
	vertex 0.1016 0.005012776 -0.003297246
	vertex -0.1016 0.005361902 -0.002692572
endloop
endfacet
facet normal 5.960464E-08 0.8548578 -0.515953
outer loop
	vertex 0.1016 0.005012776 -0.003297246
	vertex -0.1016 0.005012776 -0.003297276
	vertex -0.1016 0.005361902 -0.002692572
endloop
endfacet
facet normal 5.960464E-08 0.8123059 -0.5806489
outer loop
	vertex 0.1016 0.005012776 -0.003297246
	vertex 0.1016 0.004596064 -0.003856867
	vertex -0.1016 0.005012776 -0.003297276
endloop
endfacet
facet normal 5.960464E-08 0.7891532 -0.6117446
outer loop
	vertex 0.1016 0.004596064 -0.003856867
	vertex -0.1016 0.004596064 -0.003856896
	vertex -0.1016 0.005012776 -0.003297276
endloop
endfacet
facet normal 5.960464E-08 0.7394206 -0.6710119
outer loop
	vertex 0.1016 0.004596064 -0.003856867
	vertex 0.1016 0.00411747 -0.004364117
	vertex -0.1016 0.004596064 -0.003856896
endloop
endfacet
facet normal 5.960464E-08 0.7128406 -0.6991838
outer loop
	vertex 0.1016 0.00411747 -0.004364117
	vertex -0.1016 0.00411747 -0.004364147
	vertex -0.1016 0.004596064 -0.003856896
endloop
endfacet
facet normal 7.947286E-08 -0.6565815 -0.7522623
outer loop
	vertex 0.1016 -0.00411747 -0.004364117
	vertex -0.1016 -0.00411747 -0.004364147
	vertex -0.1016 -0.00358319 -0.004812538
endloop
endfacet
facet normal 9.934107E-08 -0.6269019 -0.777169
outer loop
	vertex 0.1016 -0.00358319 -0.004812508
	vertex 0.1016 -0.00411747 -0.004364117
	vertex -0.1016 -0.00358319 -0.004812538
endloop
endfacet
facet normal 1.192093E-07 -0.5648152 -0.8233922
outer loop
	vertex 0.1016 -0.00358319 -0.004812508
	vertex -0.1016 -0.00358319 -0.004812538
	vertex -0.1016 -0.003 -0.005196168
endloop
endfacet
facet normal 1.192093E-07 -0.5324076 -0.8447089
outer loop
	vertex 0.1016 -0.003 -0.005196138
	vertex 0.1016 -0.00358319 -0.004812508
	vertex -0.1016 -0.003 -0.005196168
endloop
endfacet
facet normal 1.192093E-07 -0.4653356 -0.8834329
outer loop
	vertex 0.1016 -0.003 -0.005196138
	vertex -0.1016 -0.003 -0.005196168
	vertex -0.1016 -0.00237617 -0.005509405
endloop
endfacet
facet normal 1.192093E-07 -0.4306711 -0.9008403
outer loop
	vertex 0.1016 -0.00237617 -0.005509376
	vertex 0.1016 -0.003 -0.005196138
	vertex -0.1016 -0.00237617 -0.005509405
endloop
endfacet
facet normal 1.192093E-07 -0.3595969 -0.9314976
outer loop
	vertex 0.1016 -0.00237617 -0.005509376
	vertex -0.1016 -0.00237617 -0.005509405
	vertex -0.1016 -0.001720712 -0.005747913
endloop
endfacet
facet normal 1.192093E-07 -0.3231873 -0.9447474
outer loop
	vertex 0.1016 -0.001720712 -0.005747884
	vertex 0.1016 -0.00237617 -0.005509376
	vertex -0.1016 -0.001720712 -0.005747913
endloop
endfacet
facet normal 1.192093E-07 -0.2490906 -0.9669301
outer loop
	vertex 0.1016 -0.001720712 -0.005747884
	vertex -0.1016 -0.001720712 -0.005747913
	vertex -0.1016 -0.001042124 -0.005908764
endloop
endfacet
facet normal 1.192093E-07 -0.2114033 -0.975863
outer loop
	vertex 0.1016 -0.001042124 -0.005908734
	vertex 0.1016 -0.001720712 -0.005747884
	vertex -0.1016 -0.001042124 -0.005908764
endloop
endfacet
facet normal 1.192093E-07 -0.1352101 -0.989299
outer loop
	vertex 0.1016 -0.001042124 -0.005908734
	vertex -0.1016 -0.001042124 -0.005908764
	vertex -0.1016 -0.000349125 -0.005989841
endloop
endfacet
facet normal 1.192093E-07 -0.09670378 -0.9938021
outer loop
	vertex 0.1016 -0.000349125 -0.005989811
	vertex 0.1016 -0.001042124 -0.005908734
	vertex -0.1016 -0.000349125 -0.005989841
endloop
endfacet
facet normal 1.192093E-07 -0.01939937 -0.9983052
outer loop
	vertex 0.1016 -0.000349125 -0.005989811
	vertex -0.1016 -0.000349125 -0.005989841
	vertex -0.1016 0.000349125 -0.005989841
endloop
endfacet
facet normal 1.192093E-07 0.01939936 -0.9983052
outer loop
	vertex 0.1016 0.000349125 -0.005989811
	vertex 0.1016 -0.000349125 -0.005989811
	vertex -0.1016 0.000349125 -0.005989841
endloop
endfacet
facet normal 1.192093E-07 0.09670374 -0.9938021
outer loop
	vertex 0.1016 0.000349125 -0.005989811
	vertex -0.1016 0.000349125 -0.005989841
	vertex -0.1016 0.001042124 -0.005908764
endloop
endfacet
facet normal 1.192093E-07 0.1352101 -0.989299
outer loop
	vertex 0.1016 0.001042124 -0.005908734
	vertex 0.1016 0.000349125 -0.005989811
	vertex -0.1016 0.001042124 -0.005908764
endloop
endfacet
facet normal 1.192093E-07 0.2114033 -0.975863
outer loop
	vertex 0.1016 0.001042124 -0.005908734
	vertex -0.1016 0.001042124 -0.005908764
	vertex -0.1016 0.001720712 -0.005747913
endloop
endfacet
facet normal 1.192093E-07 0.2490906 -0.9669302
outer loop
	vertex 0.1016 0.001720712 -0.005747884
	vertex 0.1016 0.001042124 -0.005908734
	vertex -0.1016 0.001720712 -0.005747913
endloop
endfacet
facet normal 1.192093E-07 0.3231873 -0.9447474
outer loop
	vertex 0.1016 0.001720712 -0.005747884
	vertex -0.1016 0.001720712 -0.005747913
	vertex -0.1016 0.00237617 -0.005509405
endloop
endfacet
facet normal 1.192093E-07 0.3595969 -0.9314976
outer loop
	vertex 0.1016 0.00237617 -0.005509376
	vertex 0.1016 0.001720712 -0.005747884
	vertex -0.1016 0.00237617 -0.005509405
endloop
endfacet
facet normal 1.192093E-07 0.4306711 -0.9008403
outer loop
	vertex 0.1016 0.00237617 -0.005509376
	vertex -0.1016 0.00237617 -0.005509405
	vertex -0.1016 0.003 -0.005196168
endloop
endfacet
facet normal 1.192093E-07 0.4653356 -0.8834329
outer loop
	vertex 0.1016 0.003 -0.005196138
	vertex 0.1016 0.00237617 -0.005509376
	vertex -0.1016 0.003 -0.005196168
endloop
endfacet
facet normal 1.192093E-07 0.5324076 -0.8447089
outer loop
	vertex 0.1016 0.003 -0.005196138
	vertex -0.1016 0.003 -0.005196168
	vertex -0.1016 0.00358319 -0.004812538
endloop
endfacet
facet normal 1.192093E-07 0.5648151 -0.8233923
outer loop
	vertex 0.1016 0.00358319 -0.004812508
	vertex 0.1016 0.003 -0.005196138
	vertex -0.1016 0.00358319 -0.004812538
endloop
endfacet
facet normal 9.934107E-08 0.6269019 -0.777169
outer loop
	vertex 0.1016 0.00358319 -0.004812508
	vertex -0.1016 0.00358319 -0.004812538
	vertex -0.1016 0.00411747 -0.004364147
endloop
endfacet
facet normal 7.947286E-08 0.6565814 -0.7522624
outer loop
	vertex 0.1016 0.00411747 -0.004364117
	vertex 0.1016 0.00358319 -0.004812508
	vertex -0.1016 0.00411747 -0.004364147
endloop
endfacet
endsolid _f_poll
