solid _f_poll
facet normal -1 0 1.192093E-07
outer loop
	vertex -0.0146 0.000672122 -0.005962125
	vertex -0.0146 1.02119E-11 -0.006
	vertex -0.0146 -0.000672122 -0.005962125
endloop
endfacet
facet normal -1 0 1.192093E-07
outer loop
	vertex -0.0146 0.000672122 -0.005962125
	vertex -0.0146 -0.000672122 -0.005962125
	vertex -0.0146 -0.001334652 -0.005849586
endloop
endfacet
facet normal -1 0 1.192093E-07
outer loop
	vertex -0.0146 0.001334652 -0.005849586
	vertex -0.0146 0.000672122 -0.005962125
	vertex -0.0146 -0.001334652 -0.005849586
endloop
endfacet
facet normal -1 0 1.192093E-07
outer loop
	vertex -0.0146 0.001334652 -0.005849586
	vertex -0.0146 -0.001334652 -0.005849586
	vertex -0.0146 -0.001981957 -0.00566319
endloop
endfacet
facet normal -1 0 1.192093E-07
outer loop
	vertex -0.0146 0.001981957 -0.00566319
	vertex -0.0146 0.001334652 -0.005849586
	vertex -0.0146 -0.001981957 -0.00566319
endloop
endfacet
facet normal -1 0 1.192093E-07
outer loop
	vertex -0.0146 0.001981957 -0.00566319
	vertex -0.0146 -0.001981957 -0.00566319
	vertex -0.0146 -0.002603416 -0.005405619
endloop
endfacet
facet normal -1 0 1.192093E-07
outer loop
	vertex -0.0146 0.002603416 -0.005405619
	vertex -0.0146 0.001981957 -0.00566319
	vertex -0.0146 -0.002603416 -0.005405619
endloop
endfacet
facet normal -1 0 1.192093E-07
outer loop
	vertex -0.0146 0.002603416 -0.005405619
	vertex -0.0146 -0.002603416 -0.005405619
	vertex -0.0146 -0.003191727 -0.005080567
endloop
endfacet
facet normal -1 0 1.192093E-07
outer loop
	vertex -0.0146 0.003191727 -0.005080567
	vertex -0.0146 0.002603416 -0.005405619
	vertex -0.0146 -0.003191727 -0.005080567
endloop
endfacet
facet normal -1 0 1.192093E-07
outer loop
	vertex -0.0146 0.003191727 -0.005080567
	vertex -0.0146 -0.003191727 -0.005080567
	vertex -0.0146 -0.003741283 -0.004690674
endloop
endfacet
facet normal -1 0 1.192093E-07
outer loop
	vertex -0.0146 0.003741283 -0.004690674
	vertex -0.0146 0.003191727 -0.005080567
	vertex -0.0146 -0.003741283 -0.004690674
endloop
endfacet
facet normal -1 0 1.192093E-07
outer loop
	vertex -0.0146 0.003741283 -0.004690674
	vertex -0.0146 -0.003741283 -0.004690674
	vertex -0.0146 -0.004242549 -0.004242548
endloop
endfacet
facet normal -1 0 1.192093E-07
outer loop
	vertex -0.0146 0.004242549 -0.004242548
	vertex -0.0146 0.003741283 -0.004690674
	vertex -0.0146 -0.004242549 -0.004242548
endloop
endfacet
facet normal -1 0 1.192093E-07
outer loop
	vertex -0.0146 0.004242549 -0.004242548
	vertex -0.0146 -0.004242549 -0.004242548
	vertex -0.0146 -0.004690675 -0.003741282
endloop
endfacet
facet normal -1 0 1.192093E-07
outer loop
	vertex -0.0146 0.004690675 -0.003741282
	vertex -0.0146 0.004242549 -0.004242548
	vertex -0.0146 -0.004690675 -0.003741282
endloop
endfacet
facet normal -1 0 1.192093E-07
outer loop
	vertex -0.0146 0.004690675 -0.003741282
	vertex -0.0146 -0.004690675 -0.003741282
	vertex -0.0146 -0.005080568 -0.003191726
endloop
endfacet
facet normal -1 0 1.192093E-07
outer loop
	vertex -0.0146 0.005080568 -0.003191726
	vertex -0.0146 0.004690675 -0.003741282
	vertex -0.0146 -0.005080568 -0.003191726
endloop
endfacet
facet normal -1 0 1.192093E-07
outer loop
	vertex -0.0146 0.005080568 -0.003191726
	vertex -0.0146 -0.005080568 -0.003191726
	vertex -0.0146 -0.00540562 -0.002603416
endloop
endfacet
facet normal -1 0 1.192093E-07
outer loop
	vertex -0.0146 0.00540562 -0.002603416
	vertex -0.0146 0.005080568 -0.003191726
	vertex -0.0146 -0.00540562 -0.002603416
endloop
endfacet
facet normal -1 0 1.192093E-07
outer loop
	vertex -0.0146 0.00540562 -0.002603416
	vertex -0.0146 -0.00540562 -0.002603416
	vertex -0.0146 -0.005663191 -0.001981955
endloop
endfacet
facet normal -1 0 1.192093E-07
outer loop
	vertex -0.0146 0.005663191 -0.001981955
	vertex -0.0146 0.00540562 -0.002603416
	vertex -0.0146 -0.005663191 -0.001981955
endloop
endfacet
facet normal -1 0 1.192093E-07
outer loop
	vertex -0.0146 0.005663191 -0.001981955
	vertex -0.0146 -0.005663191 -0.001981955
	vertex -0.0146 -0.000139968 -0.001694088
endloop
endfacet
facet normal -1 0 1.192093E-07
outer loop
	vertex -0.0146 -0.005663191 -0.001981955
	vertex -0.0146 -0.005849587 -0.001334651
	vertex -0.0146 -0.000139968 -0.001694088
endloop
endfacet
facet normal -1 0 1.192093E-07
outer loop
	vertex -0.0146 1.02119E-11 -0.001699999
	vertex -0.0146 0.005663191 -0.001981955
	vertex -0.0146 -0.000139968 -0.001694088
endloop
endfacet
facet normal -1 0 1.192093E-07
outer loop
	vertex -0.0146 -0.000139968 -0.001694088
	vertex -0.0146 -0.005849587 -0.001334651
	vertex -0.0146 -0.000280093 -0.001676603
endloop
endfacet
facet normal -1 0 1.192093E-07
outer loop
	vertex -0.0146 0.000139968 -0.001694088
	vertex -0.0146 0.005663191 -0.001981955
	vertex -0.0146 1.02119E-11 -0.001699999
endloop
endfacet
facet normal -1 0 1.192093E-07
outer loop
	vertex -0.0146 -0.000280093 -0.001676603
	vertex -0.0146 -0.005849587 -0.001334651
	vertex -0.0146 -0.000417543 -0.001647917
endloop
endfacet
facet normal -1 0 1.192093E-07
outer loop
	vertex -0.0146 -0.000417543 -0.001647917
	vertex -0.0146 -0.005849587 -0.001334651
	vertex -0.0146 -0.000551509 -0.001607935
endloop
endfacet
facet normal -1 0 1.192093E-07
outer loop
	vertex -0.0146 0.000280093 -0.001676603
	vertex -0.0146 0.005663191 -0.001981955
	vertex -0.0146 0.000139968 -0.001694088
endloop
endfacet
facet normal -1 0 1.192093E-07
outer loop
	vertex -0.0146 -0.000551509 -0.001607935
	vertex -0.0146 -0.005849587 -0.001334651
	vertex -0.0146 -0.000682992 -0.001556573
endloop
endfacet
facet normal -1 0 1.192093E-07
outer loop
	vertex -0.0146 0.000417543 -0.001647917
	vertex -0.0146 0.005663191 -0.001981955
	vertex -0.0146 0.000280093 -0.001676603
endloop
endfacet
facet normal -1 0 1.192093E-07
outer loop
	vertex -0.0146 -0.000682992 -0.001556573
	vertex -0.0146 -0.005849587 -0.001334651
	vertex -0.0146 -0.000809431 -0.001494901
endloop
endfacet
facet normal -1 0 1.192093E-07
outer loop
	vertex -0.0146 0.000551509 -0.001607935
	vertex -0.0146 0.005663191 -0.001981955
	vertex -0.0146 0.000417543 -0.001647917
endloop
endfacet
facet normal -1 0 1.192093E-07
outer loop
	vertex -0.0146 -0.000809431 -0.001494901
	vertex -0.0146 -0.005849587 -0.001334651
	vertex -0.0146 -0.000929356 -0.001423382
endloop
endfacet
facet normal -1 0 1.192093E-07
outer loop
	vertex -0.0146 0.000682992 -0.001556573
	vertex -0.0146 0.005663191 -0.001981955
	vertex -0.0146 0.000551509 -0.001607935
endloop
endfacet
facet normal -1 0 1.192093E-07
outer loop
	vertex -0.0146 0.000809431 -0.001494901
	vertex -0.0146 0.005663191 -0.001981955
	vertex -0.0146 0.000682992 -0.001556573
endloop
endfacet
facet normal -1 0 1.192093E-07
outer loop
	vertex -0.0146 0.000929356 -0.001423382
	vertex -0.0146 0.005663191 -0.001981955
	vertex -0.0146 0.000809431 -0.001494901
endloop
endfacet
facet normal -1 0 1.192093E-07
outer loop
	vertex -0.0146 0.001044101 -0.001341351
	vertex -0.0146 0.005663191 -0.001981955
	vertex -0.0146 0.000929356 -0.001423382
endloop
endfacet
facet normal -1 0 1.192093E-07
outer loop
	vertex -0.0146 0.005849587 -0.001334651
	vertex -0.0146 0.005663191 -0.001981955
	vertex -0.0146 0.001044101 -0.001341351
endloop
endfacet
facet normal -1 0 1.192093E-07
outer loop
	vertex -0.0146 -0.000929356 -0.001423382
	vertex -0.0146 -0.005849587 -0.001334651
	vertex -0.0146 -0.001044101 -0.001341351
endloop
endfacet
facet normal -1 0 1.192093E-07
outer loop
	vertex -0.0146 -0.001044101 -0.001341351
	vertex -0.0146 -0.005849587 -0.001334651
	vertex -0.0146 -0.001151684 -0.001250376
endloop
endfacet
facet normal -1 0 1.192093E-07
outer loop
	vertex -0.0146 -0.005849587 -0.001334651
	vertex -0.0146 -0.005962011 -0.0006734187
	vertex -0.0146 -0.001151684 -0.001250376
endloop
endfacet
facet normal -1 0 1.192093E-07
outer loop
	vertex -0.0146 -0.001151684 -0.001250376
	vertex -0.0146 -0.005962011 -0.0006734187
	vertex -0.0146 -0.001250378 -0.001151683
endloop
endfacet
facet normal -1 0 1.192093E-07
outer loop
	vertex -0.0146 -0.001250378 -0.001151683
	vertex -0.0146 -0.005962011 -0.0006734187
	vertex -0.0146 -0.001341352 -0.0010441
endloop
endfacet
facet normal -1 0 1.192093E-07
outer loop
	vertex -0.0146 -0.001341352 -0.0010441
	vertex -0.0146 -0.005962011 -0.0006734187
	vertex -0.0146 -0.001423383 -0.0009293546
endloop
endfacet
facet normal -1 0 1.192093E-07
outer loop
	vertex -0.0146 0.001151684 -0.001250376
	vertex -0.0146 0.005849587 -0.001334651
	vertex -0.0146 0.001044101 -0.001341351
endloop
endfacet
facet normal -1 0 1.192093E-07
outer loop
	vertex -0.0146 0.001250378 -0.001151683
	vertex -0.0146 0.005849587 -0.001334651
	vertex -0.0146 0.001151684 -0.001250376
endloop
endfacet
facet normal -1 0 1.192093E-07
outer loop
	vertex -0.0146 0.001341352 -0.0010441
	vertex -0.0146 0.005849587 -0.001334651
	vertex -0.0146 0.001250378 -0.001151683
endloop
endfacet
facet normal -1 0 1.192093E-07
outer loop
	vertex -0.0146 -0.001423383 -0.0009293546
	vertex -0.0146 -0.005962011 -0.0006734187
	vertex -0.0146 -0.001494902 -0.0008094296
endloop
endfacet
facet normal -1 0 1.192093E-07
outer loop
	vertex -0.0146 0.001423383 -0.0009293546
	vertex -0.0146 0.005849587 -0.001334651
	vertex -0.0146 0.001341352 -0.0010441
endloop
endfacet
facet normal -1 0 1.192093E-07
outer loop
	vertex -0.0146 -0.001494902 -0.0008094296
	vertex -0.0146 -0.005962011 -0.0006734187
	vertex -0.0146 -0.001556574 -0.0006829904
endloop
endfacet
facet normal -1 0 1.192093E-07
outer loop
	vertex -0.0146 0.001494902 -0.0008094296
	vertex -0.0146 0.005849587 -0.001334651
	vertex -0.0146 0.001423383 -0.0009293546
endloop
endfacet
facet normal -1 0 1.192093E-07
outer loop
	vertex -0.0146 -0.001556574 -0.0006829904
	vertex -0.0146 -0.005962011 -0.0006734187
	vertex -0.0146 -0.001607936 -0.0005515077
endloop
endfacet
facet normal -1 0 1.192093E-07
outer loop
	vertex -0.0146 0.001556574 -0.0006829904
	vertex -0.0146 0.005849587 -0.001334651
	vertex -0.0146 0.001494902 -0.0008094296
endloop
endfacet
facet normal -1 0 1.192093E-07
outer loop
	vertex -0.0146 -0.005962011 -0.0006734187
	vertex -0.0146 -0.006 1.519357E-09
	vertex -0.0146 -0.001607936 -0.0005515077
endloop
endfacet
facet normal -1 0 1.192093E-07
outer loop
	vertex -0.0146 -0.001607936 -0.0005515077
	vertex -0.0146 -0.006 1.519357E-09
	vertex -0.0146 -0.001647913 -0.0004175816
endloop
endfacet
facet normal -1 0 1.192093E-07
outer loop
	vertex -0.0146 -0.001647913 -0.0004175816
	vertex -0.0146 -0.006 1.519357E-09
	vertex -0.0146 -0.001676434 -0.0002813776
endloop
endfacet
facet normal -1 0 1.192093E-07
outer loop
	vertex -0.0146 -0.001676434 -0.0002813776
	vertex -0.0146 -0.006 1.519357E-09
	vertex -0.0146 -0.001693797 -0.0001421835
endloop
endfacet
facet normal -1 0 1.192093E-07
outer loop
	vertex -0.0146 0.005962011 -0.0006734187
	vertex -0.0146 0.005849587 -0.001334651
	vertex -0.0146 0.001556574 -0.0006829904
endloop
endfacet
facet normal -1 0 1.192093E-07
outer loop
	vertex -0.0146 0.001607936 -0.0005515077
	vertex -0.0146 0.005962011 -0.0006734187
	vertex -0.0146 0.001556574 -0.0006829904
endloop
endfacet
facet normal -1 0 1.192093E-07
outer loop
	vertex -0.0146 0.001647913 -0.0004175816
	vertex -0.0146 0.005962011 -0.0006734187
	vertex -0.0146 0.001607936 -0.0005515077
endloop
endfacet
facet normal -1 0 1.192093E-07
outer loop
	vertex -0.0146 0.001676434 -0.0002813776
	vertex -0.0146 0.005962011 -0.0006734187
	vertex -0.0146 0.001647913 -0.0004175816
endloop
endfacet
facet normal -1 0 1.192093E-07
outer loop
	vertex -0.0146 -0.001693797 -0.0001421835
	vertex -0.0146 -0.006 1.519357E-09
	vertex -0.0146 -0.0017 1.519357E-09
endloop
endfacet
facet normal -1 0 1.192093E-07
outer loop
	vertex -0.0146 0.001693797 -0.0001421835
	vertex -0.0146 0.005962011 -0.0006734187
	vertex -0.0146 0.001676434 -0.0002813776
endloop
endfacet
facet normal -1 0 1.192093E-07
outer loop
	vertex -0.0146 -0.006 1.519357E-09
	vertex -0.0146 -0.005962011 0.0006734213
	vertex -0.0146 -0.0017 1.519357E-09
endloop
endfacet
facet normal -1 0 1.192093E-07
outer loop
	vertex -0.0146 0.0017 1.519357E-09
	vertex -0.0146 0.005962011 -0.0006734187
	vertex -0.0146 0.001693797 -0.0001421835
endloop
endfacet
facet normal -1 0 1.192093E-07
outer loop
	vertex -0.0146 -0.0017 1.519357E-09
	vertex -0.0146 -0.005962011 0.0006734213
	vertex -0.0146 -0.001693797 0.0001421856
endloop
endfacet
facet normal -1 0 1.192093E-07
outer loop
	vertex -0.0146 -0.001693797 0.0001421856
	vertex -0.0146 -0.005962011 0.0006734213
	vertex -0.0146 -0.001676434 0.0002813792
endloop
endfacet
facet normal -1 0 1.192093E-07
outer loop
	vertex -0.0146 -0.001676434 0.0002813792
	vertex -0.0146 -0.005962011 0.0006734213
	vertex -0.0146 -0.001647913 0.0004175833
endloop
endfacet
facet normal -1 0 1.192093E-07
outer loop
	vertex -0.0146 0.006 1.519357E-09
	vertex -0.0146 0.005962011 -0.0006734187
	vertex -0.0146 0.0017 1.519357E-09
endloop
endfacet
facet normal -1 0 1.192093E-07
outer loop
	vertex -0.0146 -0.001647913 0.0004175833
	vertex -0.0146 -0.005962011 0.0006734213
	vertex -0.0146 -0.001607936 0.0005515103
endloop
endfacet
facet normal -1 0 1.192093E-07
outer loop
	vertex -0.0146 0.006 1.519357E-09
	vertex -0.0146 0.0017 1.519357E-09
	vertex -0.0146 0.001693797 0.0001421856
endloop
endfacet
facet normal -1 0 1.192093E-07
outer loop
	vertex -0.0146 0.001676434 0.0002813792
	vertex -0.0146 0.006 1.519357E-09
	vertex -0.0146 0.001693797 0.0001421856
endloop
endfacet
facet normal -1 0 1.192093E-07
outer loop
	vertex -0.0146 0.001647913 0.0004175833
	vertex -0.0146 0.006 1.519357E-09
	vertex -0.0146 0.001676434 0.0002813792
endloop
endfacet
facet normal -1 0 1.192093E-07
outer loop
	vertex -0.0146 -0.001607936 0.0005515103
	vertex -0.0146 -0.005962011 0.0006734213
	vertex -0.0146 -0.001556574 0.0006829925
endloop
endfacet
facet normal -1 0 1.192093E-07
outer loop
	vertex -0.0146 0.001607936 0.0005515103
	vertex -0.0146 0.006 1.519357E-09
	vertex -0.0146 0.001647913 0.0004175833
endloop
endfacet
facet normal -1 0 1.192093E-07
outer loop
	vertex -0.0146 -0.005962011 0.0006734213
	vertex -0.0146 -0.005849587 0.001334654
	vertex -0.0146 -0.001556574 0.0006829925
endloop
endfacet
facet normal -1 0 1.192093E-07
outer loop
	vertex -0.0146 0.005962011 0.0006734213
	vertex -0.0146 0.006 1.519357E-09
	vertex -0.0146 0.001607936 0.0005515103
endloop
endfacet
facet normal -1 0 1.192093E-07
outer loop
	vertex -0.0146 -0.001556574 0.0006829925
	vertex -0.0146 -0.005849587 0.001334654
	vertex -0.0146 -0.001494902 0.0008094317
endloop
endfacet
facet normal -1 0 1.192093E-07
outer loop
	vertex -0.0146 -0.001494902 0.0008094317
	vertex -0.0146 -0.005849587 0.001334654
	vertex -0.0146 -0.001423383 0.0009293581
endloop
endfacet
facet normal -1 0 1.192093E-07
outer loop
	vertex -0.0146 -0.001423383 0.0009293581
	vertex -0.0146 -0.005849587 0.001334654
	vertex -0.0146 -0.001341352 0.001044103
endloop
endfacet
facet normal -1 0 1.192093E-07
outer loop
	vertex -0.0146 0.001556574 0.0006829925
	vertex -0.0146 0.005962011 0.0006734213
	vertex -0.0146 0.001607936 0.0005515103
endloop
endfacet
facet normal -1 0 1.192093E-07
outer loop
	vertex -0.0146 0.001494902 0.0008094317
	vertex -0.0146 0.005962011 0.0006734213
	vertex -0.0146 0.001556574 0.0006829925
endloop
endfacet
facet normal -1 0 1.192093E-07
outer loop
	vertex -0.0146 0.001423383 0.0009293581
	vertex -0.0146 0.005962011 0.0006734213
	vertex -0.0146 0.001494902 0.0008094317
endloop
endfacet
facet normal -1 0 1.192093E-07
outer loop
	vertex -0.0146 -0.001341352 0.001044103
	vertex -0.0146 -0.005849587 0.001334654
	vertex -0.0146 -0.001250378 0.001151685
endloop
endfacet
facet normal -1 0 1.192093E-07
outer loop
	vertex -0.0146 0.001341352 0.001044103
	vertex -0.0146 0.005962011 0.0006734213
	vertex -0.0146 0.001423383 0.0009293581
endloop
endfacet
facet normal -1 0 1.192093E-07
outer loop
	vertex -0.0146 -0.001250378 0.001151685
	vertex -0.0146 -0.005849587 0.001334654
	vertex -0.0146 -0.001151684 0.001250379
endloop
endfacet
facet normal -1 0 1.192093E-07
outer loop
	vertex -0.0146 0.001250378 0.001151685
	vertex -0.0146 0.005962011 0.0006734213
	vertex -0.0146 0.001341352 0.001044103
endloop
endfacet
facet normal -1 0 1.192093E-07
outer loop
	vertex -0.0146 -0.001151684 0.001250379
	vertex -0.0146 -0.005849587 0.001334654
	vertex -0.0146 -0.001044101 0.001341353
endloop
endfacet
facet normal -1 0 1.192093E-07
outer loop
	vertex -0.0146 0.001151684 0.001250379
	vertex -0.0146 0.005962011 0.0006734213
	vertex -0.0146 0.001250378 0.001151685
endloop
endfacet
facet normal -1 0 1.192093E-07
outer loop
	vertex -0.0146 -0.005849587 0.001334654
	vertex -0.0146 -0.005663191 0.001981958
	vertex -0.0146 -0.001044101 0.001341353
endloop
endfacet
facet normal -1 0 1.192093E-07
outer loop
	vertex -0.0146 -0.001044101 0.001341353
	vertex -0.0146 -0.005663191 0.001981958
	vertex -0.0146 -0.000929356 0.001423384
endloop
endfacet
facet normal -1 0 1.192093E-07
outer loop
	vertex -0.0146 -0.000929356 0.001423384
	vertex -0.0146 -0.005663191 0.001981958
	vertex -0.0146 -0.000809431 0.001494904
endloop
endfacet
facet normal -1 0 1.192093E-07
outer loop
	vertex -0.0146 -0.000809431 0.001494904
	vertex -0.0146 -0.005663191 0.001981958
	vertex -0.0146 -0.000682992 0.001556575
endloop
endfacet
facet normal -1 0 1.192093E-07
outer loop
	vertex -0.0146 0.005849587 0.001334654
	vertex -0.0146 0.005962011 0.0006734213
	vertex -0.0146 0.001151684 0.001250379
endloop
endfacet
facet normal -1 0 1.192093E-07
outer loop
	vertex -0.0146 0.001044101 0.001341353
	vertex -0.0146 0.005849587 0.001334654
	vertex -0.0146 0.001151684 0.001250379
endloop
endfacet
facet normal -1 0 1.192093E-07
outer loop
	vertex -0.0146 0.000929356 0.001423384
	vertex -0.0146 0.005849587 0.001334654
	vertex -0.0146 0.001044101 0.001341353
endloop
endfacet
facet normal -1 0 1.192093E-07
outer loop
	vertex -0.0146 0.000809431 0.001494904
	vertex -0.0146 0.005849587 0.001334654
	vertex -0.0146 0.000929356 0.001423384
endloop
endfacet
facet normal -1 0 1.192093E-07
outer loop
	vertex -0.0146 -0.000682992 0.001556575
	vertex -0.0146 -0.005663191 0.001981958
	vertex -0.0146 -0.000551509 0.001607937
endloop
endfacet
facet normal -1 0 1.192093E-07
outer loop
	vertex -0.0146 0.000682992 0.001556575
	vertex -0.0146 0.005849587 0.001334654
	vertex -0.0146 0.000809431 0.001494904
endloop
endfacet
facet normal -1 0 1.192093E-07
outer loop
	vertex -0.0146 -0.000551509 0.001607937
	vertex -0.0146 -0.005663191 0.001981958
	vertex -0.0146 -0.000417543 0.001647919
endloop
endfacet
facet normal -1 0 1.192093E-07
outer loop
	vertex -0.0146 0.000551509 0.001607937
	vertex -0.0146 0.005849587 0.001334654
	vertex -0.0146 0.000682992 0.001556575
endloop
endfacet
facet normal -1 0 1.192093E-07
outer loop
	vertex -0.0146 -0.000417543 0.001647919
	vertex -0.0146 -0.005663191 0.001981958
	vertex -0.0146 -0.000280093 0.001676605
endloop
endfacet
facet normal -1 0 1.192093E-07
outer loop
	vertex -0.0146 0.000417543 0.001647919
	vertex -0.0146 0.005849587 0.001334654
	vertex -0.0146 0.000551509 0.001607937
endloop
endfacet
facet normal -1 0 1.192093E-07
outer loop
	vertex -0.0146 -0.000280093 0.001676605
	vertex -0.0146 -0.005663191 0.001981958
	vertex -0.0146 -0.000139968 0.001694091
endloop
endfacet
facet normal -1 0 1.192093E-07
outer loop
	vertex -0.0146 -0.000139968 0.001694091
	vertex -0.0146 -0.005663191 0.001981958
	vertex -0.0146 1.02119E-11 0.001700001
endloop
endfacet
facet normal -1 0 1.192093E-07
outer loop
	vertex -0.0146 1.02119E-11 0.001700001
	vertex -0.0146 -0.005663191 0.001981958
	vertex -0.0146 0.000139968 0.001694091
endloop
endfacet
facet normal -1 0 1.192093E-07
outer loop
	vertex -0.0146 0.000280093 0.001676605
	vertex -0.0146 0.005849587 0.001334654
	vertex -0.0146 0.000417543 0.001647919
endloop
endfacet
facet normal -1 0 1.192093E-07
outer loop
	vertex -0.0146 0.000139968 0.001694091
	vertex -0.0146 0.005849587 0.001334654
	vertex -0.0146 0.000280093 0.001676605
endloop
endfacet
facet normal -1 0 1.192093E-07
outer loop
	vertex -0.0146 0.005663191 0.001981958
	vertex -0.0146 0.005849587 0.001334654
	vertex -0.0146 0.000139968 0.001694091
endloop
endfacet
facet normal -1 0 1.192093E-07
outer loop
	vertex -0.0146 -0.005663191 0.001981958
	vertex -0.0146 0.005663191 0.001981958
	vertex -0.0146 0.000139968 0.001694091
endloop
endfacet
facet normal -1 0 1.192093E-07
outer loop
	vertex -0.0146 -0.005663191 0.001981958
	vertex -0.0146 -0.00540562 0.002603418
	vertex -0.0146 0.005663191 0.001981958
endloop
endfacet
facet normal -1 0 1.192093E-07
outer loop
	vertex -0.0146 -0.00540562 0.002603418
	vertex -0.0146 0.00540562 0.002603418
	vertex -0.0146 0.005663191 0.001981958
endloop
endfacet
facet normal -1 0 1.192093E-07
outer loop
	vertex -0.0146 -0.00540562 0.002603418
	vertex -0.0146 -0.005080568 0.003191729
	vertex -0.0146 0.00540562 0.002603418
endloop
endfacet
facet normal -1 0 1.192093E-07
outer loop
	vertex -0.0146 -0.005080568 0.003191729
	vertex -0.0146 0.005080568 0.003191729
	vertex -0.0146 0.00540562 0.002603418
endloop
endfacet
facet normal -1 0 1.192093E-07
outer loop
	vertex -0.0146 -0.005080568 0.003191729
	vertex -0.0146 -0.004690675 0.003741286
	vertex -0.0146 0.005080568 0.003191729
endloop
endfacet
facet normal -1 0 1.192093E-07
outer loop
	vertex -0.0146 -0.004690675 0.003741286
	vertex -0.0146 0.004690675 0.003741286
	vertex -0.0146 0.005080568 0.003191729
endloop
endfacet
facet normal -1 0 1.192093E-07
outer loop
	vertex -0.0146 -0.004690675 0.003741286
	vertex -0.0146 -0.004242549 0.004242551
	vertex -0.0146 0.004690675 0.003741286
endloop
endfacet
facet normal -1 0 1.192093E-07
outer loop
	vertex -0.0146 -0.004242549 0.004242551
	vertex -0.0146 0.004242549 0.004242551
	vertex -0.0146 0.004690675 0.003741286
endloop
endfacet
facet normal -1 0 1.192093E-07
outer loop
	vertex -0.0146 -0.004242549 0.004242551
	vertex -0.0146 -0.003741283 0.004690677
	vertex -0.0146 0.004242549 0.004242551
endloop
endfacet
facet normal -1 0 1.192093E-07
outer loop
	vertex -0.0146 -0.003741283 0.004690677
	vertex -0.0146 0.003741283 0.004690677
	vertex -0.0146 0.004242549 0.004242551
endloop
endfacet
facet normal -1 0 1.192093E-07
outer loop
	vertex -0.0146 -0.003741283 0.004690677
	vertex -0.0146 -0.003191727 0.00508057
	vertex -0.0146 0.003741283 0.004690677
endloop
endfacet
facet normal -1 0 1.192093E-07
outer loop
	vertex -0.0146 -0.003191727 0.00508057
	vertex -0.0146 0.003191727 0.00508057
	vertex -0.0146 0.003741283 0.004690677
endloop
endfacet
facet normal -1 0 1.192093E-07
outer loop
	vertex -0.0146 -0.003191727 0.00508057
	vertex -0.0146 -0.002603416 0.005405622
	vertex -0.0146 0.003191727 0.00508057
endloop
endfacet
facet normal -1 0 1.192093E-07
outer loop
	vertex -0.0146 -0.002603416 0.005405622
	vertex -0.0146 0.002603416 0.005405622
	vertex -0.0146 0.003191727 0.00508057
endloop
endfacet
facet normal -1 0 1.192093E-07
outer loop
	vertex -0.0146 -0.002603416 0.005405622
	vertex -0.0146 -0.001981957 0.005663192
	vertex -0.0146 0.002603416 0.005405622
endloop
endfacet
facet normal -1 0 1.192093E-07
outer loop
	vertex -0.0146 -0.001981957 0.005663192
	vertex -0.0146 0.001981957 0.005663192
	vertex -0.0146 0.002603416 0.005405622
endloop
endfacet
facet normal -1 0 1.192093E-07
outer loop
	vertex -0.0146 -0.001981957 0.005663192
	vertex -0.0146 -0.001334652 0.005849589
	vertex -0.0146 0.001981957 0.005663192
endloop
endfacet
facet normal -1 0 1.192093E-07
outer loop
	vertex -0.0146 -0.001334652 0.005849589
	vertex -0.0146 0.001334652 0.005849589
	vertex -0.0146 0.001981957 0.005663192
endloop
endfacet
facet normal -1 0 1.192093E-07
outer loop
	vertex -0.0146 -0.001334652 0.005849589
	vertex -0.0146 -0.000672122 0.005962127
	vertex -0.0146 0.001334652 0.005849589
endloop
endfacet
facet normal -1 0 1.192093E-07
outer loop
	vertex -0.0146 -0.000672122 0.005962127
	vertex -0.0146 0.000672122 0.005962127
	vertex -0.0146 0.001334652 0.005849589
endloop
endfacet
facet normal -1 0 1.192093E-07
outer loop
	vertex -0.0146 -0.000672122 0.005962127
	vertex -0.0146 1.02119E-11 0.006000002
	vertex -0.0146 0.000672122 0.005962127
endloop
endfacet
facet normal 7.947286E-08 0.6792717 0.7319815
outer loop
	vertex -0.0146 0.003741283 0.004690677
	vertex 0.02460001 0.004242835 0.004242387
	vertex -0.0146 0.004242549 0.004242551
endloop
endfacet
facet normal 9.934107E-08 0.651399 0.7568902
outer loop
	vertex 0.02460001 0.003740939 0.004690987
	vertex 0.02460001 0.004242835 0.004242387
	vertex -0.0146 0.003741283 0.004690677
endloop
endfacet
facet normal 1.192093E-07 0.5929979 0.8034632
outer loop
	vertex -0.0146 0.003191727 0.00508057
	vertex 0.02460001 0.003740939 0.004690987
	vertex -0.0146 0.003741283 0.004690677
endloop
endfacet
facet normal 1.192093E-07 0.5624716 0.8251227
outer loop
	vertex 0.02460001 0.003191905 0.005080477
	vertex 0.02460001 0.003740939 0.004690987
	vertex -0.0146 0.003191727 0.00508057
endloop
endfacet
facet normal 1.192093E-07 0.4992829 0.8648286
outer loop
	vertex -0.0146 0.002603416 0.005405622
	vertex 0.02460001 0.003191905 0.005080477
	vertex -0.0146 0.003191727 0.00508057
endloop
endfacet
facet normal 1.192093E-07 0.4665912 0.8828949
outer loop
	vertex 0.02460001 0.002603272 0.005405747
	vertex 0.02460001 0.003191905 0.005080477
	vertex -0.0146 0.002603416 0.005405622
endloop
endfacet
facet normal 1.192093E-07 0.3993753 0.9152628
outer loop
	vertex -0.0146 0.001981957 0.005663192
	vertex 0.02460001 0.002603272 0.005405747
	vertex -0.0146 0.002603416 0.005405622
endloop
endfacet
facet normal 1.192093E-07 0.3648515 0.9295655
outer loop
	vertex 0.02460001 0.001981958 0.005663157
	vertex 0.02460001 0.002603272 0.005405747
	vertex -0.0146 0.001981957 0.005663192
endloop
endfacet
facet normal 1.192093E-07 0.2943692 0.9542249
outer loop
	vertex -0.0146 0.001334652 0.005849589
	vertex 0.02460001 0.001981958 0.005663157
	vertex -0.0146 0.001981957 0.005663192
endloop
endfacet
facet normal 1.192093E-07 0.2584371 0.9645776
outer loop
	vertex 0.02460001 0.001335126 0.005849563
	vertex 0.02460001 0.001981958 0.005663157
	vertex -0.0146 0.001334652 0.005849589
endloop
endfacet
facet normal 1.192093E-07 0.1856659 0.981193
outer loop
	vertex -0.0146 0.000672122 0.005962127
	vertex 0.02460001 0.001335126 0.005849563
	vertex -0.0146 0.001334652 0.005849589
endloop
endfacet
facet normal 1.192093E-07 0.1488159 0.987451
outer loop
	vertex 0.02460001 0.00067147 0.005962266
	vertex 0.02460001 0.001335126 0.005849563
	vertex -0.0146 0.000672122 0.005962127
endloop
endfacet
facet normal 1.192093E-07 0.074642 0.9958084
outer loop
	vertex -0.0146 1.02119E-11 0.006000002
	vertex 0.02460001 0.00067147 0.005962266
	vertex -0.0146 0.000672122 0.005962127
endloop
endfacet
facet normal 1.192093E-07 0.0372959 0.9979071
outer loop
	vertex 0.02460001 1.02119E-11 0.005999927
	vertex 0.02460001 0.00067147 0.005962266
	vertex -0.0146 1.02119E-11 0.006000002
endloop
endfacet
facet normal 1.192093E-07 -0.0373457 0.9979014
outer loop
	vertex -0.0146 -0.000672122 0.005962127
	vertex 0.02460001 1.02119E-11 0.005999927
	vertex -0.0146 1.02119E-11 0.006000002
endloop
endfacet
facet normal 1.192093E-07 -0.07464117 0.9958085
outer loop
	vertex 0.02460001 -0.00067147 0.005962266
	vertex 0.02460001 1.02119E-11 0.005999927
	vertex -0.0146 -0.000672122 0.005962127
endloop
endfacet
facet normal 1.192093E-07 -0.1487866 0.9874576
outer loop
	vertex -0.0146 -0.001334652 0.005849589
	vertex 0.02460001 -0.00067147 0.005962266
	vertex -0.0146 -0.000672122 0.005962127
endloop
endfacet
facet normal 1.192093E-07 -0.1856144 0.9811988
outer loop
	vertex 0.02460001 -0.001335126 0.005849563
	vertex 0.02460001 -0.00067147 0.005962266
	vertex -0.0146 -0.001334652 0.005849589
endloop
endfacet
facet normal 1.192093E-07 -0.2584255 0.9645815
outer loop
	vertex -0.0146 -0.001981957 0.005663192
	vertex 0.02460001 -0.001335126 0.005849563
	vertex -0.0146 -0.001334652 0.005849589
endloop
endfacet
facet normal 1.192093E-07 -0.294398 0.9542181
outer loop
	vertex 0.02460001 -0.001981958 0.005663157
	vertex 0.02460001 -0.001335126 0.005849563
	vertex -0.0146 -0.001981957 0.005663192
endloop
endfacet
facet normal 1.192093E-07 -0.3648655 0.9295589
outer loop
	vertex -0.0146 -0.002603416 0.005405622
	vertex 0.02460001 -0.001981958 0.005663157
	vertex -0.0146 -0.001981957 0.005663192
endloop
endfacet
facet normal 1.192093E-07 -0.3993866 0.9152589
outer loop
	vertex 0.02460001 -0.002603272 0.005405747
	vertex 0.02460001 -0.001981958 0.005663157
	vertex -0.0146 -0.002603416 0.005405622
endloop
endfacet
facet normal 1.192093E-07 -0.4665887 0.8828963
outer loop
	vertex -0.0146 -0.003191727 0.00508057
	vertex 0.02460001 -0.002603272 0.005405747
	vertex -0.0146 -0.002603416 0.005405622
endloop
endfacet
facet normal 1.192093E-07 -0.4992698 0.8648348
outer loop
	vertex 0.02460001 -0.003191905 0.005080477
	vertex 0.02460001 -0.002603272 0.005405747
	vertex -0.0146 -0.003191727 0.00508057
endloop
endfacet
facet normal 1.192093E-07 -0.5624902 0.8251077
outer loop
	vertex -0.0146 -0.003741283 0.004690677
	vertex 0.02460001 -0.003191905 0.005080477
	vertex -0.0146 -0.003191727 0.00508057
endloop
endfacet
facet normal 1.192093E-07 -0.5930001 0.8034617
outer loop
	vertex 0.02460001 -0.003740939 0.004690987
	vertex 0.02460001 -0.003191905 0.005080477
	vertex -0.0146 -0.003741283 0.004690677
endloop
endfacet
facet normal 9.934107E-08 -0.6513802 0.7569088
outer loop
	vertex -0.0146 -0.004242549 0.004242551
	vertex 0.02460001 -0.003740939 0.004690987
	vertex -0.0146 -0.003741283 0.004690677
endloop
endfacet
facet normal 7.947286E-08 -0.6792524 0.731997
outer loop
	vertex 0.02460001 -0.004242835 0.004242387
	vertex 0.02460001 -0.003740939 0.004690987
	vertex -0.0146 -0.004242549 0.004242551
endloop
endfacet
facet normal 5.960464E-08 -0.7320188 0.6792344
outer loop
	vertex -0.0146 -0.004690675 0.003741286
	vertex 0.02460001 -0.004242835 0.004242387
	vertex -0.0146 -0.004242549 0.004242551
endloop
endfacet
facet normal 5.960464E-08 -0.7569274 0.6513616
outer loop
	vertex 0.02460001 -0.004690934 0.003740893
	vertex 0.02460001 -0.004242835 0.004242387
	vertex -0.0146 -0.004690675 0.003741286
endloop
endfacet
facet normal 5.960464E-08 -0.8034635 0.5929975
outer loop
	vertex -0.0146 -0.005080568 0.003191729
	vertex 0.02460001 -0.004690934 0.003740893
	vertex -0.0146 -0.004690675 0.003741286
endloop
endfacet
facet normal 5.960464E-08 -0.8250949 0.5625156
outer loop
	vertex 0.02460001 -0.005080144 0.003192435
	vertex 0.02460001 -0.004690934 0.003740893
	vertex -0.0146 -0.005080568 0.003191729
endloop
endfacet
facet normal 5.960464E-08 -0.8648006 0.4993275
outer loop
	vertex -0.0146 -0.00540562 0.002603418
	vertex 0.02460001 -0.005080144 0.003192435
	vertex -0.0146 -0.005080568 0.003191729
endloop
endfacet
facet normal 5.960464E-08 -0.8828668 0.4666359
outer loop
	vertex 0.02460001 -0.005405813 0.002603299
	vertex 0.02460001 -0.005080144 0.003192435
	vertex -0.0146 -0.00540562 0.002603418
endloop
endfacet
facet normal 4.967054E-08 -0.9152625 0.3993758
outer loop
	vertex -0.0146 -0.005663191 0.001981958
	vertex 0.02460001 -0.005405813 0.002603299
	vertex -0.0146 -0.00540562 0.002603418
endloop
endfacet
facet normal 3.973643E-08 -0.9295825 0.3648024
outer loop
	vertex 0.02460001 -0.005663367 0.001981362
	vertex 0.02460001 -0.005405813 0.002603299
	vertex -0.0146 -0.005663191 0.001981958
endloop
endfacet
facet normal 2.980232E-08 -0.9542363 0.2943452
outer loop
	vertex -0.0146 -0.005849587 0.001334654
	vertex 0.02460001 -0.005663367 0.001981362
	vertex -0.0146 -0.005663191 0.001981958
endloop
endfacet
facet normal 2.980232E-08 -0.9645866 0.2584236
outer loop
	vertex 0.02460001 -0.005849499 0.001335107
	vertex 0.02460001 -0.005663367 0.001981362
	vertex -0.0146 -0.005849587 0.001334654
endloop
endfacet
facet normal 2.483527E-08 -0.9811807 0.1857377
outer loop
	vertex -0.0146 -0.005962011 0.0006734213
	vertex 0.02460001 -0.005849499 0.001335107
	vertex -0.0146 -0.005849587 0.001334654
endloop
endfacet
facet normal 1.986822E-08 -0.9874371 0.1489271
outer loop
	vertex 0.02460001 -0.005962164 0.0006725608
	vertex 0.02460001 -0.005849499 0.001335107
	vertex -0.0146 -0.005962011 0.0006734213
endloop
endfacet
facet normal 9.934108E-09 -0.9957969 0.0747427
outer loop
	vertex -0.0146 -0.006 1.519357E-09
	vertex 0.02460001 -0.005962164 0.0006725608
	vertex -0.0146 -0.005962011 0.0006734213
endloop
endfacet
facet normal 4.967054E-09 -0.9978997 0.0373605
outer loop
	vertex 0.02460001 -0.006 -3.137256E-09
	vertex 0.02460001 -0.005962164 0.0006725608
	vertex -0.0146 -0.006 1.519357E-09
endloop
endfacet
facet normal -4.967054E-09 -0.9978973 -0.03738191
outer loop
	vertex 0.02460001 -0.006 -3.137256E-09
	vertex -0.0146 -0.006 1.519357E-09
	vertex -0.0146 -0.005962011 -0.0006734187
endloop
endfacet
facet normal -9.934108E-09 -0.995797 -0.07474206
outer loop
	vertex 0.02460001 -0.005962164 -0.0006725671
	vertex 0.02460001 -0.006 -3.137256E-09
	vertex -0.0146 -0.005962011 -0.0006734187
endloop
endfacet
facet normal -1.986822E-08 -0.9874402 -0.1489131
outer loop
	vertex -0.0146 -0.005849587 -0.001334651
	vertex 0.02460001 -0.005962164 -0.0006725671
	vertex -0.0146 -0.005962011 -0.0006734187
endloop
endfacet
facet normal -2.483527E-08 -0.9811832 -0.1857155
outer loop
	vertex 0.02460001 -0.005849499 -0.001335114
	vertex 0.02460001 -0.005962164 -0.0006725671
	vertex -0.0146 -0.005849587 -0.001334651
endloop
endfacet
facet normal -2.980232E-08 -0.9645731 -0.2584619
outer loop
	vertex -0.0146 -0.005663191 -0.001981955
	vertex 0.02460001 -0.005849499 -0.001335114
	vertex -0.0146 -0.005849587 -0.001334651
endloop
endfacet
facet normal -2.980232E-08 -0.9542329 -0.2943596
outer loop
	vertex 0.02460001 -0.005663367 -0.001981369
	vertex 0.02460001 -0.005849499 -0.001335114
	vertex -0.0146 -0.005663191 -0.001981955
endloop
endfacet
facet normal -3.973643E-08 -0.9295762 -0.364816
outer loop
	vertex -0.0146 -0.00540562 -0.002603416
	vertex 0.02460001 -0.005663367 -0.001981369
	vertex -0.0146 -0.005663191 -0.001981955
endloop
endfacet
facet normal -4.967054E-08 -0.9152762 -0.3993369
outer loop
	vertex 0.02460001 -0.005405813 -0.002603307
	vertex 0.02460001 -0.005663367 -0.001981369
	vertex -0.0146 -0.00540562 -0.002603416
endloop
endfacet
facet normal -5.960464E-08 -0.8828964 -0.4665883
outer loop
	vertex -0.0146 -0.005080568 -0.003191726
	vertex 0.02460001 -0.005405813 -0.002603307
	vertex -0.0146 -0.00540562 -0.002603416
endloop
endfacet
facet normal -5.960464E-08 -0.8648071 -0.4993138
outer loop
	vertex 0.02460001 -0.005080144 -0.003192443
	vertex 0.02460001 -0.005405813 -0.002603307
	vertex -0.0146 -0.005080568 -0.003191726
endloop
endfacet
facet normal -5.960464E-08 -0.8250796 -0.5625348
outer loop
	vertex -0.0146 -0.004690675 -0.003741282
	vertex 0.02460001 -0.005080144 -0.003192443
	vertex -0.0146 -0.005080568 -0.003191726
endloop
endfacet
facet normal -5.960464E-08 -0.8034335 -0.5930449
outer loop
	vertex 0.02460001 -0.004690934 -0.003740899
	vertex 0.02460001 -0.005080144 -0.003192443
	vertex -0.0146 -0.004690675 -0.003741282
endloop
endfacet
facet normal -5.960464E-08 -0.7569084 -0.6513808
outer loop
	vertex -0.0146 -0.004242549 -0.004242548
	vertex 0.02460001 -0.004690934 -0.003740899
	vertex -0.0146 -0.004690675 -0.003741282
endloop
endfacet
facet normal -5.960464E-08 -0.7320337 -0.6792159
outer loop
	vertex 0.02460001 -0.004242835 -0.004242394
	vertex 0.02460001 -0.004690934 -0.003740899
	vertex -0.0146 -0.004242549 -0.004242548
endloop
endfacet
facet normal 1 0 -1.192093E-07
outer loop
	vertex 0.02460001 1.02119E-11 0.005999927
	vertex 0.02460001 -0.00067147 0.005962266
	vertex 0.02460001 0.00067147 0.005962266
endloop
endfacet
facet normal 1 0 -1.192093E-07
outer loop
	vertex 0.02460001 -0.00067147 0.005962266
	vertex 0.02460001 -0.001335126 0.005849563
	vertex 0.02460001 0.00067147 0.005962266
endloop
endfacet
facet normal 1 0 -1.192093E-07
outer loop
	vertex 0.02460001 0.00067147 0.005962266
	vertex 0.02460001 -0.001335126 0.005849563
	vertex 0.02460001 0.001335126 0.005849563
endloop
endfacet
facet normal 1 0 -1.192093E-07
outer loop
	vertex 0.02460001 -0.001335126 0.005849563
	vertex 0.02460001 -0.001981958 0.005663157
	vertex 0.02460001 0.001335126 0.005849563
endloop
endfacet
facet normal 1 0 -1.192093E-07
outer loop
	vertex 0.02460001 0.001335126 0.005849563
	vertex 0.02460001 -0.001981958 0.005663157
	vertex 0.02460001 0.001981958 0.005663157
endloop
endfacet
facet normal 1 0 -1.192093E-07
outer loop
	vertex 0.02460001 -0.001981958 0.005663157
	vertex 0.02460001 -0.002603272 0.005405747
	vertex 0.02460001 0.001981958 0.005663157
endloop
endfacet
facet normal 1 0 -1.192093E-07
outer loop
	vertex 0.02460001 0.001981958 0.005663157
	vertex 0.02460001 -0.002603272 0.005405747
	vertex 0.02460001 0.002603272 0.005405747
endloop
endfacet
facet normal 1 0 -1.192093E-07
outer loop
	vertex 0.02460001 -0.002603272 0.005405747
	vertex 0.02460001 -0.003191905 0.005080477
	vertex 0.02460001 0.002603272 0.005405747
endloop
endfacet
facet normal 1 0 -1.192093E-07
outer loop
	vertex 0.02460001 0.002603272 0.005405747
	vertex 0.02460001 -0.003191905 0.005080477
	vertex 0.02460001 0.003191905 0.005080477
endloop
endfacet
facet normal 1 0 -1.192093E-07
outer loop
	vertex 0.02460001 -0.003191905 0.005080477
	vertex 0.02460001 -0.003740939 0.004690987
	vertex 0.02460001 0.003191905 0.005080477
endloop
endfacet
facet normal 1 0 -1.192093E-07
outer loop
	vertex 0.02460001 0.003191905 0.005080477
	vertex 0.02460001 -0.003740939 0.004690987
	vertex 0.02460001 0.003740939 0.004690987
endloop
endfacet
facet normal 1 0 -1.192093E-07
outer loop
	vertex 0.02460001 -0.003740939 0.004690987
	vertex 0.02460001 -0.004242835 0.004242387
	vertex 0.02460001 0.003740939 0.004690987
endloop
endfacet
facet normal 1 0 -1.192093E-07
outer loop
	vertex 0.02460001 0.003740939 0.004690987
	vertex 0.02460001 -0.004242835 0.004242387
	vertex 0.02460001 0.004242835 0.004242387
endloop
endfacet
facet normal 1 0 -1.192093E-07
outer loop
	vertex 0.02460001 -0.004242835 0.004242387
	vertex 0.02460001 -0.004690934 0.003740893
	vertex 0.02460001 0.004242835 0.004242387
endloop
endfacet
facet normal 1 0 -1.192093E-07
outer loop
	vertex 0.02460001 0.004242835 0.004242387
	vertex 0.02460001 -0.004690934 0.003740893
	vertex 0.02460001 0.004690934 0.003740893
endloop
endfacet
facet normal 1 0 -1.192093E-07
outer loop
	vertex 0.02460001 -0.004690934 0.003740893
	vertex 0.02460001 -0.005080144 0.003192435
	vertex 0.02460001 0.004690934 0.003740893
endloop
endfacet
facet normal 1 0 -1.192093E-07
outer loop
	vertex 0.02460001 0.004690934 0.003740893
	vertex 0.02460001 -0.005080144 0.003192435
	vertex 0.02460001 0.005080144 0.003192435
endloop
endfacet
facet normal 1 0 -1.192093E-07
outer loop
	vertex 0.02460001 -0.005080144 0.003192435
	vertex 0.02460001 -0.005405813 0.002603299
	vertex 0.02460001 0.005080144 0.003192435
endloop
endfacet
facet normal 1 0 -1.192093E-07
outer loop
	vertex 0.02460001 0.005080144 0.003192435
	vertex 0.02460001 -0.005405813 0.002603299
	vertex 0.02460001 0.005405813 0.002603299
endloop
endfacet
facet normal 1 0 -1.192093E-07
outer loop
	vertex 0.02460001 -0.005405813 0.002603299
	vertex 0.02460001 -0.005663367 0.001981362
	vertex 0.02460001 0.005405813 0.002603299
endloop
endfacet
facet normal 1 0 -1.192093E-07
outer loop
	vertex 0.02460001 0.005405813 0.002603299
	vertex 0.02460001 -0.005663367 0.001981362
	vertex 0.02460001 0.005663367 0.001981362
endloop
endfacet
facet normal 1 0 -1.192093E-07
outer loop
	vertex 0.02460001 -0.005663367 0.001981362
	vertex 0.02460001 -0.005849499 0.001335107
	vertex 0.02460001 0.005663367 0.001981362
endloop
endfacet
facet normal 1 0 -1.192093E-07
outer loop
	vertex 0.02460001 0.005663367 0.001981362
	vertex 0.02460001 -0.005849499 0.001335107
	vertex 0.02460001 0.005849499 0.001335107
endloop
endfacet
facet normal 1 0 -1.192093E-07
outer loop
	vertex 0.02460001 -0.005849499 0.001335107
	vertex 0.02460001 -0.005962164 0.0006725608
	vertex 0.02460001 0.005849499 0.001335107
endloop
endfacet
facet normal 1 0 -1.192093E-07
outer loop
	vertex 0.02460001 0.005849499 0.001335107
	vertex 0.02460001 -0.005962164 0.0006725608
	vertex 0.02460001 0.005962164 0.0006725608
endloop
endfacet
facet normal 1 0 -1.192093E-07
outer loop
	vertex 0.02460001 -0.005962164 0.0006725608
	vertex 0.02460001 -0.006 -3.137256E-09
	vertex 0.02460001 0.005962164 0.0006725608
endloop
endfacet
facet normal 1 0 -1.192093E-07
outer loop
	vertex 0.02460001 -0.006 -3.137256E-09
	vertex 0.02460001 0.006 -3.137256E-09
	vertex 0.02460001 0.005962164 0.0006725608
endloop
endfacet
facet normal 1 0 -1.192093E-07
outer loop
	vertex 0.02460001 -0.005962164 -0.0006725671
	vertex 0.02460001 0.006 -3.137256E-09
	vertex 0.02460001 -0.006 -3.137256E-09
endloop
endfacet
facet normal 1 0 -1.192093E-07
outer loop
	vertex 0.02460001 0.005962164 -0.0006725671
	vertex 0.02460001 0.006 -3.137256E-09
	vertex 0.02460001 -0.005962164 -0.0006725671
endloop
endfacet
facet normal 1 0 -1.192093E-07
outer loop
	vertex 0.02460001 -0.005849499 -0.001335114
	vertex 0.02460001 0.005962164 -0.0006725671
	vertex 0.02460001 -0.005962164 -0.0006725671
endloop
endfacet
facet normal 1 0 -1.192093E-07
outer loop
	vertex 0.02460001 0.005849499 -0.001335114
	vertex 0.02460001 0.005962164 -0.0006725671
	vertex 0.02460001 -0.005849499 -0.001335114
endloop
endfacet
facet normal 1 0 -1.192093E-07
outer loop
	vertex 0.02460001 -0.005663367 -0.001981369
	vertex 0.02460001 0.005849499 -0.001335114
	vertex 0.02460001 -0.005849499 -0.001335114
endloop
endfacet
facet normal 1 0 -1.192093E-07
outer loop
	vertex 0.02460001 0.005663367 -0.001981369
	vertex 0.02460001 0.005849499 -0.001335114
	vertex 0.02460001 -0.005663367 -0.001981369
endloop
endfacet
facet normal 1 0 -1.192093E-07
outer loop
	vertex 0.02460001 -0.005405813 -0.002603307
	vertex 0.02460001 0.005663367 -0.001981369
	vertex 0.02460001 -0.005663367 -0.001981369
endloop
endfacet
facet normal 1 0 -1.192093E-07
outer loop
	vertex 0.02460001 0.005405813 -0.002603307
	vertex 0.02460001 0.005663367 -0.001981369
	vertex 0.02460001 -0.005405813 -0.002603307
endloop
endfacet
facet normal 1 0 -1.192093E-07
outer loop
	vertex 0.02460001 -0.005080144 -0.003192443
	vertex 0.02460001 0.005405813 -0.002603307
	vertex 0.02460001 -0.005405813 -0.002603307
endloop
endfacet
facet normal 1 0 -1.192093E-07
outer loop
	vertex 0.02460001 0.005080144 -0.003192443
	vertex 0.02460001 0.005405813 -0.002603307
	vertex 0.02460001 -0.005080144 -0.003192443
endloop
endfacet
facet normal 1 0 -1.192093E-07
outer loop
	vertex 0.02460001 -0.004690934 -0.003740899
	vertex 0.02460001 0.005080144 -0.003192443
	vertex 0.02460001 -0.005080144 -0.003192443
endloop
endfacet
facet normal 1 0 -1.192093E-07
outer loop
	vertex 0.02460001 0.004690934 -0.003740899
	vertex 0.02460001 0.005080144 -0.003192443
	vertex 0.02460001 -0.004690934 -0.003740899
endloop
endfacet
facet normal 1 0 -1.192093E-07
outer loop
	vertex 0.02460001 -0.004242835 -0.004242394
	vertex 0.02460001 0.004690934 -0.003740899
	vertex 0.02460001 -0.004690934 -0.003740899
endloop
endfacet
facet normal 1 0 -1.192093E-07
outer loop
	vertex 0.02460001 0.004242835 -0.004242394
	vertex 0.02460001 0.004690934 -0.003740899
	vertex 0.02460001 -0.004242835 -0.004242394
endloop
endfacet
facet normal 1 0 -1.192093E-07
outer loop
	vertex 0.02460001 -0.003740939 -0.004690993
	vertex 0.02460001 0.004242835 -0.004242394
	vertex 0.02460001 -0.004242835 -0.004242394
endloop
endfacet
facet normal 1 0 -1.192093E-07
outer loop
	vertex 0.02460001 0.003740939 -0.004690993
	vertex 0.02460001 0.004242835 -0.004242394
	vertex 0.02460001 -0.003740939 -0.004690993
endloop
endfacet
facet normal 1 0 -1.192093E-07
outer loop
	vertex 0.02460001 -0.003191905 -0.005080483
	vertex 0.02460001 0.003740939 -0.004690993
	vertex 0.02460001 -0.003740939 -0.004690993
endloop
endfacet
facet normal 1 0 -1.192093E-07
outer loop
	vertex 0.02460001 0.003191905 -0.005080483
	vertex 0.02460001 0.003740939 -0.004690993
	vertex 0.02460001 -0.003191905 -0.005080483
endloop
endfacet
facet normal 1 0 -1.192093E-07
outer loop
	vertex 0.02460001 -0.002603272 -0.005405753
	vertex 0.02460001 0.003191905 -0.005080483
	vertex 0.02460001 -0.003191905 -0.005080483
endloop
endfacet
facet normal 1 0 -1.192093E-07
outer loop
	vertex 0.02460001 0.002603272 -0.005405753
	vertex 0.02460001 0.003191905 -0.005080483
	vertex 0.02460001 -0.002603272 -0.005405753
endloop
endfacet
facet normal 1 0 -1.192093E-07
outer loop
	vertex 0.02460001 -0.001981958 -0.005663163
	vertex 0.02460001 0.002603272 -0.005405753
	vertex 0.02460001 -0.002603272 -0.005405753
endloop
endfacet
facet normal 1 0 -1.192093E-07
outer loop
	vertex 0.02460001 0.001981958 -0.005663163
	vertex 0.02460001 0.002603272 -0.005405753
	vertex 0.02460001 -0.001981958 -0.005663163
endloop
endfacet
facet normal 1 0 -1.192093E-07
outer loop
	vertex 0.02460001 -0.001335126 -0.00584957
	vertex 0.02460001 0.001981958 -0.005663163
	vertex 0.02460001 -0.001981958 -0.005663163
endloop
endfacet
facet normal 1 0 -1.192093E-07
outer loop
	vertex 0.02460001 0.001335126 -0.00584957
	vertex 0.02460001 0.001981958 -0.005663163
	vertex 0.02460001 -0.001335126 -0.00584957
endloop
endfacet
facet normal 1 0 -1.192093E-07
outer loop
	vertex 0.02460001 -0.00067147 -0.005962275
	vertex 0.02460001 0.001335126 -0.00584957
	vertex 0.02460001 -0.001335126 -0.00584957
endloop
endfacet
facet normal 1 0 -1.192093E-07
outer loop
	vertex 0.02460001 0.00067147 -0.005962275
	vertex 0.02460001 0.001335126 -0.00584957
	vertex 0.02460001 -0.00067147 -0.005962275
endloop
endfacet
facet normal 1 0 -1.192093E-07
outer loop
	vertex 0.02460001 1.02119E-11 -0.005999933
	vertex 0.02460001 0.00067147 -0.005962275
	vertex 0.02460001 -0.00067147 -0.005962275
endloop
endfacet
facet normal 5.960464E-08 0.7320338 0.6792157
outer loop
	vertex 0.02460001 0.004242835 0.004242387
	vertex 0.02460001 0.004690934 0.003740893
	vertex -0.0146 0.004242549 0.004242551
endloop
endfacet
facet normal 5.960464E-08 0.7569087 0.6513806
outer loop
	vertex -0.0146 0.004242549 0.004242551
	vertex 0.02460001 0.004690934 0.003740893
	vertex -0.0146 0.004690675 0.003741286
endloop
endfacet
facet normal 5.960464E-08 0.8034336 0.5930448
outer loop
	vertex 0.02460001 0.004690934 0.003740893
	vertex 0.02460001 0.005080144 0.003192435
	vertex -0.0146 0.004690675 0.003741286
endloop
endfacet
facet normal 5.960464E-08 0.8250797 0.5625347
outer loop
	vertex -0.0146 0.004690675 0.003741286
	vertex 0.02460001 0.005080144 0.003192435
	vertex -0.0146 0.005080568 0.003191729
endloop
endfacet
facet normal 5.960464E-08 0.8648071 0.4993138
outer loop
	vertex 0.02460001 0.005080144 0.003192435
	vertex 0.02460001 0.005405813 0.002603299
	vertex -0.0146 0.005080568 0.003191729
endloop
endfacet
facet normal 5.960464E-08 0.8828964 0.4665883
outer loop
	vertex -0.0146 0.005080568 0.003191729
	vertex 0.02460001 0.005405813 0.002603299
	vertex -0.0146 0.00540562 0.002603418
endloop
endfacet
facet normal 4.967054E-08 0.9152762 0.3993369
outer loop
	vertex 0.02460001 0.005405813 0.002603299
	vertex 0.02460001 0.005663367 0.001981362
	vertex -0.0146 0.00540562 0.002603418
endloop
endfacet
facet normal 3.973643E-08 0.9295762 0.364816
outer loop
	vertex -0.0146 0.00540562 0.002603418
	vertex 0.02460001 0.005663367 0.001981362
	vertex -0.0146 0.005663191 0.001981958
endloop
endfacet
facet normal 2.980232E-08 0.9542329 0.2943596
outer loop
	vertex 0.02460001 0.005663367 0.001981362
	vertex 0.02460001 0.005849499 0.001335107
	vertex -0.0146 0.005663191 0.001981958
endloop
endfacet
facet normal 2.980232E-08 0.9645731 0.2584619
outer loop
	vertex -0.0146 0.005663191 0.001981958
	vertex 0.02460001 0.005849499 0.001335107
	vertex -0.0146 0.005849587 0.001334654
endloop
endfacet
facet normal 2.483527E-08 0.9811832 0.1857155
outer loop
	vertex 0.02460001 0.005849499 0.001335107
	vertex 0.02460001 0.005962164 0.0006725608
	vertex -0.0146 0.005849587 0.001334654
endloop
endfacet
facet normal 1.986822E-08 0.9874402 0.1489131
outer loop
	vertex -0.0146 0.005849587 0.001334654
	vertex 0.02460001 0.005962164 0.0006725608
	vertex -0.0146 0.005962011 0.0006734213
endloop
endfacet
facet normal 9.934108E-09 0.995797 0.07474206
outer loop
	vertex 0.02460001 0.005962164 0.0006725608
	vertex 0.02460001 0.006 -3.137256E-09
	vertex -0.0146 0.005962011 0.0006734213
endloop
endfacet
facet normal 4.967054E-09 0.9978973 0.03738191
outer loop
	vertex 0.02460001 0.006 -3.137256E-09
	vertex -0.0146 0.006 1.519357E-09
	vertex -0.0146 0.005962011 0.0006734213
endloop
endfacet
facet normal -4.967054E-09 0.9978997 -0.0373605
outer loop
	vertex 0.02460001 0.006 -3.137256E-09
	vertex 0.02460001 0.005962164 -0.0006725671
	vertex -0.0146 0.006 1.519357E-09
endloop
endfacet
facet normal -9.934108E-09 0.9957969 -0.0747427
outer loop
	vertex -0.0146 0.006 1.519357E-09
	vertex 0.02460001 0.005962164 -0.0006725671
	vertex -0.0146 0.005962011 -0.0006734187
endloop
endfacet
facet normal -1.986822E-08 0.9874371 -0.1489271
outer loop
	vertex 0.02460001 0.005962164 -0.0006725671
	vertex 0.02460001 0.005849499 -0.001335114
	vertex -0.0146 0.005962011 -0.0006734187
endloop
endfacet
facet normal -2.483527E-08 0.9811807 -0.1857377
outer loop
	vertex -0.0146 0.005962011 -0.0006734187
	vertex 0.02460001 0.005849499 -0.001335114
	vertex -0.0146 0.005849587 -0.001334651
endloop
endfacet
facet normal -2.980232E-08 0.9645866 -0.2584236
outer loop
	vertex 0.02460001 0.005849499 -0.001335114
	vertex 0.02460001 0.005663367 -0.001981369
	vertex -0.0146 0.005849587 -0.001334651
endloop
endfacet
facet normal -2.980232E-08 0.9542363 -0.2943452
outer loop
	vertex -0.0146 0.005849587 -0.001334651
	vertex 0.02460001 0.005663367 -0.001981369
	vertex -0.0146 0.005663191 -0.001981955
endloop
endfacet
facet normal -3.973643E-08 0.9295825 -0.3648024
outer loop
	vertex 0.02460001 0.005663367 -0.001981369
	vertex 0.02460001 0.005405813 -0.002603307
	vertex -0.0146 0.005663191 -0.001981955
endloop
endfacet
facet normal -4.967054E-08 0.9152625 -0.3993758
outer loop
	vertex -0.0146 0.005663191 -0.001981955
	vertex 0.02460001 0.005405813 -0.002603307
	vertex -0.0146 0.00540562 -0.002603416
endloop
endfacet
facet normal -5.960464E-08 0.8828668 -0.4666359
outer loop
	vertex 0.02460001 0.005405813 -0.002603307
	vertex 0.02460001 0.005080144 -0.003192443
	vertex -0.0146 0.00540562 -0.002603416
endloop
endfacet
facet normal -5.960464E-08 0.8648006 -0.4993275
outer loop
	vertex -0.0146 0.00540562 -0.002603416
	vertex 0.02460001 0.005080144 -0.003192443
	vertex -0.0146 0.005080568 -0.003191726
endloop
endfacet
facet normal -5.960464E-08 0.8250948 -0.5625157
outer loop
	vertex 0.02460001 0.005080144 -0.003192443
	vertex 0.02460001 0.004690934 -0.003740899
	vertex -0.0146 0.005080568 -0.003191726
endloop
endfacet
facet normal -5.960464E-08 0.8034633 -0.5929977
outer loop
	vertex -0.0146 0.005080568 -0.003191726
	vertex 0.02460001 0.004690934 -0.003740899
	vertex -0.0146 0.004690675 -0.003741282
endloop
endfacet
facet normal -5.960464E-08 0.7569271 -0.6513619
outer loop
	vertex 0.02460001 0.004690934 -0.003740899
	vertex 0.02460001 0.004242835 -0.004242394
	vertex -0.0146 0.004690675 -0.003741282
endloop
endfacet
facet normal -5.960464E-08 0.7320185 -0.6792346
outer loop
	vertex -0.0146 0.004690675 -0.003741282
	vertex 0.02460001 0.004242835 -0.004242394
	vertex -0.0146 0.004242549 -0.004242548
endloop
endfacet
facet normal -7.947286E-08 -0.6792715 -0.7319817
outer loop
	vertex -0.0146 -0.003741283 -0.004690674
	vertex 0.02460001 -0.004242835 -0.004242394
	vertex -0.0146 -0.004242549 -0.004242548
endloop
endfacet
facet normal -9.934107E-08 -0.651399 -0.7568902
outer loop
	vertex 0.02460001 -0.003740939 -0.004690993
	vertex 0.02460001 -0.004242835 -0.004242394
	vertex -0.0146 -0.003741283 -0.004690674
endloop
endfacet
facet normal -1.192093E-07 -0.5929979 -0.8034632
outer loop
	vertex -0.0146 -0.003191727 -0.005080567
	vertex 0.02460001 -0.003740939 -0.004690993
	vertex -0.0146 -0.003741283 -0.004690674
endloop
endfacet
facet normal -1.192093E-07 -0.5624716 -0.8251227
outer loop
	vertex 0.02460001 -0.003191905 -0.005080483
	vertex 0.02460001 -0.003740939 -0.004690993
	vertex -0.0146 -0.003191727 -0.005080567
endloop
endfacet
facet normal -1.192093E-07 -0.4992829 -0.8648286
outer loop
	vertex -0.0146 -0.002603416 -0.005405619
	vertex 0.02460001 -0.003191905 -0.005080483
	vertex -0.0146 -0.003191727 -0.005080567
endloop
endfacet
facet normal -1.192093E-07 -0.4665912 -0.8828949
outer loop
	vertex 0.02460001 -0.002603272 -0.005405753
	vertex 0.02460001 -0.003191905 -0.005080483
	vertex -0.0146 -0.002603416 -0.005405619
endloop
endfacet
facet normal -1.192093E-07 -0.3993753 -0.9152628
outer loop
	vertex -0.0146 -0.001981957 -0.00566319
	vertex 0.02460001 -0.002603272 -0.005405753
	vertex -0.0146 -0.002603416 -0.005405619
endloop
endfacet
facet normal -1.192093E-07 -0.3648515 -0.9295655
outer loop
	vertex 0.02460001 -0.001981958 -0.005663163
	vertex 0.02460001 -0.002603272 -0.005405753
	vertex -0.0146 -0.001981957 -0.00566319
endloop
endfacet
facet normal -1.192093E-07 -0.2943692 -0.9542249
outer loop
	vertex -0.0146 -0.001334652 -0.005849586
	vertex 0.02460001 -0.001981958 -0.005663163
	vertex -0.0146 -0.001981957 -0.00566319
endloop
endfacet
facet normal -1.192093E-07 -0.2584371 -0.9645776
outer loop
	vertex 0.02460001 -0.001335126 -0.00584957
	vertex 0.02460001 -0.001981958 -0.005663163
	vertex -0.0146 -0.001334652 -0.005849586
endloop
endfacet
facet normal -1.192093E-07 -0.1856659 -0.981193
outer loop
	vertex -0.0146 -0.000672122 -0.005962125
	vertex 0.02460001 -0.001335126 -0.00584957
	vertex -0.0146 -0.001334652 -0.005849586
endloop
endfacet
facet normal -1.192093E-07 -0.1488159 -0.987451
outer loop
	vertex 0.02460001 -0.00067147 -0.005962275
	vertex 0.02460001 -0.001335126 -0.00584957
	vertex -0.0146 -0.000672122 -0.005962125
endloop
endfacet
facet normal -1.192093E-07 -0.074642 -0.9958084
outer loop
	vertex -0.0146 1.02119E-11 -0.006
	vertex 0.02460001 -0.00067147 -0.005962275
	vertex -0.0146 -0.000672122 -0.005962125
endloop
endfacet
facet normal -1.192093E-07 -0.0372959 -0.9979071
outer loop
	vertex 0.02460001 1.02119E-11 -0.005999933
	vertex 0.02460001 -0.00067147 -0.005962275
	vertex -0.0146 1.02119E-11 -0.006
endloop
endfacet
facet normal -1.192093E-07 0.0373457 -0.9979014
outer loop
	vertex -0.0146 0.000672122 -0.005962125
	vertex 0.02460001 1.02119E-11 -0.005999933
	vertex -0.0146 1.02119E-11 -0.006
endloop
endfacet
facet normal -1.192093E-07 0.07464117 -0.9958085
outer loop
	vertex 0.02460001 0.00067147 -0.005962275
	vertex 0.02460001 1.02119E-11 -0.005999933
	vertex -0.0146 0.000672122 -0.005962125
endloop
endfacet
facet normal -1.192093E-07 0.1487866 -0.9874576
outer loop
	vertex -0.0146 0.001334652 -0.005849586
	vertex 0.02460001 0.00067147 -0.005962275
	vertex -0.0146 0.000672122 -0.005962125
endloop
endfacet
facet normal -1.192093E-07 0.1856144 -0.9811988
outer loop
	vertex 0.02460001 0.001335126 -0.00584957
	vertex 0.02460001 0.00067147 -0.005962275
	vertex -0.0146 0.001334652 -0.005849586
endloop
endfacet
facet normal -1.192093E-07 0.2584255 -0.9645815
outer loop
	vertex -0.0146 0.001981957 -0.00566319
	vertex 0.02460001 0.001335126 -0.00584957
	vertex -0.0146 0.001334652 -0.005849586
endloop
endfacet
facet normal -1.192093E-07 0.294398 -0.9542181
outer loop
	vertex 0.02460001 0.001981958 -0.005663163
	vertex 0.02460001 0.001335126 -0.00584957
	vertex -0.0146 0.001981957 -0.00566319
endloop
endfacet
facet normal -1.192093E-07 0.3648655 -0.9295589
outer loop
	vertex -0.0146 0.002603416 -0.005405619
	vertex 0.02460001 0.001981958 -0.005663163
	vertex -0.0146 0.001981957 -0.00566319
endloop
endfacet
facet normal -1.192093E-07 0.3993866 -0.9152589
outer loop
	vertex 0.02460001 0.002603272 -0.005405753
	vertex 0.02460001 0.001981958 -0.005663163
	vertex -0.0146 0.002603416 -0.005405619
endloop
endfacet
facet normal -1.192093E-07 0.4665887 -0.8828963
outer loop
	vertex -0.0146 0.003191727 -0.005080567
	vertex 0.02460001 0.002603272 -0.005405753
	vertex -0.0146 0.002603416 -0.005405619
endloop
endfacet
facet normal -1.192093E-07 0.4992698 -0.8648348
outer loop
	vertex 0.02460001 0.003191905 -0.005080483
	vertex 0.02460001 0.002603272 -0.005405753
	vertex -0.0146 0.003191727 -0.005080567
endloop
endfacet
facet normal -1.192093E-07 0.5624902 -0.8251077
outer loop
	vertex -0.0146 0.003741283 -0.004690674
	vertex 0.02460001 0.003191905 -0.005080483
	vertex -0.0146 0.003191727 -0.005080567
endloop
endfacet
facet normal -1.192093E-07 0.5930001 -0.8034617
outer loop
	vertex 0.02460001 0.003740939 -0.004690993
	vertex 0.02460001 0.003191905 -0.005080483
	vertex -0.0146 0.003741283 -0.004690674
endloop
endfacet
facet normal -9.934107E-08 0.6513802 -0.756909
outer loop
	vertex -0.0146 0.004242549 -0.004242548
	vertex 0.02460001 0.003740939 -0.004690993
	vertex -0.0146 0.003741283 -0.004690674
endloop
endfacet
facet normal -7.947286E-08 0.6792523 -0.7319972
outer loop
	vertex 0.02460001 0.004242835 -0.004242394
	vertex 0.02460001 0.003740939 -0.004690993
	vertex -0.0146 0.004242549 -0.004242548
endloop
endfacet
facet normal -0.0002037088 -0.7067347 0.7066517
outer loop
	vertex -0.0246 -0.001202294 0.001201764
	vertex -0.0146 -0.001250378 0.001151685
	vertex -0.0146 -0.001151684 0.001250379
endloop
endfacet
facet normal -0.0002229214 -0.6661361 0.7440491
outer loop
	vertex -0.0246 -0.001202294 0.001201764
	vertex -0.0146 -0.001151684 0.001250379
	vertex -0.0146 -0.001044101 0.001341353
endloop
endfacet
facet normal -0.0002760688 -0.6364015 0.7683819
outer loop
	vertex -0.0246 -0.000998992 0.001375486
	vertex -0.0246 -0.001202294 0.001201764
	vertex -0.0146 -0.001044101 0.001341353
endloop
endfacet
facet normal -0.0002190471 -0.5830373 0.8117386
outer loop
	vertex -0.0246 -0.000998992 0.001375486
	vertex -0.0146 -0.001044101 0.001341353
	vertex -0.0146 -0.000929356 0.001423384
endloop
endfacet
facet normal -0.0002417564 -0.5369061 0.8418791
outer loop
	vertex -0.0246 -0.000998992 0.001375486
	vertex -0.0146 -0.000929356 0.001423384
	vertex -0.0146 -0.000809431 0.001494904
endloop
endfacet
facet normal -0.0002553463 -0.5058119 0.8598915
outer loop
	vertex -0.0246 -0.000771635 0.00151464
	vertex -0.0246 -0.000998992 0.001375486
	vertex -0.0146 -0.000809431 0.001494904
endloop
endfacet
facet normal -0.0002459884 -0.4436695 0.8955135
outer loop
	vertex -0.0246 -0.000771635 0.00151464
	vertex -0.0146 -0.000809431 0.001494904
	vertex -0.0146 -0.000682992 0.001556575
endloop
endfacet
facet normal -0.0002713799 -0.3935139 0.9175352
outer loop
	vertex -0.0246 -0.000771635 0.00151464
	vertex -0.0146 -0.000682992 0.001556575
	vertex -0.0146 -0.000551509 0.001607937
endloop
endfacet
facet normal -0.000224789 -0.3628412 0.929207
outer loop
	vertex -0.0246 -0.000525678 0.001616628
	vertex -0.0246 -0.000771635 0.00151464
	vertex -0.0146 -0.000551509 0.001607937
endloop
endfacet
facet normal -0.0002728303 -0.2932351 0.9553556
outer loop
	vertex -0.0246 -0.000525678 0.001616628
	vertex -0.0146 -0.000551509 0.001607937
	vertex -0.0146 -0.000417543 0.001647919
endloop
endfacet
facet normal -0.0003053745 -0.2395867 0.9689602
outer loop
	vertex -0.0246 -0.000525678 0.001616628
	vertex -0.0146 -0.000417543 0.001647919
	vertex -0.0146 -0.000280093 0.001676605
endloop
endfacet
facet normal -0.000197192 -0.2099685 0.9750326
outer loop
	vertex -0.0246 -0.00026558 0.001679093
	vertex -0.0246 -0.000525678 0.001616628
	vertex -0.0146 -0.000280093 0.001676605
endloop
endfacet
facet normal -0.000300626 -0.1344828 0.9902244
outer loop
	vertex -0.0246 -0.00026558 0.001679093
	vertex -0.0146 -0.000280093 0.001676605
	vertex -0.0146 -0.000139968 0.001694091
endloop
endfacet
facet normal -0.0003324548 -0.07975525 0.9947646
outer loop
	vertex -0.0246 -0.00026558 0.001679093
	vertex -0.0146 -0.000139968 0.001694091
	vertex -0.0146 1.02119E-11 0.001700001
endloop
endfacet
facet normal -0.0002684593 -0.0522253 0.9959079
outer loop
	vertex -0.0246 1.02119E-11 0.001699867
	vertex -0.0246 -0.00026558 0.001679093
	vertex -0.0146 1.02119E-11 0.001700001
endloop
endfacet
facet normal -0.0002412796 0.0275296 0.9988484
outer loop
	vertex -0.0246 1.02119E-11 0.001699867
	vertex -0.0146 1.02119E-11 0.001700001
	vertex -0.0146 0.000139968 0.001694091
endloop
endfacet
facet normal -0.0002513528 0.07971026 0.9947549
outer loop
	vertex -0.0246 0.00026558 0.001679093
	vertex -0.0246 1.02119E-11 0.001699867
	vertex -0.0146 0.000139968 0.001694091
endloop
endfacet
facet normal -0.0001636346 0.1345086 0.9902287
outer loop
	vertex -0.0246 0.00026558 0.001679093
	vertex -0.0146 0.000139968 0.001694091
	vertex -0.0146 0.000280093 0.001676605
endloop
endfacet
facet normal -0.0001657208 0.1885957 0.9811949
outer loop
	vertex -0.0246 0.00026558 0.001679093
	vertex -0.0146 0.000280093 0.001676605
	vertex -0.0146 0.000417543 0.001647919
endloop
endfacet
facet normal -0.0003308058 0.2369326 0.9693818
outer loop
	vertex -0.0246 0.000525678 0.001616628
	vertex -0.0246 0.00026558 0.001679093
	vertex -0.0146 0.000417543 0.001647919
endloop
endfacet
facet normal -0.00016584 0.2932753 0.9553495
outer loop
	vertex -0.0246 0.000525678 0.001616628
	vertex -0.0146 0.000417543 0.001647919
	vertex -0.0146 0.000551509 0.001607937
endloop
endfacet
facet normal -0.0001746814 0.345299 0.9375047
outer loop
	vertex -0.0246 0.000525678 0.001616628
	vertex -0.0146 0.000551509 0.001607937
	vertex -0.0146 0.000682992 0.001556575
endloop
endfacet
facet normal -0.0003225207 0.3881844 0.9193109
outer loop
	vertex -0.0246 0.000771635 0.00151464
	vertex -0.0246 0.000525678 0.001616628
	vertex -0.0146 0.000682992 0.001556575
endloop
endfacet
facet normal -0.0001782576 0.4437067 0.8954992
outer loop
	vertex -0.0246 0.000771635 0.00151464
	vertex -0.0146 0.000682992 0.001556575
	vertex -0.0146 0.000809431 0.001494904
endloop
endfacet
facet normal -0.0001902978 0.4923281 0.8691859
outer loop
	vertex -0.0246 0.000771635 0.00151464
	vertex -0.0146 0.000809431 0.001494904
	vertex -0.0146 0.000929356 0.001423384
endloop
endfacet
facet normal -0.0003119508 0.5296155 0.8457028
outer loop
	vertex -0.0246 0.000998992 0.001375486
	vertex -0.0246 0.000771635 0.00151464
	vertex -0.0146 0.000929356 0.001423384
endloop
endfacet
facet normal -0.0001837413 0.5830604 0.8117243
outer loop
	vertex -0.0246 0.000998992 0.001375486
	vertex -0.0146 0.000929356 0.001423384
	vertex -0.0146 0.001044101 0.001341353
endloop
endfacet
facet normal -0.0001964172 0.6262734 0.7780964
outer loop
	vertex -0.0246 0.000998992 0.001375486
	vertex -0.0146 0.001044101 0.001341353
	vertex -0.0146 0.001151684 0.001250379
endloop
endfacet
facet normal -0.000295043 0.6572849 0.7507016
outer loop
	vertex -0.0246 0.001202294 0.001201764
	vertex -0.0246 0.000998992 0.001375486
	vertex -0.0146 0.001151684 0.001250379
endloop
endfacet
facet normal -0.0002025962 0.7067647 0.7066216
outer loop
	vertex -0.0246 0.001202294 0.001201764
	vertex -0.0146 0.001151684 0.001250379
	vertex -0.0146 0.001250378 0.001151685
endloop
endfacet
facet normal -0.0002238154 0.7441627 0.6660222
outer loop
	vertex -0.0246 0.001202294 0.001201764
	vertex -0.0146 0.001250378 0.001151685
	vertex -0.0146 0.001341352 0.001044103
endloop
endfacet
facet normal -0.0002770821 0.7684362 0.6363693
outer loop
	vertex -0.0246 0.001375115 0.0009993209
	vertex -0.0246 0.001202294 0.001201764
	vertex -0.0146 0.001341352 0.001044103
endloop
endfacet
facet normal -0.0002233386 0.8116801 0.5831177
outer loop
	vertex -0.0246 0.001375115 0.0009993209
	vertex -0.0146 0.001341352 0.001044103
	vertex -0.0146 0.001423383 0.0009293581
endloop
endfacet
facet normal -0.0002456307 0.8418182 0.5369905
outer loop
	vertex -0.0246 0.001375115 0.0009993209
	vertex -0.0146 0.001423383 0.0009293581
	vertex -0.0146 0.001494902 0.0008094317
endloop
endfacet
facet normal -0.0002543628 0.8598039 0.5059486
outer loop
	vertex -0.0246 0.001514629 0.0007719366
	vertex -0.0246 0.001375115 0.0009993209
	vertex -0.0146 0.001494902 0.0008094317
endloop
endfacet
facet normal -0.0002422333 0.8954856 0.4437238
outer loop
	vertex -0.0246 0.001514629 0.0007719366
	vertex -0.0146 0.001494902 0.0008094317
	vertex -0.0146 0.001556574 0.0006829925
endloop
endfacet
facet normal -0.0002660056 0.9175067 0.3935716
outer loop
	vertex -0.0246 0.001514629 0.0007719366
	vertex -0.0146 0.001556574 0.0006829925
	vertex -0.0146 0.001607936 0.0005515103
endloop
endfacet
facet normal -0.0002253254 0.9292049 0.3628174
outer loop
	vertex -0.0246 0.00161681 0.0005249797
	vertex -0.0246 0.001514629 0.0007719366
	vertex -0.0146 0.001607936 0.0005515103
endloop
endfacet
facet normal -0.0002723982 0.9553502 0.293277
outer loop
	vertex -0.0246 0.00161681 0.0005249797
	vertex -0.0146 0.001607936 0.0005515103
	vertex -0.0146 0.001647913 0.0004175833
endloop
endfacet
facet normal -0.0003058165 0.9689399 0.2397242
outer loop
	vertex -0.0246 0.00161681 0.0005249797
	vertex -0.0146 0.001647913 0.0004175833
	vertex -0.0146 0.001676434 0.0002813792
endloop
endfacet
facet normal -0.0001978576 0.9750066 0.2102121
outer loop
	vertex -0.0246 0.001678802 0.0002671356
	vertex -0.0246 0.00161681 0.0005249797
	vertex -0.0146 0.001676434 0.0002813792
endloop
endfacet
facet normal -0.0002980108 0.9901531 0.1350341
outer loop
	vertex -0.0246 0.001678802 0.0002671356
	vertex -0.0146 0.001676434 0.0002813792
	vertex -0.0146 0.001693797 0.0001421856
endloop
endfacet
facet normal -0.0003254628 0.9947102 0.08020498
outer loop
	vertex -0.0146 0.0017 1.519357E-09
	vertex -0.0246 0.001678802 0.0002671356
	vertex -0.0146 0.001693797 0.0001421856
endloop
endfacet
facet normal -0.0002587559 0.9958723 0.05244935
outer loop
	vertex -0.0246 0.0017 2.450679E-09
	vertex -0.0246 0.001678802 0.0002671356
	vertex -0.0146 0.0017 1.519357E-09
endloop
endfacet
facet normal -0.000231976 0.9988294 -0.02775529
outer loop
	vertex -0.0246 0.0017 2.450679E-09
	vertex -0.0146 0.0017 1.519357E-09
	vertex -0.0146 0.001693797 -0.0001421835
endloop
endfacet
facet normal -0.000244628 0.9947002 -0.08016098
outer loop
	vertex -0.0246 0.001678802 -0.0002671307
	vertex -0.0246 0.0017 2.450679E-09
	vertex -0.0146 0.001693797 -0.0001421835
endloop
endfacet
facet normal -0.0001607413 0.9901567 -0.1350631
outer loop
	vertex -0.0246 0.001678802 -0.0002671307
	vertex -0.0146 0.001693797 -0.0001421835
	vertex -0.0146 0.001676434 -0.0002813776
endloop
endfacet
facet normal -0.0001652539 0.9811124 -0.1890401
outer loop
	vertex -0.0246 0.001678802 -0.0002671307
	vertex -0.0146 0.001676434 -0.0002813776
	vertex -0.0146 0.001647913 -0.0004175816
endloop
endfacet
facet normal -0.0003291716 0.9693431 -0.2371921
outer loop
	vertex -0.0246 0.00161681 -0.0005249766
	vertex -0.0246 0.001678802 -0.0002671307
	vertex -0.0146 0.001647913 -0.0004175816
endloop
endfacet
facet normal -0.0001681397 0.9553439 -0.2933174
outer loop
	vertex -0.0246 0.00161681 -0.0005249766
	vertex -0.0146 0.001647913 -0.0004175816
	vertex -0.0146 0.001607936 -0.0005515077
endloop
endfacet
facet normal -0.0001719097 0.9375293 -0.3452233
outer loop
	vertex -0.0246 0.00161681 -0.0005249766
	vertex -0.0146 0.001607936 -0.0005515077
	vertex -0.0146 0.001556574 -0.0006829904
endloop
endfacet
facet normal -0.0003183087 0.919313 -0.3881505
outer loop
	vertex -0.0246 0.001514629 -0.0007719317
	vertex -0.0246 0.00161681 -0.0005249766
	vertex -0.0146 0.001556574 -0.0006829904
endloop
endfacet
facet normal -0.0001707574 0.8954748 -0.4437541
outer loop
	vertex -0.0246 0.001514629 -0.0007719317
	vertex -0.0146 0.001556574 -0.0006829904
	vertex -0.0146 0.001494902 -0.0008094296
endloop
endfacet
facet normal -0.0001857777 0.8691592 -0.4923798
outer loop
	vertex -0.0246 0.001514629 -0.0007719317
	vertex -0.0146 0.001494902 -0.0008094296
	vertex -0.0146 0.001423383 -0.0009293546
endloop
endfacet
facet normal -0.0003123581 0.8456149 -0.5297513
outer loop
	vertex -0.0246 0.001375115 -0.000999316
	vertex -0.0246 0.001514629 -0.0007719317
	vertex -0.0146 0.001423383 -0.0009293546
endloop
endfacet
facet normal -0.0001868606 0.8116619 -0.5831465
outer loop
	vertex -0.0246 0.001375115 -0.000999316
	vertex -0.0146 0.001423383 -0.0009293546
	vertex -0.0146 0.001341352 -0.0010441
endloop
endfacet
facet normal -0.0002012253 0.778036 -0.6263565
outer loop
	vertex -0.0246 0.001375115 -0.000999316
	vertex -0.0146 0.001341352 -0.0010441
	vertex -0.0146 0.001250378 -0.001151683
endloop
endfacet
facet normal -0.0002956986 0.750754 -0.6572554
outer loop
	vertex -0.0246 0.001202294 -0.001201759
	vertex -0.0246 0.001375115 -0.000999316
	vertex -0.0146 0.001250378 -0.001151683
endloop
endfacet
facet normal -1 0 1.192093E-07
outer loop
	vertex -0.0246 1.02119E-11 0.001699867
	vertex -0.0246 0.00026558 0.001679093
	vertex -0.0246 -0.00026558 0.001679093
endloop
endfacet
facet normal -1 0 1.192093E-07
outer loop
	vertex -0.0246 0.00026558 0.001679093
	vertex -0.0246 0.000525678 0.001616628
	vertex -0.0246 -0.00026558 0.001679093
endloop
endfacet
facet normal -1 0 1.192093E-07
outer loop
	vertex -0.0246 -0.00026558 0.001679093
	vertex -0.0246 0.000525678 0.001616628
	vertex -0.0246 -0.000525678 0.001616628
endloop
endfacet
facet normal -1 0 1.192093E-07
outer loop
	vertex -0.0246 0.000525678 0.001616628
	vertex -0.0246 0.000771635 0.00151464
	vertex -0.0246 -0.000525678 0.001616628
endloop
endfacet
facet normal -1 0 1.192093E-07
outer loop
	vertex -0.0246 -0.000525678 0.001616628
	vertex -0.0246 0.000771635 0.00151464
	vertex -0.0246 -0.000771635 0.00151464
endloop
endfacet
facet normal -1 0 1.192093E-07
outer loop
	vertex -0.0246 0.000771635 0.00151464
	vertex -0.0246 0.000998992 0.001375486
	vertex -0.0246 -0.000771635 0.00151464
endloop
endfacet
facet normal -1 0 1.192093E-07
outer loop
	vertex -0.0246 -0.000771635 0.00151464
	vertex -0.0246 0.000998992 0.001375486
	vertex -0.0246 -0.000998992 0.001375486
endloop
endfacet
facet normal -1 0 1.192093E-07
outer loop
	vertex -0.0246 0.000998992 0.001375486
	vertex -0.0246 0.001202294 0.001201764
	vertex -0.0246 -0.000998992 0.001375486
endloop
endfacet
facet normal -1 0 1.192093E-07
outer loop
	vertex -0.0246 -0.000998992 0.001375486
	vertex -0.0246 0.001202294 0.001201764
	vertex -0.0246 -0.001202294 0.001201764
endloop
endfacet
facet normal -1 0 1.192093E-07
outer loop
	vertex -0.0246 0.001202294 0.001201764
	vertex -0.0246 0.001375115 0.0009993209
	vertex -0.0246 -0.001202294 0.001201764
endloop
endfacet
facet normal -1 0 1.192093E-07
outer loop
	vertex -0.0246 -0.001202294 0.001201764
	vertex -0.0246 0.001375115 0.0009993209
	vertex -0.0246 -0.001375115 0.0009993209
endloop
endfacet
facet normal -1 0 1.192093E-07
outer loop
	vertex -0.0246 0.001375115 0.0009993209
	vertex -0.0246 0.001514629 0.0007719366
	vertex -0.0246 -0.001375115 0.0009993209
endloop
endfacet
facet normal -1 0 1.192093E-07
outer loop
	vertex -0.0246 -0.001375115 0.0009993209
	vertex -0.0246 0.001514629 0.0007719366
	vertex -0.0246 -0.001514629 0.0007719366
endloop
endfacet
facet normal -1 0 1.192093E-07
outer loop
	vertex -0.0246 0.001514629 0.0007719366
	vertex -0.0246 0.00161681 0.0005249797
	vertex -0.0246 -0.001514629 0.0007719366
endloop
endfacet
facet normal -1 0 1.192093E-07
outer loop
	vertex -0.0246 -0.001514629 0.0007719366
	vertex -0.0246 0.00161681 0.0005249797
	vertex -0.0246 -0.00161681 0.0005249797
endloop
endfacet
facet normal -1 0 1.192093E-07
outer loop
	vertex -0.0246 0.00161681 0.0005249797
	vertex -0.0246 0.001678802 0.0002671356
	vertex -0.0246 -0.00161681 0.0005249797
endloop
endfacet
facet normal -1 0 1.192093E-07
outer loop
	vertex -0.0246 -0.00161681 0.0005249797
	vertex -0.0246 0.001678802 0.0002671356
	vertex -0.0246 -0.001678802 0.0002671356
endloop
endfacet
facet normal -1 0 1.192093E-07
outer loop
	vertex -0.0246 0.001678802 0.0002671356
	vertex -0.0246 0.0017 2.450679E-09
	vertex -0.0246 -0.001678802 0.0002671356
endloop
endfacet
facet normal -1 0 1.192093E-07
outer loop
	vertex -0.0246 0.0017 2.450679E-09
	vertex -0.0246 -0.0017 2.450679E-09
	vertex -0.0246 -0.001678802 0.0002671356
endloop
endfacet
facet normal -1 0 1.192093E-07
outer loop
	vertex -0.0246 0.001678802 -0.0002671307
	vertex -0.0246 -0.0017 2.450679E-09
	vertex -0.0246 0.0017 2.450679E-09
endloop
endfacet
facet normal -1 0 1.192093E-07
outer loop
	vertex -0.0246 -0.001678802 -0.0002671307
	vertex -0.0246 -0.0017 2.450679E-09
	vertex -0.0246 0.001678802 -0.0002671307
endloop
endfacet
facet normal -1 0 1.192093E-07
outer loop
	vertex -0.0246 0.00161681 -0.0005249766
	vertex -0.0246 -0.001678802 -0.0002671307
	vertex -0.0246 0.001678802 -0.0002671307
endloop
endfacet
facet normal -1 0 1.192093E-07
outer loop
	vertex -0.0246 -0.00161681 -0.0005249766
	vertex -0.0246 -0.001678802 -0.0002671307
	vertex -0.0246 0.00161681 -0.0005249766
endloop
endfacet
facet normal -1 0 1.192093E-07
outer loop
	vertex -0.0246 0.001514629 -0.0007719317
	vertex -0.0246 -0.00161681 -0.0005249766
	vertex -0.0246 0.00161681 -0.0005249766
endloop
endfacet
facet normal -1 0 1.192093E-07
outer loop
	vertex -0.0246 -0.001514629 -0.0007719317
	vertex -0.0246 -0.00161681 -0.0005249766
	vertex -0.0246 0.001514629 -0.0007719317
endloop
endfacet
facet normal -1 0 1.192093E-07
outer loop
	vertex -0.0246 0.001375115 -0.000999316
	vertex -0.0246 -0.001514629 -0.0007719317
	vertex -0.0246 0.001514629 -0.0007719317
endloop
endfacet
facet normal -1 0 1.192093E-07
outer loop
	vertex -0.0246 -0.001375115 -0.000999316
	vertex -0.0246 -0.001514629 -0.0007719317
	vertex -0.0246 0.001375115 -0.000999316
endloop
endfacet
facet normal -1 0 1.192093E-07
outer loop
	vertex -0.0246 0.001202294 -0.001201759
	vertex -0.0246 -0.001375115 -0.000999316
	vertex -0.0246 0.001375115 -0.000999316
endloop
endfacet
facet normal -1 0 1.192093E-07
outer loop
	vertex -0.0246 -0.001202294 -0.001201759
	vertex -0.0246 -0.001375115 -0.000999316
	vertex -0.0246 0.001202294 -0.001201759
endloop
endfacet
facet normal -1 0 1.192093E-07
outer loop
	vertex -0.0246 0.000998992 -0.001375481
	vertex -0.0246 -0.001202294 -0.001201759
	vertex -0.0246 0.001202294 -0.001201759
endloop
endfacet
facet normal -1 0 1.192093E-07
outer loop
	vertex -0.0246 -0.000998992 -0.001375481
	vertex -0.0246 -0.001202294 -0.001201759
	vertex -0.0246 0.000998992 -0.001375481
endloop
endfacet
facet normal -1 0 1.192093E-07
outer loop
	vertex -0.0246 0.000771635 -0.001514635
	vertex -0.0246 -0.000998992 -0.001375481
	vertex -0.0246 0.000998992 -0.001375481
endloop
endfacet
facet normal -1 0 1.192093E-07
outer loop
	vertex -0.0246 -0.000771635 -0.001514635
	vertex -0.0246 -0.000998992 -0.001375481
	vertex -0.0246 0.000771635 -0.001514635
endloop
endfacet
facet normal -1 0 1.192093E-07
outer loop
	vertex -0.0246 0.000525678 -0.001616623
	vertex -0.0246 -0.000771635 -0.001514635
	vertex -0.0246 0.000771635 -0.001514635
endloop
endfacet
facet normal -1 0 1.192093E-07
outer loop
	vertex -0.0246 -0.000525678 -0.001616623
	vertex -0.0246 -0.000771635 -0.001514635
	vertex -0.0246 0.000525678 -0.001616623
endloop
endfacet
facet normal -1 0 1.192093E-07
outer loop
	vertex -0.0246 0.00026558 -0.00167909
	vertex -0.0246 -0.000525678 -0.001616623
	vertex -0.0246 0.000525678 -0.001616623
endloop
endfacet
facet normal -1 0 1.192093E-07
outer loop
	vertex -0.0246 -0.00026558 -0.00167909
	vertex -0.0246 -0.000525678 -0.001616623
	vertex -0.0246 0.00026558 -0.00167909
endloop
endfacet
facet normal -1 0 1.192093E-07
outer loop
	vertex -0.0246 1.02119E-11 -0.001699862
	vertex -0.0246 -0.00026558 -0.00167909
	vertex -0.0246 0.00026558 -0.00167909
endloop
endfacet
facet normal -0.0002955794 -0.750754 0.6572554
outer loop
	vertex -0.0246 -0.001202294 0.001201764
	vertex -0.0246 -0.001375115 0.0009993209
	vertex -0.0146 -0.001250378 0.001151685
endloop
endfacet
facet normal -0.0002011061 -0.778036 0.6263565
outer loop
	vertex -0.0246 -0.001375115 0.0009993209
	vertex -0.0146 -0.001341352 0.001044103
	vertex -0.0146 -0.001250378 0.001151685
endloop
endfacet
facet normal -0.0001867414 -0.8116619 0.5831465
outer loop
	vertex -0.0246 -0.001375115 0.0009993209
	vertex -0.0146 -0.001423383 0.0009293581
	vertex -0.0146 -0.001341352 0.001044103
endloop
endfacet
facet normal -0.0003122389 -0.8456149 0.5297513
outer loop
	vertex -0.0246 -0.001375115 0.0009993209
	vertex -0.0246 -0.001514629 0.0007719366
	vertex -0.0146 -0.001423383 0.0009293581
endloop
endfacet
facet normal -0.0001856585 -0.8691592 0.4923798
outer loop
	vertex -0.0246 -0.001514629 0.0007719366
	vertex -0.0146 -0.001494902 0.0008094317
	vertex -0.0146 -0.001423383 0.0009293581
endloop
endfacet
facet normal -0.0001706382 -0.8954748 0.4437541
outer loop
	vertex -0.0246 -0.001514629 0.0007719366
	vertex -0.0146 -0.001556574 0.0006829925
	vertex -0.0146 -0.001494902 0.0008094317
endloop
endfacet
facet normal -0.0003182093 -0.919313 0.3881505
outer loop
	vertex -0.0246 -0.001514629 0.0007719366
	vertex -0.0246 -0.00161681 0.0005249797
	vertex -0.0146 -0.001556574 0.0006829925
endloop
endfacet
facet normal -0.0001718303 -0.9375293 0.3452233
outer loop
	vertex -0.0246 -0.00161681 0.0005249797
	vertex -0.0146 -0.001607936 0.0005515103
	vertex -0.0146 -0.001556574 0.0006829925
endloop
endfacet
facet normal -0.0001680801 -0.9553439 0.2933174
outer loop
	vertex -0.0246 -0.00161681 0.0005249797
	vertex -0.0146 -0.001647913 0.0004175833
	vertex -0.0146 -0.001607936 0.0005515103
endloop
endfacet
facet normal -0.0003291219 -0.9693431 0.2371921
outer loop
	vertex -0.0246 -0.00161681 0.0005249797
	vertex -0.0246 -0.001678802 0.0002671356
	vertex -0.0146 -0.001647913 0.0004175833
endloop
endfacet
facet normal -0.0001652141 -0.9811124 0.1890401
outer loop
	vertex -0.0246 -0.001678802 0.0002671356
	vertex -0.0146 -0.001676434 0.0002813792
	vertex -0.0146 -0.001647913 0.0004175833
endloop
endfacet
facet normal -0.0001607165 -0.9901567 0.1350631
outer loop
	vertex -0.0246 -0.001678802 0.0002671356
	vertex -0.0146 -0.001693797 0.0001421856
	vertex -0.0146 -0.001676434 0.0002813792
endloop
endfacet
facet normal -0.0002446131 -0.9947002 0.08016098
outer loop
	vertex -0.0246 -0.001678802 0.0002671356
	vertex -0.0246 -0.0017 2.450679E-09
	vertex -0.0146 -0.001693797 0.0001421856
endloop
endfacet
facet normal -0.0002319714 -0.9988294 0.02775529
outer loop
	vertex -0.0246 -0.0017 2.450679E-09
	vertex -0.0146 -0.0017 1.519357E-09
	vertex -0.0146 -0.001693797 0.0001421856
endloop
endfacet
facet normal -0.0002587662 -0.9958723 -0.05244935
outer loop
	vertex -0.0246 -0.0017 2.450679E-09
	vertex -0.0246 -0.001678802 -0.0002671307
	vertex -0.0146 -0.0017 1.519357E-09
endloop
endfacet
facet normal -0.000325478 -0.9947102 -0.08020498
outer loop
	vertex -0.0246 -0.001678802 -0.0002671307
	vertex -0.0146 -0.001693797 -0.0001421835
	vertex -0.0146 -0.0017 1.519357E-09
endloop
endfacet
facet normal -0.0002980357 -0.9901531 -0.1350341
outer loop
	vertex -0.0246 -0.001678802 -0.0002671307
	vertex -0.0146 -0.001676434 -0.0002813776
	vertex -0.0146 -0.001693797 -0.0001421835
endloop
endfacet
facet normal -0.0001978974 -0.9750066 -0.2102121
outer loop
	vertex -0.0246 -0.001678802 -0.0002671307
	vertex -0.0246 -0.00161681 -0.0005249766
	vertex -0.0146 -0.001676434 -0.0002813776
endloop
endfacet
facet normal -0.0003058662 -0.9689399 -0.2397242
outer loop
	vertex -0.0246 -0.00161681 -0.0005249766
	vertex -0.0146 -0.001647913 -0.0004175816
	vertex -0.0146 -0.001676434 -0.0002813776
endloop
endfacet
facet normal -0.0002724578 -0.9553502 -0.293277
outer loop
	vertex -0.0246 -0.00161681 -0.0005249766
	vertex -0.0146 -0.001607936 -0.0005515077
	vertex -0.0146 -0.001647913 -0.0004175816
endloop
endfacet
facet normal -0.0002254049 -0.9292049 -0.3628174
outer loop
	vertex -0.0246 -0.00161681 -0.0005249766
	vertex -0.0246 -0.001514629 -0.0007719317
	vertex -0.0146 -0.001607936 -0.0005515077
endloop
endfacet
facet normal -0.0002661049 -0.9175067 -0.3935716
outer loop
	vertex -0.0246 -0.001514629 -0.0007719317
	vertex -0.0146 -0.001556574 -0.0006829904
	vertex -0.0146 -0.001607936 -0.0005515077
endloop
endfacet
facet normal -0.0002423525 -0.8954856 -0.4437238
outer loop
	vertex -0.0246 -0.001514629 -0.0007719317
	vertex -0.0146 -0.001494902 -0.0008094296
	vertex -0.0146 -0.001556574 -0.0006829904
endloop
endfacet
facet normal -0.000254482 -0.8598039 -0.5059486
outer loop
	vertex -0.0246 -0.001514629 -0.0007719317
	vertex -0.0246 -0.001375115 -0.000999316
	vertex -0.0146 -0.001494902 -0.0008094296
endloop
endfacet
facet normal -0.00024575 -0.8418182 -0.5369905
outer loop
	vertex -0.0246 -0.001375115 -0.000999316
	vertex -0.0146 -0.001423383 -0.0009293546
	vertex -0.0146 -0.001494902 -0.0008094296
endloop
endfacet
facet normal -0.0002234578 -0.8116801 -0.5831177
outer loop
	vertex -0.0246 -0.001375115 -0.000999316
	vertex -0.0146 -0.001341352 -0.0010441
	vertex -0.0146 -0.001423383 -0.0009293546
endloop
endfacet
facet normal -0.0002772013 -0.7684362 -0.6363693
outer loop
	vertex -0.0246 -0.001375115 -0.000999316
	vertex -0.0246 -0.001202294 -0.001201759
	vertex -0.0146 -0.001341352 -0.0010441
endloop
endfacet
facet normal -0.0002239347 -0.7441627 -0.6660222
outer loop
	vertex -0.0246 -0.001202294 -0.001201759
	vertex -0.0146 -0.001250378 -0.001151683
	vertex -0.0146 -0.001341352 -0.0010441
endloop
endfacet
facet normal -0.000203828 0.7067347 -0.7066517
outer loop
	vertex -0.0246 0.001202294 -0.001201759
	vertex -0.0146 0.001250378 -0.001151683
	vertex -0.0146 0.001151684 -0.001250376
endloop
endfacet
facet normal -0.0002230803 0.6661361 -0.7440491
outer loop
	vertex -0.0246 0.001202294 -0.001201759
	vertex -0.0146 0.001151684 -0.001250376
	vertex -0.0146 0.001044101 -0.001341351
endloop
endfacet
facet normal -0.0002762675 0.6364015 -0.7683819
outer loop
	vertex -0.0246 0.000998992 -0.001375481
	vertex -0.0246 0.001202294 -0.001201759
	vertex -0.0146 0.001044101 -0.001341351
endloop
endfacet
facet normal -0.0002192855 0.5830373 -0.8117386
outer loop
	vertex -0.0246 0.000998992 -0.001375481
	vertex -0.0146 0.001044101 -0.001341351
	vertex -0.0146 0.000929356 -0.001423382
endloop
endfacet
facet normal -0.0002419949 0.5369061 -0.8418791
outer loop
	vertex -0.0246 0.000998992 -0.001375481
	vertex -0.0146 0.000929356 -0.001423382
	vertex -0.0146 0.000809431 -0.001494901
endloop
endfacet
facet normal -0.0002555847 0.5058119 -0.8598915
outer loop
	vertex -0.0246 0.000771635 -0.001514635
	vertex -0.0246 0.000998992 -0.001375481
	vertex -0.0146 0.000809431 -0.001494901
endloop
endfacet
facet normal -0.0002462268 0.4436695 -0.8955135
outer loop
	vertex -0.0246 0.000771635 -0.001514635
	vertex -0.0146 0.000809431 -0.001494901
	vertex -0.0146 0.000682992 -0.001556573
endloop
endfacet
facet normal -0.0002716184 0.3935139 -0.9175352
outer loop
	vertex -0.0246 0.000771635 -0.001514635
	vertex -0.0146 0.000682992 -0.001556573
	vertex -0.0146 0.000551509 -0.001607935
endloop
endfacet
facet normal -0.0002250274 0.3628412 -0.929207
outer loop
	vertex -0.0246 0.000525678 -0.001616623
	vertex -0.0246 0.000771635 -0.001514635
	vertex -0.0146 0.000551509 -0.001607935
endloop
endfacet
facet normal -0.0002730688 0.2932351 -0.9553556
outer loop
	vertex -0.0246 0.000525678 -0.001616623
	vertex -0.0146 0.000551509 -0.001607935
	vertex -0.0146 0.000417543 -0.001647917
endloop
endfacet
facet normal -0.0003056129 0.2395867 -0.9689602
outer loop
	vertex -0.0246 0.000525678 -0.001616623
	vertex -0.0146 0.000417543 -0.001647917
	vertex -0.0146 0.000280093 -0.001676603
endloop
endfacet
facet normal -0.0001974304 0.2099685 -0.9750326
outer loop
	vertex -0.0246 0.00026558 -0.00167909
	vertex -0.0246 0.000525678 -0.001616623
	vertex -0.0146 0.000280093 -0.001676603
endloop
endfacet
facet normal -0.0003008644 0.1344828 -0.9902244
outer loop
	vertex -0.0246 0.00026558 -0.00167909
	vertex -0.0146 0.000280093 -0.001676603
	vertex -0.0146 0.000139968 -0.001694088
endloop
endfacet
facet normal -0.0003326932 0.07975525 -0.9947646
outer loop
	vertex -0.0246 0.00026558 -0.00167909
	vertex -0.0146 0.000139968 -0.001694088
	vertex -0.0146 1.02119E-11 -0.001699999
endloop
endfacet
facet normal -0.0002686779 0.0522253 -0.9959079
outer loop
	vertex -0.0246 1.02119E-11 -0.001699862
	vertex -0.0246 0.00026558 -0.00167909
	vertex -0.0146 1.02119E-11 -0.001699999
endloop
endfacet
facet normal -0.0002414982 -0.0275296 -0.9988484
outer loop
	vertex -0.0246 1.02119E-11 -0.001699862
	vertex -0.0146 1.02119E-11 -0.001699999
	vertex -0.0146 -0.000139968 -0.001694088
endloop
endfacet
facet normal -0.0002515713 -0.07971025 -0.9947549
outer loop
	vertex -0.0246 -0.00026558 -0.00167909
	vertex -0.0246 1.02119E-11 -0.001699862
	vertex -0.0146 -0.000139968 -0.001694088
endloop
endfacet
facet normal -0.000163873 -0.1345086 -0.9902287
outer loop
	vertex -0.0246 -0.00026558 -0.00167909
	vertex -0.0146 -0.000139968 -0.001694088
	vertex -0.0146 -0.000280093 -0.001676603
endloop
endfacet
facet normal -0.0001659592 -0.1885957 -0.9811949
outer loop
	vertex -0.0246 -0.00026558 -0.00167909
	vertex -0.0146 -0.000280093 -0.001676603
	vertex -0.0146 -0.000417543 -0.001647917
endloop
endfacet
facet normal -0.0003310442 -0.2369326 -0.9693818
outer loop
	vertex -0.0246 -0.000525678 -0.001616623
	vertex -0.0246 -0.00026558 -0.00167909
	vertex -0.0146 -0.000417543 -0.001647917
endloop
endfacet
facet normal -0.0001660784 -0.2932753 -0.9553495
outer loop
	vertex -0.0246 -0.000525678 -0.001616623
	vertex -0.0146 -0.000417543 -0.001647917
	vertex -0.0146 -0.000551509 -0.001607935
endloop
endfacet
facet normal -0.0001749198 -0.345299 -0.9375047
outer loop
	vertex -0.0246 -0.000525678 -0.001616623
	vertex -0.0146 -0.000551509 -0.001607935
	vertex -0.0146 -0.000682992 -0.001556573
endloop
endfacet
facet normal -0.0003227592 -0.3881844 -0.9193109
outer loop
	vertex -0.0246 -0.000771635 -0.001514635
	vertex -0.0246 -0.000525678 -0.001616623
	vertex -0.0146 -0.000682992 -0.001556573
endloop
endfacet
facet normal -0.000178496 -0.4437067 -0.8954992
outer loop
	vertex -0.0246 -0.000771635 -0.001514635
	vertex -0.0146 -0.000682992 -0.001556573
	vertex -0.0146 -0.000809431 -0.001494901
endloop
endfacet
facet normal -0.0001905362 -0.4923281 -0.8691859
outer loop
	vertex -0.0246 -0.000771635 -0.001514635
	vertex -0.0146 -0.000809431 -0.001494901
	vertex -0.0146 -0.000929356 -0.001423382
endloop
endfacet
facet normal -0.0003121893 -0.5296155 -0.8457028
outer loop
	vertex -0.0246 -0.000998992 -0.001375481
	vertex -0.0246 -0.000771635 -0.001514635
	vertex -0.0146 -0.000929356 -0.001423382
endloop
endfacet
facet normal -0.0001839797 -0.5830604 -0.8117243
outer loop
	vertex -0.0246 -0.000998992 -0.001375481
	vertex -0.0146 -0.000929356 -0.001423382
	vertex -0.0146 -0.001044101 -0.001341351
endloop
endfacet
facet normal -0.0001966159 -0.6262734 -0.7780964
outer loop
	vertex -0.0246 -0.000998992 -0.001375481
	vertex -0.0146 -0.001044101 -0.001341351
	vertex -0.0146 -0.001151684 -0.001250376
endloop
endfacet
facet normal -0.0002952019 -0.6572849 -0.7507016
outer loop
	vertex -0.0246 -0.001202294 -0.001201759
	vertex -0.0246 -0.000998992 -0.001375481
	vertex -0.0146 -0.001151684 -0.001250376
endloop
endfacet
facet normal -0.0002027154 -0.7067647 -0.7066216
outer loop
	vertex -0.0246 -0.001202294 -0.001201759
	vertex -0.0146 -0.001151684 -0.001250376
	vertex -0.0146 -0.001250378 -0.001151683
endloop
endfacet
endsolid _f_poll
